<mxfile host="app.diagrams.net" agent="Mozilla/5.0 (Windows NT 10.0; Win64; x64) AppleWebKit/537.36 (KHTML, like Gecko) Chrome/134.0.0.0 Safari/537.36" version="26.1.1" pages="5">
  <diagram name="WindowManager" id="xMiRBPXwJUptASU7cXnV">
    <mxGraphModel dx="2117" dy="580" grid="1" gridSize="10" guides="1" tooltips="1" connect="1" arrows="1" fold="1" page="1" pageScale="1" pageWidth="827" pageHeight="1169" math="0" shadow="0">
      <root>
        <mxCell id="0" />
        <mxCell id="1" parent="0" />
        <mxCell id="hsYY9GAN0r7T72lKArb5-16" value="&lt;span style=&quot;font-weight: 400;&quot;&gt;VIewManager&lt;/span&gt;" style="swimlane;whiteSpace=wrap;html=1;" parent="1" vertex="1">
          <mxGeometry x="185" y="10" width="140" height="110" as="geometry" />
        </mxCell>
        <mxCell id="hsYY9GAN0r7T72lKArb5-17" value="+addView()&lt;div&gt;+updateViewLayout()&lt;/div&gt;&lt;div&gt;+&lt;span style=&quot;background-color: transparent; color: light-dark(rgb(0, 0, 0), rgb(255, 255, 255));&quot;&gt;removeVIew()&lt;/span&gt;&lt;/div&gt;" style="text;html=1;align=center;verticalAlign=middle;resizable=0;points=[];autosize=1;strokeColor=none;fillColor=none;" parent="hsYY9GAN0r7T72lKArb5-16" vertex="1">
          <mxGeometry y="38" width="140" height="60" as="geometry" />
        </mxCell>
        <mxCell id="hsYY9GAN0r7T72lKArb5-19" value="&lt;span style=&quot;text-wrap-mode: wrap;&quot;&gt;WindowManager&lt;/span&gt;" style="swimlane;fontStyle=0;childLayout=stackLayout;horizontal=1;startSize=26;fillColor=none;horizontalStack=0;resizeParent=1;resizeParentMax=0;resizeLast=0;collapsible=1;marginBottom=0;html=1;" parent="1" vertex="1">
          <mxGeometry x="160" y="180" width="190" height="90" as="geometry" />
        </mxCell>
        <mxCell id="hsYY9GAN0r7T72lKArb5-20" value="+getDefaultDisplay()：Display" style="text;strokeColor=none;fillColor=none;align=left;verticalAlign=top;spacingLeft=4;spacingRight=4;overflow=hidden;rotatable=0;points=[[0,0.5],[1,0.5]];portConstraint=eastwest;whiteSpace=wrap;html=1;" parent="hsYY9GAN0r7T72lKArb5-19" vertex="1">
          <mxGeometry y="26" width="190" height="26" as="geometry" />
        </mxCell>
        <mxCell id="hsYY9GAN0r7T72lKArb5-21" value="+removeViewImmediate()" style="text;strokeColor=none;fillColor=none;align=left;verticalAlign=top;spacingLeft=4;spacingRight=4;overflow=hidden;rotatable=0;points=[[0,0.5],[1,0.5]];portConstraint=eastwest;whiteSpace=wrap;html=1;" parent="hsYY9GAN0r7T72lKArb5-19" vertex="1">
          <mxGeometry y="52" width="190" height="38" as="geometry" />
        </mxCell>
        <mxCell id="hsYY9GAN0r7T72lKArb5-26" value="&lt;span style=&quot;text-wrap-mode: wrap;&quot;&gt;Window&lt;/span&gt;" style="swimlane;fontStyle=0;childLayout=stackLayout;horizontal=1;startSize=26;fillColor=none;horizontalStack=0;resizeParent=1;resizeParentMax=0;resizeLast=0;collapsible=1;marginBottom=0;html=1;" parent="1" vertex="1">
          <mxGeometry x="440" y="190" width="190" height="64" as="geometry" />
        </mxCell>
        <mxCell id="hsYY9GAN0r7T72lKArb5-29" value="&lt;span style=&quot;text-wrap-mode: wrap;&quot;&gt;PhoneWindow&lt;/span&gt;" style="swimlane;fontStyle=0;childLayout=stackLayout;horizontal=1;startSize=26;fillColor=none;horizontalStack=0;resizeParent=1;resizeParentMax=0;resizeLast=0;collapsible=1;marginBottom=0;html=1;" parent="1" vertex="1">
          <mxGeometry x="440" y="300" width="190" height="62" as="geometry" />
        </mxCell>
        <mxCell id="q5cbPu6KB03wQ3lJCZvl-1" style="edgeStyle=orthogonalEdgeStyle;rounded=0;orthogonalLoop=1;jettySize=auto;html=1;entryX=0;entryY=0.25;entryDx=0;entryDy=0;exitX=1.015;exitY=-0.231;exitDx=0;exitDy=0;exitPerimeter=0;" parent="1" source="hsYY9GAN0r7T72lKArb5-20" target="hsYY9GAN0r7T72lKArb5-26" edge="1">
          <mxGeometry relative="1" as="geometry" />
        </mxCell>
        <mxCell id="q5cbPu6KB03wQ3lJCZvl-2" value="&lt;span style=&quot;text-wrap-mode: wrap;&quot;&gt;WindowManagerImpl&lt;/span&gt;" style="swimlane;fontStyle=0;childLayout=stackLayout;horizontal=1;startSize=26;fillColor=none;horizontalStack=0;resizeParent=1;resizeParentMax=0;resizeLast=0;collapsible=1;marginBottom=0;html=1;" parent="1" vertex="1">
          <mxGeometry x="160" y="311" width="190" height="90" as="geometry" />
        </mxCell>
        <mxCell id="q5cbPu6KB03wQ3lJCZvl-3" value="+getDefaultDisplay()：Display" style="text;strokeColor=none;fillColor=none;align=left;verticalAlign=top;spacingLeft=4;spacingRight=4;overflow=hidden;rotatable=0;points=[[0,0.5],[1,0.5]];portConstraint=eastwest;whiteSpace=wrap;html=1;" parent="q5cbPu6KB03wQ3lJCZvl-2" vertex="1">
          <mxGeometry y="26" width="190" height="26" as="geometry" />
        </mxCell>
        <mxCell id="q5cbPu6KB03wQ3lJCZvl-4" value="+removeViewImmediate()" style="text;strokeColor=none;fillColor=none;align=left;verticalAlign=top;spacingLeft=4;spacingRight=4;overflow=hidden;rotatable=0;points=[[0,0.5],[1,0.5]];portConstraint=eastwest;whiteSpace=wrap;html=1;" parent="q5cbPu6KB03wQ3lJCZvl-2" vertex="1">
          <mxGeometry y="52" width="190" height="38" as="geometry" />
        </mxCell>
        <mxCell id="q5cbPu6KB03wQ3lJCZvl-7" value="&lt;span style=&quot;text-wrap-mode: wrap;&quot;&gt;WindowManagerGlobal&lt;/span&gt;" style="swimlane;fontStyle=0;childLayout=stackLayout;horizontal=1;startSize=26;fillColor=none;horizontalStack=0;resizeParent=1;resizeParentMax=0;resizeLast=0;collapsible=1;marginBottom=0;html=1;" parent="1" vertex="1">
          <mxGeometry x="-80" y="311" width="180" height="90" as="geometry" />
        </mxCell>
        <mxCell id="q5cbPu6KB03wQ3lJCZvl-8" value="+getDefaultDisplay()：Display" style="text;strokeColor=none;fillColor=none;align=left;verticalAlign=top;spacingLeft=4;spacingRight=4;overflow=hidden;rotatable=0;points=[[0,0.5],[1,0.5]];portConstraint=eastwest;whiteSpace=wrap;html=1;" parent="q5cbPu6KB03wQ3lJCZvl-7" vertex="1">
          <mxGeometry y="26" width="180" height="26" as="geometry" />
        </mxCell>
        <mxCell id="q5cbPu6KB03wQ3lJCZvl-9" value="+removeViewImmediate()" style="text;strokeColor=none;fillColor=none;align=left;verticalAlign=top;spacingLeft=4;spacingRight=4;overflow=hidden;rotatable=0;points=[[0,0.5],[1,0.5]];portConstraint=eastwest;whiteSpace=wrap;html=1;" parent="q5cbPu6KB03wQ3lJCZvl-7" vertex="1">
          <mxGeometry y="52" width="180" height="38" as="geometry" />
        </mxCell>
        <mxCell id="q5cbPu6KB03wQ3lJCZvl-13" value="" style="endArrow=block;dashed=1;endFill=0;endSize=12;html=1;rounded=0;exitX=0.5;exitY=0;exitDx=0;exitDy=0;entryX=0.506;entryY=0.884;entryDx=0;entryDy=0;entryPerimeter=0;" parent="1" source="q5cbPu6KB03wQ3lJCZvl-2" target="hsYY9GAN0r7T72lKArb5-21" edge="1">
          <mxGeometry width="160" relative="1" as="geometry">
            <mxPoint x="320" y="130" as="sourcePoint" />
            <mxPoint x="480" y="130" as="targetPoint" />
          </mxGeometry>
        </mxCell>
        <mxCell id="q5cbPu6KB03wQ3lJCZvl-14" style="edgeStyle=orthogonalEdgeStyle;rounded=0;orthogonalLoop=1;jettySize=auto;html=1;entryX=0;entryY=0.5;entryDx=0;entryDy=0;" parent="1" source="q5cbPu6KB03wQ3lJCZvl-8" target="q5cbPu6KB03wQ3lJCZvl-3" edge="1">
          <mxGeometry relative="1" as="geometry" />
        </mxCell>
        <mxCell id="q5cbPu6KB03wQ3lJCZvl-18" value="" style="shape=singleArrow;direction=north;whiteSpace=wrap;html=1;" parent="1" vertex="1">
          <mxGeometry x="530" y="254" width="12.5" height="46" as="geometry" />
        </mxCell>
        <mxCell id="q5cbPu6KB03wQ3lJCZvl-19" value="" style="shape=singleArrow;direction=north;whiteSpace=wrap;html=1;arrowWidth=0.1066650390625;arrowSize=0.37857164655412945;" parent="1" vertex="1">
          <mxGeometry x="257.5" y="120" width="15" height="60" as="geometry" />
        </mxCell>
        <mxCell id="q5cbPu6KB03wQ3lJCZvl-34" value="" style="rounded=0;whiteSpace=wrap;html=1;" parent="1" vertex="1">
          <mxGeometry x="40" y="440" width="245" height="120" as="geometry" />
        </mxCell>
        <mxCell id="q5cbPu6KB03wQ3lJCZvl-35" value="ViewRootImpl" style="rounded=0;whiteSpace=wrap;html=1;" parent="1" vertex="1">
          <mxGeometry x="60" y="479" width="95" height="60" as="geometry" />
        </mxCell>
        <mxCell id="q5cbPu6KB03wQ3lJCZvl-36" value="&lt;span style=&quot;color: rgb(0, 0, 0); font-family: Helvetica; font-size: 12px; font-style: normal; font-variant-ligatures: normal; font-variant-caps: normal; font-weight: 400; letter-spacing: normal; orphans: 2; text-align: center; text-indent: 0px; text-transform: none; widows: 2; word-spacing: 0px; -webkit-text-stroke-width: 0px; white-space: normal; background-color: rgb(251, 251, 251); text-decoration-thickness: initial; text-decoration-style: initial; text-decoration-color: initial; float: none; display: inline !important;&quot;&gt;本地进程&lt;/span&gt;" style="text;html=1;align=center;verticalAlign=middle;resizable=0;points=[];autosize=1;strokeColor=none;fillColor=none;" parent="1" vertex="1">
          <mxGeometry x="-10" y="434" width="70" height="30" as="geometry" />
        </mxCell>
        <mxCell id="q5cbPu6KB03wQ3lJCZvl-37" value="IWindowSession" style="rounded=0;whiteSpace=wrap;html=1;" parent="1" vertex="1">
          <mxGeometry x="182.5" y="479" width="95" height="60" as="geometry" />
        </mxCell>
        <mxCell id="q5cbPu6KB03wQ3lJCZvl-38" value="" style="endArrow=classic;html=1;rounded=0;exitX=1;exitY=0.5;exitDx=0;exitDy=0;" parent="1" source="q5cbPu6KB03wQ3lJCZvl-35" target="q5cbPu6KB03wQ3lJCZvl-37" edge="1">
          <mxGeometry width="50" height="50" relative="1" as="geometry">
            <mxPoint x="355" y="469" as="sourcePoint" />
            <mxPoint x="405" y="419" as="targetPoint" />
          </mxGeometry>
        </mxCell>
        <mxCell id="q5cbPu6KB03wQ3lJCZvl-39" value="" style="rounded=0;whiteSpace=wrap;html=1;" parent="1" vertex="1">
          <mxGeometry x="372.5" y="440" width="245" height="120" as="geometry" />
        </mxCell>
        <mxCell id="q5cbPu6KB03wQ3lJCZvl-40" value="SystmServer进程&lt;div&gt;&lt;br&gt;&lt;/div&gt;" style="text;html=1;align=center;verticalAlign=middle;resizable=0;points=[];autosize=1;strokeColor=none;fillColor=none;" parent="1" vertex="1">
          <mxGeometry x="300" y="429" width="120" height="40" as="geometry" />
        </mxCell>
        <mxCell id="q5cbPu6KB03wQ3lJCZvl-41" value="" style="rounded=0;whiteSpace=wrap;html=1;" parent="1" vertex="1">
          <mxGeometry x="425" y="469" width="150" height="80" as="geometry" />
        </mxCell>
        <mxCell id="q5cbPu6KB03wQ3lJCZvl-42" value="WMS" style="text;html=1;align=center;verticalAlign=middle;resizable=0;points=[];autosize=1;strokeColor=none;fillColor=none;" parent="1" vertex="1">
          <mxGeometry x="470" y="469" width="50" height="30" as="geometry" />
        </mxCell>
        <mxCell id="q5cbPu6KB03wQ3lJCZvl-43" value="Session" style="rounded=0;whiteSpace=wrap;html=1;" parent="1" vertex="1">
          <mxGeometry x="461" y="508" width="84" height="30" as="geometry" />
        </mxCell>
        <mxCell id="q5cbPu6KB03wQ3lJCZvl-44" style="edgeStyle=orthogonalEdgeStyle;rounded=0;orthogonalLoop=1;jettySize=auto;html=1;entryX=0;entryY=0.5;entryDx=0;entryDy=0;" parent="1" source="q5cbPu6KB03wQ3lJCZvl-37" target="q5cbPu6KB03wQ3lJCZvl-43" edge="1">
          <mxGeometry relative="1" as="geometry" />
        </mxCell>
        <mxCell id="q5cbPu6KB03wQ3lJCZvl-45" value="Binder通信" style="text;html=1;align=center;verticalAlign=middle;resizable=0;points=[];autosize=1;strokeColor=none;fillColor=none;" parent="1" vertex="1">
          <mxGeometry x="295" y="477" width="80" height="30" as="geometry" />
        </mxCell>
        <mxCell id="q5cbPu6KB03wQ3lJCZvl-47" value="WindowManagerGlobal" style="shape=umlLifeline;perimeter=lifelinePerimeter;whiteSpace=wrap;html=1;container=1;dropTarget=0;collapsible=0;recursiveResize=0;outlineConnect=0;portConstraint=eastwest;newEdgeStyle={&quot;curved&quot;:0,&quot;rounded&quot;:0};" parent="1" vertex="1">
          <mxGeometry x="160" y="613" width="100" height="300" as="geometry" />
        </mxCell>
        <mxCell id="q5cbPu6KB03wQ3lJCZvl-51" value="&lt;span style=&quot;font-size: 12px; background-color: rgb(251, 251, 251);&quot;&gt;updateViewLayout&lt;/span&gt;" style="html=1;verticalAlign=bottom;endArrow=block;curved=0;rounded=0;" parent="1" edge="1">
          <mxGeometry width="80" relative="1" as="geometry">
            <mxPoint x="130" y="698" as="sourcePoint" />
            <mxPoint x="210" y="698" as="targetPoint" />
          </mxGeometry>
        </mxCell>
        <mxCell id="q5cbPu6KB03wQ3lJCZvl-52" value="ViewRootImpl" style="shape=umlLifeline;perimeter=lifelinePerimeter;whiteSpace=wrap;html=1;container=1;dropTarget=0;collapsible=0;recursiveResize=0;outlineConnect=0;portConstraint=eastwest;newEdgeStyle={&quot;curved&quot;:0,&quot;rounded&quot;:0};" parent="1" vertex="1">
          <mxGeometry x="300" y="613" width="100" height="445" as="geometry" />
        </mxCell>
        <mxCell id="q5cbPu6KB03wQ3lJCZvl-53" value="&lt;span style=&quot;font-size: 12px; background-color: rgb(251, 251, 251);&quot;&gt;setLayoutParams&lt;/span&gt;" style="html=1;verticalAlign=bottom;endArrow=block;curved=0;rounded=0;" parent="1" source="q5cbPu6KB03wQ3lJCZvl-47" edge="1">
          <mxGeometry width="80" relative="1" as="geometry">
            <mxPoint x="270" y="738" as="sourcePoint" />
            <mxPoint x="350" y="738" as="targetPoint" />
          </mxGeometry>
        </mxCell>
        <mxCell id="q5cbPu6KB03wQ3lJCZvl-54" value="&lt;span style=&quot;font-size: 12px; background-color: rgb(251, 251, 251);&quot;&gt;scheduleTraversals&lt;/span&gt;" style="html=1;verticalAlign=bottom;endArrow=block;curved=0;rounded=0;" parent="1" target="q5cbPu6KB03wQ3lJCZvl-52" edge="1">
          <mxGeometry width="80" relative="1" as="geometry">
            <mxPoint x="350" y="748" as="sourcePoint" />
            <mxPoint x="430" y="818" as="targetPoint" />
            <Array as="points">
              <mxPoint x="430" y="748" />
              <mxPoint x="430" y="788" />
            </Array>
          </mxGeometry>
        </mxCell>
        <mxCell id="q5cbPu6KB03wQ3lJCZvl-55" value="Choreographer" style="shape=umlLifeline;perimeter=lifelinePerimeter;whiteSpace=wrap;html=1;container=1;dropTarget=0;collapsible=0;recursiveResize=0;outlineConnect=0;portConstraint=eastwest;newEdgeStyle={&quot;curved&quot;:0,&quot;rounded&quot;:0};" parent="1" vertex="1">
          <mxGeometry x="448" y="613" width="100" height="300" as="geometry" />
        </mxCell>
        <mxCell id="q5cbPu6KB03wQ3lJCZvl-56" value="&lt;span style=&quot;font-size: 12px; background-color: rgb(251, 251, 251);&quot;&gt;setLayoutParams&lt;/span&gt;" style="html=1;verticalAlign=bottom;endArrow=block;curved=0;rounded=0;" parent="1" edge="1">
          <mxGeometry width="80" relative="1" as="geometry">
            <mxPoint x="353" y="818" as="sourcePoint" />
            <mxPoint x="493" y="818" as="targetPoint" />
          </mxGeometry>
        </mxCell>
        <mxCell id="q5cbPu6KB03wQ3lJCZvl-58" value="&lt;span style=&quot;font-size: 12px; background-color: rgb(251, 251, 251);&quot;&gt;doTraversal&lt;/span&gt;" style="html=1;verticalAlign=bottom;endArrow=block;curved=0;rounded=0;" parent="1" edge="1">
          <mxGeometry width="80" relative="1" as="geometry">
            <mxPoint x="351" y="835" as="sourcePoint" />
            <mxPoint x="351" y="875" as="targetPoint" />
            <Array as="points">
              <mxPoint x="431" y="835" />
              <mxPoint x="431" y="875" />
              <mxPoint x="400" y="875" />
            </Array>
          </mxGeometry>
        </mxCell>
        <mxCell id="q5cbPu6KB03wQ3lJCZvl-59" value="&lt;span style=&quot;font-size: 12px; background-color: rgb(251, 251, 251);&quot;&gt;performTraversals&lt;/span&gt;" style="html=1;verticalAlign=bottom;endArrow=block;curved=0;rounded=0;" parent="1" edge="1">
          <mxGeometry width="80" relative="1" as="geometry">
            <mxPoint x="350" y="881" as="sourcePoint" />
            <mxPoint x="350" y="921" as="targetPoint" />
            <Array as="points">
              <mxPoint x="430" y="881" />
              <mxPoint x="430" y="921" />
              <mxPoint x="399" y="921" />
            </Array>
          </mxGeometry>
        </mxCell>
        <mxCell id="q5cbPu6KB03wQ3lJCZvl-60" value="Session" style="shape=umlLifeline;perimeter=lifelinePerimeter;whiteSpace=wrap;html=1;container=1;dropTarget=0;collapsible=0;recursiveResize=0;outlineConnect=0;portConstraint=eastwest;newEdgeStyle={&quot;curved&quot;:0,&quot;rounded&quot;:0};" parent="1" vertex="1">
          <mxGeometry x="575" y="613" width="100" height="425" as="geometry" />
        </mxCell>
        <mxCell id="q5cbPu6KB03wQ3lJCZvl-61" value="&lt;span style=&quot;font-size: 12px; background-color: rgb(251, 251, 251);&quot;&gt;relayout&lt;/span&gt;" style="html=1;verticalAlign=bottom;endArrow=block;curved=0;rounded=0;" parent="1" target="q5cbPu6KB03wQ3lJCZvl-60" edge="1">
          <mxGeometry x="-0.0018" width="80" relative="1" as="geometry">
            <mxPoint x="350" y="958" as="sourcePoint" />
            <mxPoint x="490" y="958" as="targetPoint" />
            <mxPoint as="offset" />
          </mxGeometry>
        </mxCell>
        <mxCell id="q5cbPu6KB03wQ3lJCZvl-62" value="WMS" style="shape=umlLifeline;perimeter=lifelinePerimeter;whiteSpace=wrap;html=1;container=1;dropTarget=0;collapsible=0;recursiveResize=0;outlineConnect=0;portConstraint=eastwest;newEdgeStyle={&quot;curved&quot;:0,&quot;rounded&quot;:0};" parent="1" vertex="1">
          <mxGeometry x="700" y="613" width="100" height="445" as="geometry" />
        </mxCell>
        <mxCell id="q5cbPu6KB03wQ3lJCZvl-63" value="View" style="shape=umlLifeline;perimeter=lifelinePerimeter;whiteSpace=wrap;html=1;container=1;dropTarget=0;collapsible=0;recursiveResize=0;outlineConnect=0;portConstraint=eastwest;newEdgeStyle={&quot;curved&quot;:0,&quot;rounded&quot;:0};" parent="1" vertex="1">
          <mxGeometry x="827" y="613" width="100" height="445" as="geometry" />
        </mxCell>
        <mxCell id="q5cbPu6KB03wQ3lJCZvl-64" value="&lt;span style=&quot;font-size: 12px; background-color: rgb(251, 251, 251);&quot;&gt;relayoutWindow&lt;/span&gt;" style="html=1;verticalAlign=bottom;endArrow=block;curved=0;rounded=0;" parent="1" edge="1">
          <mxGeometry width="80" relative="1" as="geometry">
            <mxPoint x="630" y="978" as="sourcePoint" />
            <mxPoint x="750" y="978" as="targetPoint" />
          </mxGeometry>
        </mxCell>
        <mxCell id="q5cbPu6KB03wQ3lJCZvl-65" value="&lt;span style=&quot;font-size: 12px; background-color: rgb(251, 251, 251);&quot;&gt;mesure，layout，draw&lt;/span&gt;" style="html=1;verticalAlign=bottom;endArrow=block;curved=0;rounded=0;" parent="1" target="q5cbPu6KB03wQ3lJCZvl-63" edge="1">
          <mxGeometry x="-0.0018" width="80" relative="1" as="geometry">
            <mxPoint x="357.5" y="1008" as="sourcePoint" />
            <mxPoint x="632.5" y="1008" as="targetPoint" />
            <mxPoint as="offset" />
          </mxGeometry>
        </mxCell>
        <mxCell id="q5cbPu6KB03wQ3lJCZvl-66" value="Window相关概念&lt;div&gt;&lt;br&gt;&lt;/div&gt;" style="text;html=1;align=center;verticalAlign=middle;resizable=0;points=[];autosize=1;strokeColor=none;fillColor=none;" parent="1" vertex="1">
          <mxGeometry x="-95" y="13" width="110" height="40" as="geometry" />
        </mxCell>
      </root>
    </mxGraphModel>
  </diagram>
  <diagram id="hiIp1uoy9ze5ISqHUn9F" name="WMS">
    <mxGraphModel dx="1290" dy="580" grid="1" gridSize="10" guides="1" tooltips="1" connect="1" arrows="1" fold="1" page="1" pageScale="1" pageWidth="827" pageHeight="1169" math="0" shadow="0">
      <root>
        <mxCell id="0" />
        <mxCell id="1" parent="0" />
        <mxCell id="wfU38rz4MCxDQINyHuAn-1" value="SystemServer" style="shape=umlLifeline;perimeter=lifelinePerimeter;whiteSpace=wrap;html=1;container=1;dropTarget=0;collapsible=0;recursiveResize=0;outlineConnect=0;portConstraint=eastwest;newEdgeStyle={&quot;curved&quot;:0,&quot;rounded&quot;:0};size=30;" parent="1" vertex="1">
          <mxGeometry x="100" y="130" width="100" height="320" as="geometry" />
        </mxCell>
        <mxCell id="wfU38rz4MCxDQINyHuAn-3" value="" style="html=1;points=[[0,0,0,0,5],[0,1,0,0,-5],[1,0,0,0,5],[1,1,0,0,-5]];perimeter=orthogonalPerimeter;outlineConnect=0;targetShapes=umlLifeline;portConstraint=eastwest;newEdgeStyle={&quot;curved&quot;:0,&quot;rounded&quot;:0};" parent="wfU38rz4MCxDQINyHuAn-1" vertex="1">
          <mxGeometry x="45" y="90" width="10" height="40" as="geometry" />
        </mxCell>
        <mxCell id="wfU38rz4MCxDQINyHuAn-4" value="run" style="html=1;align=left;spacingLeft=2;endArrow=block;rounded=0;edgeStyle=orthogonalEdgeStyle;curved=0;rounded=0;" parent="wfU38rz4MCxDQINyHuAn-1" edge="1">
          <mxGeometry relative="1" as="geometry">
            <mxPoint x="50" y="70" as="sourcePoint" />
            <Array as="points">
              <mxPoint x="80" y="100" />
            </Array>
            <mxPoint x="55" y="100" as="targetPoint" />
          </mxGeometry>
        </mxCell>
        <mxCell id="wfU38rz4MCxDQINyHuAn-5" value="" style="html=1;points=[[0,0,0,0,5],[0,1,0,0,-5],[1,0,0,0,5],[1,1,0,0,-5]];perimeter=orthogonalPerimeter;outlineConnect=0;targetShapes=umlLifeline;portConstraint=eastwest;newEdgeStyle={&quot;curved&quot;:0,&quot;rounded&quot;:0};" parent="wfU38rz4MCxDQINyHuAn-1" vertex="1">
          <mxGeometry x="46" y="140" width="10" height="40" as="geometry" />
        </mxCell>
        <mxCell id="wfU38rz4MCxDQINyHuAn-6" value="startOtherService" style="html=1;align=left;spacingLeft=2;endArrow=block;rounded=0;edgeStyle=orthogonalEdgeStyle;curved=0;rounded=0;" parent="wfU38rz4MCxDQINyHuAn-1" target="wfU38rz4MCxDQINyHuAn-5" edge="1">
          <mxGeometry x="0.0112" relative="1" as="geometry">
            <mxPoint x="55" y="120" as="sourcePoint" />
            <Array as="points">
              <mxPoint x="85" y="150" />
            </Array>
            <mxPoint as="offset" />
          </mxGeometry>
        </mxCell>
        <mxCell id="wfU38rz4MCxDQINyHuAn-2" value="main" style="html=1;verticalAlign=bottom;endArrow=block;curved=0;rounded=0;" parent="1" edge="1">
          <mxGeometry width="80" relative="1" as="geometry">
            <mxPoint x="70" y="190" as="sourcePoint" />
            <mxPoint x="150" y="190" as="targetPoint" />
          </mxGeometry>
        </mxCell>
        <mxCell id="wfU38rz4MCxDQINyHuAn-8" value="WindowManagerService" style="shape=umlLifeline;perimeter=lifelinePerimeter;whiteSpace=wrap;html=1;container=1;dropTarget=0;collapsible=0;recursiveResize=0;outlineConnect=0;portConstraint=eastwest;newEdgeStyle={&quot;curved&quot;:0,&quot;rounded&quot;:0};size=30;" parent="1" vertex="1">
          <mxGeometry x="280" y="130" width="100" height="300" as="geometry" />
        </mxCell>
        <mxCell id="wfU38rz4MCxDQINyHuAn-9" value="main" style="html=1;verticalAlign=bottom;endArrow=block;curved=0;rounded=0;" parent="1" target="wfU38rz4MCxDQINyHuAn-8" edge="1">
          <mxGeometry width="80" relative="1" as="geometry">
            <mxPoint x="150" y="310" as="sourcePoint" />
            <mxPoint x="230" y="310" as="targetPoint" />
          </mxGeometry>
        </mxCell>
        <mxCell id="wfU38rz4MCxDQINyHuAn-10" value="DisplayThread#Handler" style="shape=umlLifeline;perimeter=lifelinePerimeter;whiteSpace=wrap;html=1;container=1;dropTarget=0;collapsible=0;recursiveResize=0;outlineConnect=0;portConstraint=eastwest;newEdgeStyle={&quot;curved&quot;:0,&quot;rounded&quot;:0};size=30;" parent="1" vertex="1">
          <mxGeometry x="414" y="130" width="100" height="300" as="geometry" />
        </mxCell>
        <mxCell id="13dznwDAGwm9B_kfU7kU-1" value="runWithScissors" style="html=1;verticalAlign=bottom;endArrow=block;curved=0;rounded=0;" parent="1" edge="1">
          <mxGeometry width="80" relative="1" as="geometry">
            <mxPoint x="330" y="320" as="sourcePoint" />
            <mxPoint x="460" y="320" as="targetPoint" />
            <mxPoint as="offset" />
          </mxGeometry>
        </mxCell>
        <mxCell id="13dznwDAGwm9B_kfU7kU-2" value="new" style="html=1;verticalAlign=bottom;endArrow=open;dashed=1;endSize=8;curved=0;rounded=0;" parent="1" edge="1">
          <mxGeometry relative="1" as="geometry">
            <mxPoint x="463.5" y="350" as="sourcePoint" />
            <mxPoint x="330" y="350" as="targetPoint" />
          </mxGeometry>
        </mxCell>
        <mxCell id="13dznwDAGwm9B_kfU7kU-4" value="" style="html=1;points=[[0,0,0,0,5],[0,1,0,0,-5],[1,0,0,0,5],[1,1,0,0,-5]];perimeter=orthogonalPerimeter;outlineConnect=0;targetShapes=umlLifeline;portConstraint=eastwest;newEdgeStyle={&quot;curved&quot;:0,&quot;rounded&quot;:0};" parent="1" vertex="1">
          <mxGeometry x="325" y="378" width="10" height="40" as="geometry" />
        </mxCell>
        <mxCell id="13dznwDAGwm9B_kfU7kU-5" value="initPolicy" style="html=1;align=left;spacingLeft=2;endArrow=block;rounded=0;edgeStyle=orthogonalEdgeStyle;curved=0;rounded=0;" parent="1" target="13dznwDAGwm9B_kfU7kU-4" edge="1">
          <mxGeometry x="0.0112" relative="1" as="geometry">
            <mxPoint x="334" y="358" as="sourcePoint" />
            <Array as="points">
              <mxPoint x="364" y="388" />
            </Array>
            <mxPoint as="offset" />
          </mxGeometry>
        </mxCell>
        <mxCell id="13dznwDAGwm9B_kfU7kU-6" value="UIThread#Handler" style="shape=umlLifeline;perimeter=lifelinePerimeter;whiteSpace=wrap;html=1;container=1;dropTarget=0;collapsible=0;recursiveResize=0;outlineConnect=0;portConstraint=eastwest;newEdgeStyle={&quot;curved&quot;:0,&quot;rounded&quot;:0};size=30;" parent="1" vertex="1">
          <mxGeometry x="550" y="130" width="100" height="300" as="geometry" />
        </mxCell>
        <mxCell id="13dznwDAGwm9B_kfU7kU-7" value="runWithScissors" style="html=1;verticalAlign=bottom;endArrow=block;curved=0;rounded=0;" parent="1" target="13dznwDAGwm9B_kfU7kU-6" edge="1">
          <mxGeometry width="80" relative="1" as="geometry">
            <mxPoint x="334" y="410" as="sourcePoint" />
            <mxPoint x="514" y="410" as="targetPoint" />
          </mxGeometry>
        </mxCell>
        <mxCell id="13dznwDAGwm9B_kfU7kU-8" value="WindowManagerPolicy/&lt;div&gt;PhoneWindowManager&lt;/div&gt;" style="shape=umlLifeline;perimeter=lifelinePerimeter;whiteSpace=wrap;html=1;container=1;dropTarget=0;collapsible=0;recursiveResize=0;outlineConnect=0;portConstraint=eastwest;newEdgeStyle={&quot;curved&quot;:0,&quot;rounded&quot;:0};size=30;" parent="1" vertex="1">
          <mxGeometry x="660" y="130" width="100" height="340" as="geometry" />
        </mxCell>
        <mxCell id="13dznwDAGwm9B_kfU7kU-9" value="init" style="html=1;verticalAlign=bottom;endArrow=block;curved=0;rounded=0;" parent="1" edge="1">
          <mxGeometry width="80" relative="1" as="geometry">
            <mxPoint x="600" y="418" as="sourcePoint" />
            <mxPoint x="710" y="418" as="targetPoint" />
          </mxGeometry>
        </mxCell>
        <mxCell id="13dznwDAGwm9B_kfU7kU-10" value="WMS.displayReady" style="html=1;verticalAlign=bottom;endArrow=open;dashed=1;endSize=8;curved=0;rounded=0;" parent="1" target="wfU38rz4MCxDQINyHuAn-1" edge="1">
          <mxGeometry relative="1" as="geometry">
            <mxPoint x="713.5" y="450" as="sourcePoint" />
            <mxPoint x="580" y="450" as="targetPoint" />
          </mxGeometry>
        </mxCell>
        <mxCell id="YI1TtE5vk-PvlQXo_qgQ-1" value="" style="rounded=0;whiteSpace=wrap;html=1;" parent="1" vertex="1">
          <mxGeometry x="160" y="700" width="210" height="220" as="geometry" />
        </mxCell>
        <mxCell id="YI1TtE5vk-PvlQXo_qgQ-2" value="" style="rounded=0;whiteSpace=wrap;html=1;" parent="1" vertex="1">
          <mxGeometry x="335" y="950" width="210" height="140" as="geometry" />
        </mxCell>
        <mxCell id="YI1TtE5vk-PvlQXo_qgQ-3" value="" style="rounded=0;whiteSpace=wrap;html=1;" parent="1" vertex="1">
          <mxGeometry x="514" y="700" width="210" height="220" as="geometry" />
        </mxCell>
        <mxCell id="YI1TtE5vk-PvlQXo_qgQ-9" value="" style="edgeStyle=orthogonalEdgeStyle;rounded=0;orthogonalLoop=1;jettySize=auto;html=1;" parent="1" source="YI1TtE5vk-PvlQXo_qgQ-5" target="YI1TtE5vk-PvlQXo_qgQ-6" edge="1">
          <mxGeometry relative="1" as="geometry" />
        </mxCell>
        <mxCell id="YI1TtE5vk-PvlQXo_qgQ-5" value="startCoreServices" style="rounded=0;whiteSpace=wrap;html=1;" parent="1" vertex="1">
          <mxGeometry x="200" y="730" width="120" height="30" as="geometry" />
        </mxCell>
        <mxCell id="YI1TtE5vk-PvlQXo_qgQ-11" value="" style="edgeStyle=orthogonalEdgeStyle;rounded=0;orthogonalLoop=1;jettySize=auto;html=1;" parent="1" source="YI1TtE5vk-PvlQXo_qgQ-6" target="YI1TtE5vk-PvlQXo_qgQ-10" edge="1">
          <mxGeometry relative="1" as="geometry" />
        </mxCell>
        <mxCell id="YI1TtE5vk-PvlQXo_qgQ-19" style="edgeStyle=orthogonalEdgeStyle;rounded=0;orthogonalLoop=1;jettySize=auto;html=1;entryX=0;entryY=0.5;entryDx=0;entryDy=0;" parent="1" source="YI1TtE5vk-PvlQXo_qgQ-6" target="YI1TtE5vk-PvlQXo_qgQ-12" edge="1">
          <mxGeometry relative="1" as="geometry" />
        </mxCell>
        <mxCell id="YI1TtE5vk-PvlQXo_qgQ-6" value="WMS.main()" style="rounded=0;whiteSpace=wrap;html=1;" parent="1" vertex="1">
          <mxGeometry x="200" y="805" width="120" height="30" as="geometry" />
        </mxCell>
        <mxCell id="YI1TtE5vk-PvlQXo_qgQ-8" value="system_server" style="text;html=1;align=center;verticalAlign=middle;whiteSpace=wrap;rounded=0;" parent="1" vertex="1">
          <mxGeometry x="180" y="700" width="60" height="30" as="geometry" />
        </mxCell>
        <mxCell id="YI1TtE5vk-PvlQXo_qgQ-10" value="WMS.displayReady()" style="rounded=0;whiteSpace=wrap;html=1;" parent="1" vertex="1">
          <mxGeometry x="200" y="880" width="120" height="30" as="geometry" />
        </mxCell>
        <mxCell id="YI1TtE5vk-PvlQXo_qgQ-20" value="" style="edgeStyle=orthogonalEdgeStyle;rounded=0;orthogonalLoop=1;jettySize=auto;html=1;" parent="1" source="YI1TtE5vk-PvlQXo_qgQ-12" target="YI1TtE5vk-PvlQXo_qgQ-13" edge="1">
          <mxGeometry relative="1" as="geometry" />
        </mxCell>
        <mxCell id="YI1TtE5vk-PvlQXo_qgQ-12" value="new WMS" style="rounded=0;whiteSpace=wrap;html=1;" parent="1" vertex="1">
          <mxGeometry x="559" y="805" width="120" height="30" as="geometry" />
        </mxCell>
        <mxCell id="YI1TtE5vk-PvlQXo_qgQ-13" value="initPolicy" style="rounded=0;whiteSpace=wrap;html=1;" parent="1" vertex="1">
          <mxGeometry x="559" y="880" width="120" height="30" as="geometry" />
        </mxCell>
        <mxCell id="YI1TtE5vk-PvlQXo_qgQ-15" value="WMS.displayReady()" style="rounded=0;whiteSpace=wrap;html=1;" parent="1" vertex="1">
          <mxGeometry x="370" y="1020" width="120" height="30" as="geometry" />
        </mxCell>
        <mxCell id="YI1TtE5vk-PvlQXo_qgQ-18" value="android.display" style="text;html=1;align=center;verticalAlign=middle;whiteSpace=wrap;rounded=0;" parent="1" vertex="1">
          <mxGeometry x="545" y="720" width="60" height="30" as="geometry" />
        </mxCell>
        <mxCell id="YI1TtE5vk-PvlQXo_qgQ-22" value="" style="endArrow=classic;html=1;rounded=0;exitX=0.5;exitY=1;exitDx=0;exitDy=0;entryX=0.64;entryY=-0.013;entryDx=0;entryDy=0;entryPerimeter=0;" parent="1" source="YI1TtE5vk-PvlQXo_qgQ-13" target="YI1TtE5vk-PvlQXo_qgQ-15" edge="1">
          <mxGeometry width="50" height="50" relative="1" as="geometry">
            <mxPoint x="390" y="900" as="sourcePoint" />
            <mxPoint x="440" y="850" as="targetPoint" />
          </mxGeometry>
        </mxCell>
        <mxCell id="YI1TtE5vk-PvlQXo_qgQ-23" value="" style="endArrow=classic;html=1;rounded=0;exitX=0.46;exitY=0.011;exitDx=0;exitDy=0;entryX=0.448;entryY=0.973;entryDx=0;entryDy=0;entryPerimeter=0;exitPerimeter=0;" parent="1" source="YI1TtE5vk-PvlQXo_qgQ-2" target="YI1TtE5vk-PvlQXo_qgQ-1" edge="1">
          <mxGeometry width="50" height="50" relative="1" as="geometry">
            <mxPoint x="629" y="920" as="sourcePoint" />
            <mxPoint x="457" y="1030" as="targetPoint" />
          </mxGeometry>
        </mxCell>
        <mxCell id="YI1TtE5vk-PvlQXo_qgQ-25" value="android.ui" style="text;html=1;align=center;verticalAlign=middle;whiteSpace=wrap;rounded=0;" parent="1" vertex="1">
          <mxGeometry x="400" y="950" width="60" height="30" as="geometry" />
        </mxCell>
      </root>
    </mxGraphModel>
  </diagram>
  <diagram id="idI7CtoIV9Okfj_PH-Aw" name="JNI">
    <mxGraphModel dx="1690" dy="980" grid="0" gridSize="10" guides="1" tooltips="1" connect="1" arrows="1" fold="1" page="0" pageScale="1" pageWidth="827" pageHeight="1169" math="0" shadow="0">
      <root>
        <mxCell id="0" />
        <mxCell id="1" parent="0" />
        <mxCell id="MnDIWU3MNNDpAfSsdhYU-1" value="System" style="shape=umlLifeline;perimeter=lifelinePerimeter;whiteSpace=wrap;html=1;container=1;dropTarget=0;collapsible=0;recursiveResize=0;outlineConnect=0;portConstraint=eastwest;newEdgeStyle={&quot;curved&quot;:0,&quot;rounded&quot;:0};" vertex="1" parent="1">
          <mxGeometry x="-70" y="57" width="100" height="461" as="geometry" />
        </mxCell>
        <mxCell id="MnDIWU3MNNDpAfSsdhYU-2" value="AndroidRuntime" style="shape=umlLifeline;perimeter=lifelinePerimeter;whiteSpace=wrap;html=1;container=1;dropTarget=0;collapsible=0;recursiveResize=0;outlineConnect=0;portConstraint=eastwest;newEdgeStyle={&quot;curved&quot;:0,&quot;rounded&quot;:0};" vertex="1" parent="1">
          <mxGeometry x="80" y="59" width="100" height="461" as="geometry" />
        </mxCell>
        <mxCell id="MnDIWU3MNNDpAfSsdhYU-4" value="" style="endArrow=none;dashed=1;html=1;dashPattern=1 3;strokeWidth=2;rounded=0;fontSize=12;startSize=8;endSize=8;curved=1;" edge="1" parent="1">
          <mxGeometry width="50" height="50" relative="1" as="geometry">
            <mxPoint x="36" y="981.5999755859375" as="sourcePoint" />
            <mxPoint x="40" y="-20" as="targetPoint" />
          </mxGeometry>
        </mxCell>
        <mxCell id="MnDIWU3MNNDpAfSsdhYU-5" value="Java" style="text;html=1;align=center;verticalAlign=middle;whiteSpace=wrap;rounded=0;" vertex="1" parent="1">
          <mxGeometry x="-80" y="-75" width="60" height="30" as="geometry" />
        </mxCell>
        <mxCell id="MnDIWU3MNNDpAfSsdhYU-6" value="C++" style="text;html=1;align=center;verticalAlign=middle;whiteSpace=wrap;rounded=0;" vertex="1" parent="1">
          <mxGeometry x="92" y="-78" width="60" height="30" as="geometry" />
        </mxCell>
        <mxCell id="MnDIWU3MNNDpAfSsdhYU-7" value="loadLibrary" style="html=1;verticalAlign=bottom;endArrow=block;curved=0;rounded=0;fontSize=12;startSize=8;endSize=8;" edge="1" parent="1">
          <mxGeometry y="-7" width="80" relative="1" as="geometry">
            <mxPoint x="-105" y="133" as="sourcePoint" />
            <mxPoint x="-25" y="133" as="targetPoint" />
            <mxPoint as="offset" />
          </mxGeometry>
        </mxCell>
        <mxCell id="MnDIWU3MNNDpAfSsdhYU-9" value="&amp;nbsp; &amp;nbsp; &amp;nbsp; &amp;nbsp; &amp;nbsp; &amp;nbsp; &amp;nbsp;registerNativeMethods" style="html=1;verticalAlign=bottom;endArrow=block;curved=0;rounded=0;fontSize=12;startSize=8;endSize=8;" edge="1" parent="1" target="MnDIWU3MNNDpAfSsdhYU-2">
          <mxGeometry x="-0.0368" width="80" relative="1" as="geometry">
            <mxPoint x="-20" y="153" as="sourcePoint" />
            <mxPoint x="60" y="153" as="targetPoint" />
            <mxPoint as="offset" />
          </mxGeometry>
        </mxCell>
        <mxCell id="MnDIWU3MNNDpAfSsdhYU-12" value="JNIHelp" style="shape=umlLifeline;perimeter=lifelinePerimeter;whiteSpace=wrap;html=1;container=1;dropTarget=0;collapsible=0;recursiveResize=0;outlineConnect=0;portConstraint=eastwest;newEdgeStyle={&quot;curved&quot;:0,&quot;rounded&quot;:0};" vertex="1" parent="1">
          <mxGeometry x="212" y="59" width="100" height="461" as="geometry" />
        </mxCell>
        <mxCell id="MnDIWU3MNNDpAfSsdhYU-13" value="RegisterNatives" style="html=1;verticalAlign=bottom;endArrow=block;curved=0;rounded=0;fontSize=12;startSize=8;endSize=8;" edge="1" parent="1">
          <mxGeometry x="-0.0368" width="80" relative="1" as="geometry">
            <mxPoint x="134" y="185" as="sourcePoint" />
            <mxPoint x="264" y="185" as="targetPoint" />
            <mxPoint as="offset" />
          </mxGeometry>
        </mxCell>
      </root>
    </mxGraphModel>
  </diagram>
  <diagram id="g64fpnFk7Pg3G_KxOb7-" name="jvm">
    <mxGraphModel dx="1290" dy="530" grid="1" gridSize="10" guides="1" tooltips="1" connect="1" arrows="1" fold="1" page="1" pageScale="1" pageWidth="827" pageHeight="1169" math="0" shadow="0">
      <root>
        <mxCell id="0" />
        <mxCell id="1" parent="0" />
        <mxCell id="HKBtPjgAYkLkhG5pTwsY-1" value="" style="rounded=0;whiteSpace=wrap;html=1;" vertex="1" parent="1">
          <mxGeometry x="380" y="370" width="600" height="160" as="geometry" />
        </mxCell>
        <mxCell id="HKBtPjgAYkLkhG5pTwsY-2" value="新生代" style="text;html=1;align=center;verticalAlign=middle;whiteSpace=wrap;rounded=0;" vertex="1" parent="1">
          <mxGeometry x="770" y="370" width="60" height="30" as="geometry" />
        </mxCell>
        <mxCell id="HKBtPjgAYkLkhG5pTwsY-3" value="" style="rounded=0;whiteSpace=wrap;html=1;" vertex="1" parent="1">
          <mxGeometry x="430" y="380" width="270" height="50" as="geometry" />
        </mxCell>
        <mxCell id="HKBtPjgAYkLkhG5pTwsY-4" value="Eden" style="text;html=1;align=center;verticalAlign=middle;whiteSpace=wrap;rounded=0;" vertex="1" parent="1">
          <mxGeometry x="384" y="370" width="60" height="30" as="geometry" />
        </mxCell>
        <mxCell id="HKBtPjgAYkLkhG5pTwsY-5" value="存活" style="rounded=0;whiteSpace=wrap;html=1;" vertex="1" parent="1">
          <mxGeometry x="445" y="395" width="55" height="25" as="geometry" />
        </mxCell>
        <mxCell id="HKBtPjgAYkLkhG5pTwsY-6" value="可回收&lt;span style=&quot;color: rgba(0, 0, 0, 0); font-family: monospace; font-size: 0px; text-align: start; text-wrap-mode: nowrap;&quot;&gt;%3CmxGraphModel%3E%3Croot%3E%3CmxCell%20id%3D%220%22%2F%3E%3CmxCell%20id%3D%221%22%20parent%3D%220%22%2F%3E%3CmxCell%20id%3D%222%22%20value%3D%22%E5%AD%98%E6%B4%BB%22%20style%3D%22rounded%3D0%3BwhiteSpace%3Dwrap%3Bhtml%3D1%3B%22%20vertex%3D%221%22%20parent%3D%221%22%3E%3CmxGeometry%20x%3D%22445%22%20y%3D%22395%22%20width%3D%2255%22%20height%3D%2220%22%20as%3D%22geometry%22%2F%3E%3C%2FmxCell%3E%3C%2Froot%3E%3C%2FmxGraphModel%3E&lt;/span&gt;&lt;span style=&quot;color: rgba(0, 0, 0, 0); font-family: monospace; font-size: 0px; text-align: start; text-wrap-mode: nowrap;&quot;&gt;%3CmxGraphModel%3E%3Croot%3E%3CmxCell%20id%3D%220%22%2F%3E%3CmxCell%20id%3D%221%22%20parent%3D%220%22%2F%3E%3CmxCell%20id%3D%222%22%20value%3D%22%E5%AD%98%E6%B4%BB%22%20style%3D%22rounded%3D0%3BwhiteSpace%3Dwrap%3Bhtml%3D1%3B%22%20vertex%3D%221%22%20parent%3D%221%22%3E%3CmxGeometry%20x%3D%22445%22%20y%3D%22395%22%20width%3D%2255%22%20height%3D%2220%22%20as%3D%22geometry%22%2F%3E%3C%2FmxCell%3E%3C%2Froot%3E%3C%2FmxGraphModel%3E&lt;/span&gt;" style="rounded=0;whiteSpace=wrap;html=1;" vertex="1" parent="1">
          <mxGeometry x="515" y="395" width="55" height="20" as="geometry" />
        </mxCell>
        <mxCell id="HKBtPjgAYkLkhG5pTwsY-7" value="可回收&lt;span style=&quot;color: rgba(0, 0, 0, 0); font-family: monospace; font-size: 0px; text-align: start; text-wrap-mode: nowrap;&quot;&gt;%3CmxGraphModel%3E%3Croot%3E%3CmxCell%20id%3D%220%22%2F%3E%3CmxCell%20id%3D%221%22%20parent%3D%220%22%2F%3E%3CmxCell%20id%3D%222%22%20value%3D%22%E5%AD%98%E6%B4%BB%22%20style%3D%22rounded%3D0%3BwhiteSpace%3Dwrap%3Bhtml%3D1%3B%22%20vertex%3D%221%22%20parent%3D%221%22%3E%3CmxGeometry%20x%3D%22445%22%20y%3D%22395%22%20width%3D%2255%22%20height%3D%2220%22%20as%3D%22geometry%22%2F%3E%3C%2FmxCell%3E%3C%2Froot%3E%3C%2FmxGraphModel%3E&lt;/span&gt;&lt;span style=&quot;color: rgba(0, 0, 0, 0); font-family: monospace; font-size: 0px; text-align: start; text-wrap-mode: nowrap;&quot;&gt;%3CmxGraphModel%3E%3Croot%3E%3CmxCell%20id%3D%220%22%2F%3E%3CmxCell%20id%3D%221%22%20parent%3D%220%22%2F%3E%3CmxCell%20id%3D%222%22%20value%3D%22%E5%AD%98%E6%B4%BB%22%20style%3D%22rounded%3D0%3BwhiteSpace%3Dwrap%3Bhtml%3D1%3B%22%20vertex%3D%221%22%20parent%3D%221%22%3E%3CmxGeometry%20x%3D%22445%22%20y%3D%22395%22%20width%3D%2255%22%20height%3D%2220%22%20as%3D%22geometry%22%2F%3E%3C%2FmxCell%3E%3C%2Froot%3E%3C%2FmxGraphModel%3E&lt;/span&gt;" style="rounded=0;whiteSpace=wrap;html=1;" vertex="1" parent="1">
          <mxGeometry x="590" y="395" width="55" height="20" as="geometry" />
        </mxCell>
        <mxCell id="HKBtPjgAYkLkhG5pTwsY-9" value="。。" style="text;html=1;align=center;verticalAlign=middle;whiteSpace=wrap;rounded=0;" vertex="1" parent="1">
          <mxGeometry x="650" y="390" width="60" height="30" as="geometry" />
        </mxCell>
        <mxCell id="HKBtPjgAYkLkhG5pTwsY-11" value="" style="rounded=0;whiteSpace=wrap;html=1;" vertex="1" parent="1">
          <mxGeometry x="390" y="470" width="270" height="50" as="geometry" />
        </mxCell>
        <mxCell id="HKBtPjgAYkLkhG5pTwsY-12" value="From Survivor" style="text;html=1;align=center;verticalAlign=middle;whiteSpace=wrap;rounded=0;" vertex="1" parent="1">
          <mxGeometry x="390" y="440" width="100" height="30" as="geometry" />
        </mxCell>
        <mxCell id="HKBtPjgAYkLkhG5pTwsY-14" value="每次复制后保持empty" style="rounded=0;whiteSpace=wrap;html=1;" vertex="1" parent="1">
          <mxGeometry x="690" y="470" width="270" height="50" as="geometry" />
        </mxCell>
        <mxCell id="HKBtPjgAYkLkhG5pTwsY-15" value="可回收" style="rounded=0;whiteSpace=wrap;html=1;" vertex="1" parent="1">
          <mxGeometry x="420" y="485" width="55" height="20" as="geometry" />
        </mxCell>
        <mxCell id="HKBtPjgAYkLkhG5pTwsY-17" value="存活" style="rounded=0;whiteSpace=wrap;html=1;" vertex="1" parent="1">
          <mxGeometry x="565" y="485" width="55" height="20" as="geometry" />
        </mxCell>
        <mxCell id="HKBtPjgAYkLkhG5pTwsY-18" value="存活" style="rounded=0;whiteSpace=wrap;html=1;" vertex="1" parent="1">
          <mxGeometry x="490" y="485" width="55" height="20" as="geometry" />
        </mxCell>
        <mxCell id="HKBtPjgAYkLkhG5pTwsY-19" value="To Survivor" style="text;html=1;align=center;verticalAlign=middle;whiteSpace=wrap;rounded=0;" vertex="1" parent="1">
          <mxGeometry x="690" y="440" width="100" height="30" as="geometry" />
        </mxCell>
        <mxCell id="HKBtPjgAYkLkhG5pTwsY-21" value="" style="rounded=0;whiteSpace=wrap;html=1;" vertex="1" parent="1">
          <mxGeometry x="384" y="570" width="386" height="70" as="geometry" />
        </mxCell>
        <mxCell id="HKBtPjgAYkLkhG5pTwsY-22" value="老年代" style="text;html=1;align=center;verticalAlign=middle;whiteSpace=wrap;rounded=0;" vertex="1" parent="1">
          <mxGeometry x="590" y="570" width="60" height="30" as="geometry" />
        </mxCell>
        <mxCell id="HKBtPjgAYkLkhG5pTwsY-23" style="edgeStyle=orthogonalEdgeStyle;rounded=0;orthogonalLoop=1;jettySize=auto;html=1;entryX=0.222;entryY=0.5;entryDx=0;entryDy=0;entryPerimeter=0;" edge="1" parent="1" source="HKBtPjgAYkLkhG5pTwsY-17" target="HKBtPjgAYkLkhG5pTwsY-14">
          <mxGeometry relative="1" as="geometry" />
        </mxCell>
        <mxCell id="HKBtPjgAYkLkhG5pTwsY-24" style="edgeStyle=orthogonalEdgeStyle;rounded=0;orthogonalLoop=1;jettySize=auto;html=1;entryX=0.346;entryY=0.429;entryDx=0;entryDy=0;entryPerimeter=0;" edge="1" parent="1" source="HKBtPjgAYkLkhG5pTwsY-18" target="HKBtPjgAYkLkhG5pTwsY-21">
          <mxGeometry relative="1" as="geometry" />
        </mxCell>
        <mxCell id="HKBtPjgAYkLkhG5pTwsY-25" value="存活" style="rounded=0;whiteSpace=wrap;html=1;" vertex="1" parent="1">
          <mxGeometry x="420" y="600" width="55" height="20" as="geometry" />
        </mxCell>
        <mxCell id="HKBtPjgAYkLkhG5pTwsY-26" value="存活" style="rounded=0;whiteSpace=wrap;html=1;" vertex="1" parent="1">
          <mxGeometry x="490" y="600" width="55" height="20" as="geometry" />
        </mxCell>
        <mxCell id="HKBtPjgAYkLkhG5pTwsY-27" value="" style="endArrow=classic;html=1;rounded=0;exitX=1;exitY=1;exitDx=0;exitDy=0;entryX=0;entryY=1;entryDx=0;entryDy=0;" edge="1" parent="1" source="HKBtPjgAYkLkhG5pTwsY-5" target="HKBtPjgAYkLkhG5pTwsY-19">
          <mxGeometry width="50" height="50" relative="1" as="geometry">
            <mxPoint x="680" y="590" as="sourcePoint" />
            <mxPoint x="730" y="540" as="targetPoint" />
          </mxGeometry>
        </mxCell>
        <mxCell id="HKBtPjgAYkLkhG5pTwsY-31" value="" style="shape=image;verticalLabelPosition=bottom;labelBackgroundColor=default;verticalAlign=top;aspect=fixed;imageAspect=0;image=data:image/png,iVBORw0KGgoAAAANSUhEUgAAA6EAAAHuCAYAAABuygq6AAAAAXNSR0IArs4c6QAAAARnQU1BAACxjwv8YQUAAAAJcEhZcwAAEnQAABJ0Ad5mH3gAAP+lSURBVHhe7P0NfJXlneePfyw7p3WJnSGsD1kpZ0OJWClskfYVoJsoE4TxKAVlSRGiErHQaBxtLCWsECvESZCaQk3NQg1QBdQw1DC1pwMmC5IRyK9iulDcQliYQ3Hiw8tkHMMfezos/+vpfn449zk5OST0+/Z1ycl97nM/XPf18P1c3+913VdcZIAgCIIgCIIgCIIgMsDn1L8EQRAEQRAEQRAE0e+QCCUIgiAIgiAIgiAyBolQgiAIgiAIgiAIImOQCCUIgiAIgiAIgiAyBolQgiAIgiAIgiAIImOQCCUIgiAIgiAIgiAyBolQgiAIgiAIgiAIImOQCCUIgiAIgiAIgiAyBolQgiAIgiAIgiAIImNccZGhPg8MenrQ88VhGDZE/Z0uTkdR//opYNhkLCiZiGFqs8bZfRvRfPZajJ84CYVfuVZt9eHj/di46QgQvhE35o7CxG+MwlD1VTL0/GYbth3qwbDwbYh8a4zjulKl59AOtPxpPAq/MQbXfkHbeBjbth5ED/s4bNICLPgGO1v8FA7+bigm3xzgnk1o183Rj9UXPj6O/e9+ID8PHYVJN49ASP5FEARBEARBEMRlxBV/7O2+eC6u/nIhNHQYhiarBi704NQ7R3H2M+DamwoxZrja7seFD3Dw+dX48b6z+IuCldj82ESEuqKoWrEDf1C7BOJLc1H7wwiu1USnxodH0XKUiRwmcCZPMgnGvAjK/wbYtrgCOz5k1/vf67ChZJT60ptTW5eg4u+VaPpGBZqeKExJNB1eNxur97EPI+aivn4BRsjNwDsbUfrTg+oPL76EudWrEMlRf+qcxY6/Lce2M/zzGCzevAYRrhHP7kB5+Tb2LTvd/HrUzwF2fJ/td5rd99+sRO13mDgPKP7PNpWjfDs/kjpWsX7lqXGoDrNr98vPIxeg/idzjbwgCIIgCIIgCOKy4YoDz8y6uOYt9ZcLhZXNqJik/khIHD2/3YUfr9+GI9JJlsTvz+Hg2sVY89Y59nko+91GVIyI6qIpMJqAMYsaPwqWofnuU1jyvR3gkjL0RSa6/0J+pfGlu2ux6g6Tp/BcC1bfV4/DF+Sfw75SiIn/OagEHYXIIxGMONeDc/EP0bxyGXaxGwwVVGDDA+PUPiEMfXcDitcmuv4RWFBfj7l2tXZ6m34/+MpibK6JSA+rWYQWM+E46xy2PbkSO07KUYjQ6LlY/dQCjAng0jWL0DHf2Yw1d/TRE0oilCAIgiAIgiD+LLii6ZFZF6XHzJ1AIjL+AY784y5se70Fxz+0ulWTErFmcffFQixb/iVsWy5F05hvVeCOPLEX4j1MwPF9hg7DsCvltv/7eh12HWcfNAETP4ces4v3N/Uoff4wU1+zsGb1bFyjNnP35dF1paj7jfrbBaunL47DbP/V+7hYTgV2X80VwLOzsaZNbXLAxOVjEXxw1OTJ1ej5Pfa/c5ZdBWPIeJS/sArTbPrvyPMLULVHXt/Ex5qw8lZNIB9E3ew1EFKPi+/HJwsPdEttBep/w/YfMgpz19RiwejEgtosQpMbqPCARChBEARBEARB/FlgLEw0fDJKH69AhS1pws+Xd7ahalPUIUCTZug0lD8whgnDEZj2nQWYeJXazuBhvYUFPI1CT8tmbP75Zrzxr6PUtkLcqKtKRagHLU+WorRUJS5AOWd3YZm2jaWNf9+MbUqAhr5Zgc2b2bE312FBrtw24r+vwZpvGXLo3KF61GkCdEgIw4YzIaylYSbxFhpq/U5PWcHCdkdHUP4IE3rmVDIR8dNKgHJv8dJlDgGKj3dhmxKg+GIEswoSnG3ItZj2xEYsu3U85v4omADlxM+nKsLZbz9LspxciCPex6JFEARBEARBEMTA4IoN82ddjHI90Rfvk+bFGjIMY+6ajS8f2oyodJIl7yXjguNCCCGuhUzho4WVy4Ba5cWzU7AMy8DEIvcs6vehzYscilGTJmPUOeuc0HNHW3DkQ/lznSFjsHjjGkTAhOqizTiOazH3xxt0QYozO1DxvW04pcJwR93PBOldphwzXa/uafRB9yYOn4W6xlL4zUTtOboNq1fvwCklxkbNZ+d2zMOM4+CzpSwfpEAUIbfzzfscwcYFVRDP++ZyMe8WH/8BR8/+K3piR/CHnh6c+u2fMI3PM/3MNqfWxoem/Lt23DSMsw8CmBh1ZzkiWh5qz+X9oRjx5ckoZp8L+ZxWF0/oNV37seNnTdj1v8/iL4pWYdtD4+X3BEEQBEEQBEEMWj7Xqzm0/tMwI0Q1WUZMQ/kP67Dt5c1Yw1eeTeHFL4d/VorSRSwtXoIlZRuh/JYmQshS3sSQtnjOF5R38Yt+3rthGDdrARYUKDE2bBxmlyxAYVj+Of6OuRj1hWsxgguhC8ex8ae7EN3UxAQoY0xEF0/xk9ssAnToN5dhtVmAJk0cv/+9UurjzqGF3ztLG9+Rm3R6jmDHD9l3Kw0Byr2gWehGj907yK5xixKggv8AfPB/9mN/2y5se44J0lUb0fKZ+u6depTex477vSrUPVuHzX/fgpbWwzjFROkH/BAf/J79zbe5J7OA/4AJUrd9tPR7tX6T4OPDeJuHf8fP4eyJOP7Cp9CFQj04wkOPWZ6fa92F/dq1EwRBEARBEAQxaPncn9QHnPsDDrVxwbIfh49/IAz/wIwYj2lfG5X8Krom4v/Wg56PtdSrQk7NTMTixs3Y3Lgac6+XW0bcvZr9zbZ9Z6Lc4MpZ7FrOxJYtHLdeheD+1bgFqHtlA+ofnwWx9NA7m7FRLY4UKZmlvzIllDPKeNUJE8TDzh/GZi7szEm9/kRw/NfW70TahsPaDhcO48j/lh8njrsRveree9WNx88exI615SgurcK236of6SvXnsOR7VUoLSlHfZsUabhwFtt+sksuRqQTx9EddUxkbsYOLgiVoHMnhKFc0I9m95nu1+OY6Dl0QAp8zs1fx0S/cw0vxJQx6jPLr1/t0XOXIAiCIAiCIIhByhUPz5p1UfnjrIRGILJ0NRYn/f5H8+tBgofjck9ofSsTYsLbJRfvmWwOxy0oFALZHT4vlAto9tEUVsyF7bk/9bBjr0T9IeUhHDELi6eHELppGiYOZ/9qr6CJs+v+H+y6T8rdMHw8Sh/5Hm7/2jB9Due5Q3VY/DwTjaPYuX6rNiaFaTXboxuxYGWUyUn+CpXZ+H2pDDXm+VUeqkfpqhb2ncGwry3A9x6di/E4gh3rf2wIU8bQopWovnYzvqcWCtLgCyot7l6Gqn/kR+IicyhC57Q8HoFpjz2Cuf/1GmRdyfJAF9hBOIy6OauxXxO0AUKPJXG0rCpGvfL2TnykCSuLVO56LEwUb12N4ufUAMI1c1G3cYFv2DJBEARBEARBEAMb78BZJsqiT5dj41H1dz8z8Tubsfpun/DWUJZpcR97cl/s51ysBT/+foUQoEO/qN470tOCbT/fgfrvL0HF+iiOvHsEu362DKX3mAQo5+Mj2PzDUhTPW4JlTceFZ3bopHJsfoGJY9OCSaly9v8ckSLzi1/CteyTJjjPceGcOxdLvimvN3TNRCxYvZldCxOgfDxg2HjM/eEGbHh8Gkbwm/5iIcofmIiLHgsFjV+4EdteaUZzcxO2NZrzmOXJiDG4dliyApRx9pQelix45zCOBPGcf7YfB/Vw4zGYeLPbU7MS+uYthrf0Q/b70+ozQRAEQRAEQRCDks+t2bwNTc1cpLD0yjbUPV5oCsc8h+g/7HcJjb0EfGMh6n9UhzqXVN+wGPaA3CPPF6N0pXxf6dBvlKNuidpj2C1YcP9kIeB6fnsQp87sR9OvjqOHiyju/X1iM5oaKjBNKDzGZ7348lfGKJGrFkzS4R5blXc81S8Q3jsB9w6avxPJ5Z2e/9aC1aX1+hzYw8+XorR0G/7igWWoWFqH59aUs2th19rTY0rnEPrqAqxevxLlDy3AZKZXR42+Ufx+4l0R4xo4XxhqEZkjRmp+xB6cjaX2ZE/ta5GLL2mca8GuAK+sib910JjrO2YKJgdxsn9hEm65WX3GB4j++oj6TBAEQRAEQRDEYORzQ4cNNbyITLCMKqhA7f3aRDzGqf9rFRyZ4sPjOGWeAjjkMDaYXq1iThvsi/kwxt/PhOmQEEZMX4Y1D01E6D9NRun9bP9vTcL4gsVMwK1C6QMLEClYgIo7xmB88TLUNazG3NFMU31hHBas3oD6Hy5GZH4FFoxTB80knS2oW1uBJS73q6ey1ajfvl8+n/Aodl9MuBYlUHbhL+vhrL/v/L36lAQXjjAhqGaeDmECVzmYD7/aZPWOOohj/1vGclNjvlmoz7f1J4RJ3zSGGGiBIoIgCIIgCIIY3LiG4w67RizRI/nsT+hVHzPHYdR//zkcPPoHJYBH4Et89VoBf+XKNEwrmobxfsv5Dp2GZY+Nw9k9a1DOBduyNeLdopufr5J/l1Vh86Y1Qsyt/tVxHGlagwq+Qq0m8Fgq/+FGHMG17Izph78+xfCQLkOh2s7nhDbz+bDq78CMmItVj01OfK05ubhR7XTu3eNJDzAc+dkatCin59CiZVh9uyorH+7Cmq3er3ThYdBvmEJxp3wz+FzjUME0FGre+QuH8eahAeGbJwiCIAiCIAgiBVxF6Knj+vqlwEgmANXHzHEO5/7tLE6ddAvxHIbJJeUof6Qct5sctm6ERkwUYtU1TRqlC7ahuZPd92Fpcq7ci7/Tc/bs2SKJ95EK9mON2iaS9o5QTtsaY7stlTeZpF/8nAivNc8J/YDl/9kxS7B5MxPNKpV/Q+2AiSg3bd9cPcsIvw20qu2NGKXl25m3RbiyxvE9Oyx/2+l5qw5rxCJHnBGY/a3xGHXXXH3O5gevrUTdW+4H6Gl701gVd8wUFA5Xn4MwZDImT1GfGYf37dfziyAIgiAIgiCIwcXnytfuwP7jH6i5hqdwcGsVVr5mvOhj4oxpKmwyjiObylHMhdScJdh4tB+8Uf+u/uWERuFP57RVkb4k3+Mp6GHXKF958muTVnYlNyLE6txRH+Lwbw+zFMJk9jffVl4y2Xj9yn++EeO/Nt6RbptfjgVJrw4cjIPPKlFavACltjmhS5Y9h4PnhmLYsGF6MuZ1DsVQ03b/d6S6EUKhHt56HG+2aaLxLN7+h22oerCYiWSnR/Psr6pQvtYQfyOKK+X81qHTUP6ApmrPYf/aclT9wynHPOJhf1OJNY8vwOSRoSRCcQ0mTirEqG8uQMWazWj64bR+8U4TBEEQBEEQBNH/fO7sW9tQt2yJCkGtwJq/V6u2MobyOYa3aiLnMFr+4awUFxc+QHSPMb8vPZzFwQPKQzhkFBb8qBxjepSUGX6NZbGkU4da0NLagiMfqk0J+NO5bp/3j3IP32bUPVvnSL/qVDswrplUiorHK/zTA4awxZhZ7vuwVDrJL464/zGvOHv81Y1M8LIPn/0ep3j2X4jj3HnxlST+AVpqS1H+M6NcIHcBKr9tLH807I4qLCvQZOE5HNlUgSU/tHlVQ8MwpmAulv2kCWu+5SJBL+hvrHUl9M0K1C2di8Ixw4w5zARBEARBEARBDDqumD931sVzdmX2hRGYPP8RlH9rjMnjdA4Hn12MNW1cioQw/qENWDXdzZ+V2ntCOeI9nGvPIvKjWiy4sA1Lvr8Lwif7zWVoXgrUzebv0hyBWTWrMfs68RNBaGgIB/9uAer5uztN75jU4KG05eIdmur9o2Kj8Q7SEXetwepvOYWh/g7RoJiOmejdmT3H9+MoF9FfuBZjRv8BG5U3VORX3nHsf9fwRnP+7+t12CU8v2Mw6/E78GWxVXHNOCHOBOb7ml+P+mLLWrk6R/7nAvX+UGDouFIs++YRVP1PObAgruEbPTjVug11L7TgrLl85M7CmupSjLG7Ii+w5/599tzNr1DhC0NNmovS++dioj17T7eg/nVtYaRzOPWbgzj1b+rPwO8dJQiCIAiCIAhisHHFRUacv5tSW9l0yFCfEM84zvWcQzzE9klKnQWHz48cNiyO6PJSbPw/ctuY72zGmjuGynMzAczf+RkaAhxcOxtr3pL76Nxcjqaqaej5VRUqf/EHue1cD3rEiqrst8PVasD/j8/FVOrqC8PY/ciPbnzp7lqsusO0WJMXSYhQKweVwFYCEHWYXcv/Coj5XAFFKM6xc5axc2rCT2MIE+pNFZj4Th1Kn7bOveRidfXKWRjl9eiZEI3+cBk2HjX96ovseA1M+NvztyeKZaUbjXmiJsY8wJ63m7eUIAiCIAiCIIhBj1iYKPTFoHMMmYjj+/STAOUM42qQCeIRE8ZjmAgZHYNbpnBBos7NXymjQklHjdZeNqIxFIW3FwqRaYTgagKUw0S0tk0ToJzP1DaP1H3OP1R0UDJ0MiqqSx2CclRJMSaz/A19owJr5qv8HTIM4x+ow+bVPgKUM2QEIqs3Y8NDk+Wz42HV1S4ClDNsPMa76ePcBXjkDhKgBEEQBEEQBHG5Ijyh6vPAo+cIdh0Abr9jvPRe2jkdRf3rfBGdYfjS176E3NxJTNioPT87h57zbjNAkyd0pXlhIB96DmPb1oMQUyHzIij/G7tI9uIUos9F2f+ZCLyzHJFcuTUlPjuLw785JTyYQ8OTMHGkn2pkxD/AweZdOPxBHMO+NhdzC6415fU5HPmHFqBgFsYnqwv5cd/9EyZ/zcMTy9BDkgV/hRFf/TJGmN9bSxAEQRAEQRDEZcfAFqEEQRAEQRAEQRDEZYXre0IJgiAIgiAIgiAIoj8gEUoQBEEQBEEQBEFkDBKhBEEQBEEQBEEQRMYgEUoQBEEQBEEQBEFkDBKhBEEQBEEQBEEQRMYgEUoQBEEQBEEQBEFkDBKhBEEQBEEQBEEQRMYgEUoQBEEQBEEQBEFkDBKhBEEQBEEQBEEQRMYgEUoQBEEQBEEQBEFkDBKhBEEQBEEQBEEQRMYgEUoQBEEQBEEQBEFkDBKhBEEQBEEQBEEQRMYgEUoQBEEQBEEQBEFkDBKhBEEQBEEQBEEQRMYgEUoQBEEQBEEQBEFkDBKhBEEQBEEQBEEQRMYgEUoQBEEQBEEQBEFkDBKhBEEQBEEQBEEQRMYgEUoQBEEQBEEQBEFkDBKhBEEQBEEQBEEQRMYgEUoQBEEQBEEQBEFkDBKhBEEQBEEQBEEQRMYgEUoQBEEQBEEQBEFkDBKhBEEQBEEQBEEQRMYgEUoQBEEQBEEQBEFkDBKhBEEQBEEQBEEQRMYgEUoQBEEQBEEQBEFkDBKhBEEQBEEQBEEQRMYgEUoQBEEQBEEQBEFkDBKhBEEQBEEQBEEQRMYY2CL0fAwd+9rQxlLnR2qbRrwbnb9uxNaOXrVBcbwZDa+0I9YbVxuC0fn6Wqx9VqboSbUxGY42oZr9tnEXu953u9XG5JHX0YCmthiSuwN/Onc1orkjBku2nIw67/mTY2h/15anxJ8t7TVTMXXqVFQfUBuIpOl6ZSHLw4Voek9tIC497zVhISvXC1/pUhsud9pRze6X1+WBdM/pbF9kPQt4f+r5U7tGDGT6s/+Vx05Xv9SFpgcGXvvy54xoDx9oYk9mYDOwRWh3O9Y/VYUqll7tVNsEvWh9ag4WP7MVjVXr0K5ppgudaPzhejRtqMTCe54xtgeg+2gU0ddleudDtTEwcbTuaEAr++3WdVVoaP9UbU+WLnSIa2hCw5tnEFJbOV27KjGneE6C1IAOtb+FC+14dd1WrK9YiJkz1+OY2owP37Hecy8zVErKUfnwPaj4RXpF8KVDNo7ejbg0ztLRcIpGnVd6buAkXfmVkZiJRuNAdbDOh+1XuYf9O70WK6bITYMH1SnWtKu/0406foYa+bQLWdcyoMpgsnkmjuVThxJ970a/i4QCRKYDsQ3LL93gAM+XZMqPykdzCpo/7TWVaFWfY6fPqE/9hGvZcoHtl7b2hZWX5Rti4mNsw/x+NYT1dl79HYg0leeghqVsL6pZjR4opNi2aKiyn/b2gB/Xck3yOvuv3WFcgvohBWf/lYf2mvloOB1GOJfXv8ZLVO7cy1jqfac8XtrbElWW09pfunDmNGsPTzdgeT+2hengP6h/Bw3cU9h8nH0YEmb/Y5nc24rqZUDhqM8DH3Ug+r7YDdm5n8f+DWux/+pCLLovH9lycwBCuOoq9TEox19CY5v6zAidbsLaZ9UfiVDXl/VJN3ovvIvf8Xtj5OVeh+5uzaMaQvz8++j+KJGH9WNX4Rjf9yvdAAndOQ1j1WcLF1g634u4UL696HhuIe45ugI/W1GE7CF8WzrhBjxvtNSffSS8ZDu2zMuRlfeJkyjbugXF16sv32tDlJ0n9kITFk0pBtsrILwBasAN5mMFJozRqMT8B4Dtm5I55wBC5KUqNXsqMZV3hq4UoXbvCuSrv3S40VXSwGto38gtS5CH/DkZBjZHlgf1hxfJXF/Ca0gD/HpeDGPLckdOMtrRyAxsfl/Jl0U3WP17geUYu68Cv+OpPBr99F4fI4jlPy8nzFASddCF9jfluWo8vg+G8zl7wq5le24D5itR4k8MDSVT0aD+chK2tidphJsGYWYkzK8JY6967txg8rxudl97WV1LFn5MbsyKejGykdXrSizMVW3mpaKv7YsFVp5X8ros9x0p8pAJUZju0a1vuKQkV55F+WD1UQptVmZY3+SK2Hck2vaw/aaXJcg3RqrtdCbaRBNd4UWond6KyieqcZujPPjlpV/9VW0X/8TyVxyTCxUmpFqTthfSTFrrRzveEGL2tsTlIQW4wOXtS9HTW1g/IW27ygduCFA+kqgDHui2XzKY89aOVtc4B94Q11Y00np83zbagb38qTLHztO//SWQv3w7yjqZnb2nDV3zgpXl5O7NSZGvreDOoBOhwmNpq5C977Yi+q76QyH2O8o+5IZRwkRecHKQE1yxMlil+/FWYVBoxNqiwRt1cX0j0fI9qyjrfGEx5ryg/mANzdLaaYjc6TKiETvE7lOJ06zhyJKfTHQj+gtNIeeg+E6TBA3fwKpIq7jWk++xYxcUYdXPr0Pj98uxlYnh7rffREd3EYqulrunD3Ydm/aiWP2VFKoBCVzYry/Glq0QHe3yVwqCN1iiM+IG6kIgWcPl+nys2LQdN7DGuPFAccqjmLxxf+MWj/v0a0j7ajirY/s18FpjFV6yyL1j4/m+t5jdw0LE7jNdi4uwkccabe1M2TUsPLPIOL+nscTvlR3Lca8JRv/U9Um0QRG/Dl12mCcTdXo+z8UpdtT59HsrMowhE12vNMiOmhnWUzeITcExd6oaamCm6OlEHVMBap4+gflPTEWrw+i0GRA2Q8mon8oA8jKcTcd1LQc6rE7tZcdUf+nnd7s/QT72+g1EBCjj/U3OlBXY8jTYdbC8g7yPnHlbnNet1Zlb3EumH7pRoRs9K7B9yUm2bT6qR3q0LZyB3r6YkF4YXuZUuWF5uJ1JUIcQ9UEzpK3I+wy/6Padszzb+6T0lmf2PSsDYHm2N8H98PMKW+K0u3hx6zuTMR5FXlki0/oBz/LHhOhU83b+jMrkR1veyWc6GmGPciqjA2xtPu+7HyxC6xMJ7IVBVD9k/8GuKSk7OAhav2m+X27bbQfY9qCD8Km1wao/Vn8lj/0Z2fozhhCDrHzcZqsXrm10QmzHT0N/yXFvt+z4DFq5llV3O8i3PVN9VCoM2oWJsosexarlK7DiyVV4tEipxnHFWPXkCiz9wQqsmufq7/Mgjt4Up0HGXnkSDcp7iSFZyL4620hmRRgybTena8xBt94Mzy/B0seXWtKjd4cR0+ef5qHsp2VOL2fHS2jQBPqEEtyVqz57kTUWi366BWX5EazauqofBOglgAmOMhF6l0SYiBCStaw6ciEqw1h4JdTC4NySaAy4Z0P8LQ2jVmbAu4ZV8I7GN0SkHbHOsPfvmQG7lxkxjvR0kdohRVQHyBtFvw5YdoCJOo8udg8s/1YmG7LKOrcXWq3PS4hG673WsmeK3Ii/Ny8IBxrFszI6dN5hpBK+w3B5LtuX8KgN3thbt3Ovli5AeefiaqxyLyhcfiuTzAP+W/fv3Qza9hfl+RY5jM6RuMHcPlyfI4TS3r3bUcY7MpcwQF4GLOdjBiG/Ww1hAHHj0LyPSLxuMfLCvkYKL/+yftlCyd6LCQOkyEeY8QEQ12fI85wbkCwPygrUNgfcwMpAOCPLX14+wqyepPtcmqFqN865EcXLTesTPmV8ULQv8h55u8v3NYsoYSiyaw0ampu/3HyfqmyqtsX6nUuds5V5P1Irz7wsygGwstPz1e9dEg9DZGVbC0u21E3x3LhxGVxsXlK0doe1R7ys6PehEn8G8v48xB7LhwZRLjxEGitjvNzoAxdm2Ln58X1D9QdJ/ZD9By8PMuLDXF6keHFuNyfvusP7SG3g1v4MpJOhNo/bQqm3odLeCvZ7ua8SeVzgme5BtIHafQYOB9fEIB/0MI7FU19CtS11kqd09Jd+/X/C5FF/MsiA9YR2t29F4z/u142ed19bi7Xds1Go/v78h/uxrqYDeSt+iUdHX8XKChNjOTcjP/QGZj7VgeJ5E9he+uxHebx/8qpQn6LzbfWRnbHlhbWIOV2KihwUlpYgn+neXtYYlG/QhgSzEHl6J5bmm0SlalA44dJ63waDV9qwNqrBGrjdrDHzlqdxdP2anfuZNkgJmsUarToUjxR/mGCd13PNeohu0V0Ra1jylUw0s394Ff20txu93Z/Hpx914mQXU+TsWIeeq0DjkTw82lQGnpuDmfz7WGXf04CGV1inlLDh1mBClDUSJ1dGEWMNj8xet5EjiRwhto5UuSNFFjcKvEZp+bmLN+XLMuE6os8Nk+XAauu1dJ3hpgwf/eXfSyHsheaZ0zoz86gaN5b0UTsPuIFn9czZ84Z3RrU4wTqHZLzQXa8sV52bmyhLN+pZsIZcD38RBmEMrUw8FwQYyU0ZvX1g9+pxHjFazzolp6c3RXTjrMD7vpgg6mI5b3yfYuSCMIi5gE79KRojxFa6RLRJGBFP618NgDgiGZjxpIl+Lc/Fc4CpvBl1J5xUe5EaXDDx8HFhSCkB4UbMo066GaNaXfYyVLmwqgXbh7UBJ1zzeOC3L2aR7dq2cKEgPM2NaGf/BkN5LFT5OMOueb66ZitO74L2fLzynJNaedbqH89zeYxFZ9S9C2G5AmDX2ZA7kh2HlW1uxN7yBqa+oIXhyTaOX1f/t6ceKJGdHDkomB5Ggz0EV7VhWCL/dEMMtPG8cXsO7PdiEIq3qx6CPH85M/qZmOED0GHXfmjg1w+O6D/MbZ0JeT5ve8YLrd7x6/bzyvM2Znsu25cJN69yny6kd1LVXV7+TYNu8np5P6Tu88Ab8gsftOgjft23vcnyKZBd10fS0F9aEP2a2xQEaxvXr/cUgAErQv94ugXRfUaH3PV2FF3ZhboIDU25A0UfdWDrukZ0aK7xC4fQUNOK+HUlKLypC1vVZo443uveHbxBHJ37ovCONgkjPK8Eea1VuL+6DZoDNfxgvVWAJk0nfqeEcF72CVQVP8+25OHen9Ri9nVyOyf+XhvW/48qRC1rS1yFz8c/RvxCFkKm+Zu9reutjeCQXsTaO3Dmky787mgMH793SF/IqHtbOWZuU39YCKH7PPvnSvmXwGw891EomBted9IkRoQ3lIlQ9WdguAeOVVROV7rW81DhkEFCaXRjkXU4zvA5bmRbO0kxGV3MBcpBvpdwcGmc+HNoyK1FWS7rePOsjbiOeu6uHYo6ppN8LFoSZp0AMwTnBXiOoiFm5sPTWxLvmw6EF5R3xKbGmD3zmiVRds0NfQqn9kM3oH3KN9+ncg//Pn05IY0z3oq5kYNwHvtnT7LhO+5oHteCJAwcX7jxyAWk+pOjGXI6ugEiDXcxiKMLUZfOVzdIyzCSez20fdjH/jac7HiGean79p+bqzDlUaLr141EbvDaDDfJQG1fTAa+63WbEB4r9i/7fWL4cfmzZ3VOlY8clkd7mdYwI/oss1GazPMxE7g8Qy+TAotAMYenzmf/8X5lJLvvRSh7gf1dE2b9B8tzPqjnIxgGKjnzylC0gV2/PhjEnhGf/8vrsNf9sHzlItXVy2kehPIrN+yXK/bWAizfvec3DvD+l23jtlXiaRcBUeeXnjc5QMP0pT+8/LL6JxYMSmDLuduCMZfw62D9T+oo7zG7Tx4tdOZNtdmE+7XaSe5a+9RfqraEh+vrA2Bqul20rQvF5rqi5rqGp/sMRGeQQTcn1OAm3PtQMbovRJD3nialvorZj4cw/Mp7kXfhGbWtf8jOuwHDoYnQbGSxQuBYjOh9Y6JqV2sD1r5nX/FoLLtedv38I7uHNuHWzEb+19iRX+9GN95nwpJvi6P7eAte/WkjmrT5nxa6EH1qIaLZ+Shb8QPMnpCNUG8b1j1jDz3oQsszVdjqdggHIWRfnYWrRoSRZReh6YY3ai6NvDaClS640eVoANUI7Wjb5HNfYk7jgTe223OZaW8avZANlb3hVZ0ob5ADGgX6BHNmfEDvgAwvo9FJyhASYYQkicwbdm2eDSvrvFUH5Azj9EcYEnveYHmtNvgROyFG8rckeY6UUJ0qH9G1dxSa8dPquhCGE0NUeuMwMAX2OU5KPIT7QYwro0RHMyrcSGTcJ0SWxaKnw2h8oAmLXI241HAXV0qYqL80tEGcBtYRF7Bvxd2KkHljT8uI/gHWHrB6XGbzcKQbqxGTHsNKO2bR07UY/QQvu4m9KRx+/zVYzgzKBtN1DOT2hV3b6jJEVwIRJrD8DGHNy5QYVX4yFoFhkLg8q/mjvL6+IJ8FeHuzJ6L3m+LZq3nFGiKPStjzE+XL/56ClhUd27SeIO2fwHeRHYk1P9Qgpra4itugoQWWb0qk1jjy1GUQyhdDiM6fesJWLgZ4/8tFierbnGUreQxbxrCh3AZovBDll18Tq6wNHnWS54H5eLJMec2p9sG1jNmHXWV4rrM/5qj6pv7y9D34lSPRt7oNynvRx/7y+gJEchusixBdzxfIZHVbrIZuHE1668OIFHidwWmTGNgHBazw8yVL2kXounXrsGePLAHTp0/HY489Jj4nixgVLjCMfa1haq+R3/NQhBniUxOi4l9GazUWivxpQqPYYOA5ysx5vwmL72nQ9UOwjqsETy3Zj4X7RqLofCtafx01Bf86iZ9sc3n/6B9RyEQop7vjkBQ1oUJMuhFM3hp0/aIC85+zHj185yrUPFKA4R+ZPKPd7WiomIP9j7yMe49Xo9WxVO5w5PC6KESoFJnxbr4qL/tzCGvs15YhEr4KoSwmqv2cumJ02VhSYfATxg32NsqPsHlRGwMewoHTJ0SjpXVIjhXpHPMPg8A7PDnZ3ypEVbgwqyNihc1b+AgX66C1xoU3+sxQq0m2QfMzFGwGvBUjE92MktYSo/FyhhaaG7dWj0n76YR1+CIkWrYl3gv+tKpRePWnB77ti0AzcvnnxKKj68AJIQRlm2cWLG54PxMj79T9Ti9C0Z5WGRrnUo+1gZ++L2IhO3LRGZ9m5/MNxzbnjbWTM8oJy7OnZVupEdRIkQYex/SMTCPHfJ5d9QGVT6IIp2GecQI0g0vL776h8g/SQyFy2WREBUPrb6ciqvd/A7d9kREqvG6wfV2NQSk4ApuBKjrFaoDJehp0YSLDAOuf8iyMx7zbxH12FZShjOWjeWXlcK4hfvQ2Yzrbr5MZp+y5uoddS5JpY8WxbaFiCds/Vd9EqHCAwS1nm2fNb7OACC8pM+X9GZwQ+R5F23vFRhurnT+wANXg7ZhcZJA/R6ttOHDrh/Cq8bxOaMcGwy4QU0Ks6+DqG04vtjLm3sbKum30wWqAQv2VeZLpL93QopjM5V6u8dC65w3TgoddcuVs+E0Fcx+I822ftP40BdIqQrkA3bVrl/oL+udUhWjGOHXCEn4ba2tH97zZCV/rEp5bj91zP0bzd5gIVdtSpfOo8uaODSP7k4/lZ8ann3Tj87c+ikWvL0Yja1xDoyNY8cNHmZGkVOL1BVi66ZeI7KhG1QZ23WPKsHRWNk5Wub2sJRvTVu1EYcgQmXpjz4Rozo3s3P3p8RyAyLk43ivoiYqnRpyTQlve27LQhBICrCNMfvltbeT1DSaY+dxm9Xs9dFR1XOzYFgOad1omQyUQro14AmPfNvKXWJQlg9mos+PXKTNcVojUDIkg8xxF/ejrexVF3ijTM9AAF8s/JhAt3mAP40kahIkNK7GCKBcpy8NoZCLUi5yRYuwUJ3g/5dlJJQG7D7ka63I0FTiFtzScgz0L3tHpA45JwvNJX2laPQ/d8D5QpL/6YSRvD07HWJmKJhwo6C9kfbMO4HAcAzd6mQiYf4lwMxIHaPuSduz3bjqf3QB31DmHAdYf5VkZj/b2zPL3fCw8XcQM0VYptrQBCXYlcj7pVHZPyQnOtMEjXPi/jvnm7iQnepiA0EUGN+al99KYD87unXtHAwpgJ+p5ijIxn4kE03EGaP0Q+ac+pw/vfljv11Tb6opHH8bxavPsgzgSLiDVisj9gpsgNdkZ7PmwEtY/BOov3cm/RdZ9o+9Wc6o3nETsPfa92KYGafrpdT2pkNbVcTUPqBm3bX2BV67dzTuxc2eA1LwbexMYZzzUtfUfbYX83Sa8pq1468eQkGUOpqhke1nl15JppTReSa2rUvHk0qh0rMf8h7fKBpv9f+vDczDn+x0oWLkKK+q24+U1izD2yl7xDlE9fRJHzvQf4GebVmDF385GmF3X6Jv4qFgOShZYV2uzezlH8hBSQSf+uY+29mBEzOHIvUEtOmRH6/ild1OiLTpgrJbGE19FThrwvMKz75XYNIfOyAV3mBHwYKIyaUaeS67IxjvYFaxhsv46Z16NWEWQY4nz54YVL4N7KgOu6CY7W70D5B0KuzfRAT4N1hl4raap7nd6WT8Z7eq6bPXHf2VYubKi6NBt33mJQN4R2lfjk8ZQqs0178y44cfzRl5HcqOb6YIv0sM67tUByt2U28BbjJNnEq8oyhFeZFM9mMq9Deo7DRHazLY2vJjEOomi7KW4QrEJ+Uz5QFuY3VOTbohbVgkV99yKypp2OXjCDJwwv96Sfn5pvS8y9M1edrUkyn6GGJTtS5IL4YhyYlr92VhgRv7tixCwCYRdn8uzexsoVt42tYFblq8Q1yLsHi6O9fbM+H3GBShDvu6CcZp7auTH/kN6KEUdFiuzm8qdKnNJJa1ciMgRdRwTA7l+aO2fW5KeZtnOuX1vrg8WLH2qWrXVAheJ2vcyJWqvRLtr2t8/JRgc5J5k030EChO3IL2S2vkcdkbK9kC6+0ver6uPHNV3t75p/E7apDEpTDmuzpFLyyB8RUsXmr/HhNmcAOl7ze6VyMxHUbymxb5mZan3bHZh64ut+qJDA4H32xtRXTHf/T619EA1qndJj2o4dyzyltRg0U3iT09y2H6SbhzrDDRZ9DJCzeHwnKAtR428QmflwIISO2IDnwjOaJMhtxaxyQwCsXQ+a8CDGwFcgMqRR3PD4kSFYjBifE6A/ChhHSdvRPncxmASQIpe0UAqY90YLOEdlrkj1PZdDqxm+9030npugRJiySavDnBQoN1zpbHcukfHxb0qwZeNTxVu3AT16skQHkc58sAxuCaMPzusUw9gjEmDqe/CU6AbcLLO7d1bgwhfHZuPAnPBaS5r2qi3dn1CVEjjis+Vu3RCNBVSrG++ZXAgty/+BJ3rn1MQQdgkkIzBSWd+CuNdhEVat9vbrLSWZwvGNS1HjctAu8q3kigiWxfJBbcuKdpcSb7wThDjWpFQMPrkLavDNVyg20WvJiRVcggMS/J5LYaFgVs//MSduHcXwainhA6cAYpFJGuvSDOQA0xBsQk9M25tgJY8vMHp7C+dqFes8fBbuUG3SbVBZa93n2r4O2X6h7SKUD4H1I7btrRhfy+nlgIvUtuNaM16fS7n2NJ6PKa9N441gNWtmZOhwuPiKJiqgWCNQdKFIn8pNs5zFm8HeWP11690HPWqbYMd1mm7iBrtJc6eE7TFqJHxfcIKKiaCs45iA6voNi+opAi1gUfReAcjBSgPn/IdfWMCVyxZz2EN43Lbu73E62nYnbzh06AJMSQaUNWhibLIOz/V0anwxdrpvCPU9lUhntrIJH+vpDycE1vH4Jdk55gI1TkkNBC8cBqXcsTULlBYCioSheeB/4a/048bXGq7A+PcIqwvBeO6/1AGlcX7nwb4ap0sP1pf8B5ckPXLbT4mzy+nEedXH/k5wry+8TIl6o7Tk2Q3QLmxYgz28NFwZoS61uOBj3vkjVty82TYGAztiw3tlSeB5/qLhT00gWQenLR6RXjyFC42oz2d5VlDClsjVNDhWbHkMc83lmcBBp/4YIvzOO7JOlczMeI1IayUlc3LR/GD3LhuSEKYe4gkbqQnQAwssFLAVwd1p699iGIQ1o8BgWNRSGefbE9B3vkbDHM+8mQPv9VQ4atCcNrqrOfgBUsByqcvAfpLHb38yvBbGY0nNiiblN2tmFKk1ilJJDI9xLWnfcSTi0c3KGkVoXzu56xZs3DllVeKxD+nbT5ovBexjnbEzLqwaAV2Nu10pPrSID1PHLFtlVirLawbKsK9tzOzZUGJXpHbqyuw9bTb3EpzoyGFgsD+8EyjIe6dhUyW0Y7zvej+5FP1h5wTGuvoxOdn1ZtCjetRopWikSWoN4cgP6IkpTlM2I/sPIzVJr/uO2RaXKkLbTva0OV+++nFt9D3DdlpN+AGRyii+SXO7iOqctRIC8kK0mEZL/t3hNwK74o2oumGMnb0MCpermQH7O85ZZ2UtmS98so6XrIdIFzMGAQxPGayjGsdnfX3wsjlgyUZCa9yQ3mpfeZI+OM0LuWIqUsYZMKBA2UoCM+D/M2WefbrUvuIss3Ko2ZY8efN8ruNfWfuYI32xcfzkuA7PSXpaRVzSxIYTcnDRCAzQMOs/ghcDBCvqAQ5WMSux7xaWwLEnFrf+uZEeA0sz5qVkcHqDUgbg6V9sRqwvO/gK0tr50qMLJ9CIL1iHXxMjfSWZw03z5Y+aKcP9Kn75v1IwIgSMdBpO65XCjZIqDggV+TWo4mEcc36XBEm288oA9ybBH1IoJDuP9f+tx9xHbD2HyyTeWVEtJj7P2lHStHJ+1gx2OPo5z2Or8oAX/xKTNlQ9Um8sYA9mUbXPpK1RWLQIJn2x06i/pLjLL9a+K1j4IXPxdbuxTPyT9m4Hg4DT/uIJ1ePbjDSHo7LRWc0GhWprwI0ft4QY61PzcTCijfwvoyXldgKm7XQ+dGLjucWYuELmucvxPTsY8i/kn0cswhP3K2dpBONDyzE+vb+9oiaDNTITMyxzQldWPEqOq/MQnZ2tp6u0kTmkKss27N9l7V1Iw+FtysVGo+iRRPlF07izeerMD8yB2v39XOYrt+IUpKGpIE0SuafLmPHsDcGPL/l6GytaHxkA2UNfVCjRtoEbu3dnqYKLwcWTIMQ2qgZux/pPVHPNQkRIEQzH1USeZK4EZPzTJlYFSKbNVyreWPQh05e9+YxgcOX/OfPQBjiMj8bcrcLI0SEHbHOtYyPzAYJr/Koq24p0Ei7mtuQ1Kt1+g3Ny+byvPT7No9w2/eT5UaOVkoskRE+ydMrY06Bve8Kz1FYWQZSDk/lwpBdi+sTs0Ud6MS0V9UwI0yLUhF4G/kcs4j3SoEEPEvpG31PBo8RZ5UC1ZE0MGjaFz5gYCv3fka/K5pA4pEsan6dWznyLTdaW5/m8mxgshVU4gtuudfzAtQ8eIJdZ3+EBAeAP2s+EM+MWmMuPG8rWZ/L8y/JwbGkcTXcDRJGQin8BjoHT/0YqCT5ZgIPzP0lzx9tUEUIJ5Oo2jKP5R03+wOGnGoRFZGCYhkiy8qt5unmArH1CWfdkp5/vgZBH5+LX3/JcbOBVPitYUsYzg3o9+J1xL4O7Nsxt1XebdAAnRPajea/nYoZ39HEmIF8b6YilXDcT46h8eGZqPiF0URkTV+FxwoMdTv2oXqUjVF/sIxsrmQC+FmrVzDv7lVY9WSCNE+bbwlkFz3qvg9L31bzCS4VeUURVdDjaH6O5TnP45MnIPTohW58fMGs/Bn6XI2g8xy8EY1Hmr0NJ16UIUv8VSbOjpk35lw4cgHKBS6vpHIUzDL/S1VwbQK3bIx4SJFxpeaQN964SWHL0Ecnk6jU+hw26CHYCfOE/YYPuISX1Biiho+6phAKIj3G7JnyJeXVPWl5p3uT2XXZF9YRoUZB5i54jK65JSGsfGGNm8vCT/2LbMyTXlhIv2+fAQVthDJtjX9fUWE9rMO1jPSq6wy6aFEyiKgDx8IazMB6okG8RsUhKFT9dHgdFEFEfCABz5LjmWuGYp+NaC0aww2PEWeVEteRNDCY2hdXpBEkBhHEXMBEg3rG3D5tXpVbOfItN+qe0l2eJfx+zIOeEs9Q2pL5mP/mbey6ynDCMcjaz/A6og2mOvpg1pZyzwkfoOtHIar12a7z39j18cEAS9m2o63o68Wgrx+ZQg3o26PIRP4GXPwrELK+y0XoVLkayY4vBoKVrao5ExIO9nBU+6zVY9aGcFEr5/3msLaBL0hlG3BgZYIPUnEv6JZ59nKfXuTcVlv55uXPVHYM1CKbrtMDFG6itg/oK/Kz65Fh5O56YYCK0GzkjFAfFaHRTAA8+W19/qIgmXDceBfaN1dizuxybH1XbWNkFazAz3+QrxYkUgwJo/hHTJiYNsZel17BiudZw9bLrnBMAQpuTZDGXad+DVw1Ot99H5byrh6O/IeUKK3bgp0/LRGjGayqCEGy++d3IL6vDW16aseJT8QOTFSfQLvluzZ0nEkyhjb3LpRoGXu6Ecufb2fHbJWvE2XXcPONyXpXLw2yUsbQ2hkRBd/Z0XOhp3lAzR5WqxDlRot1ArfWGGnLWkvPl9EhaMYBf17SsyrCIRKMxHL0zkfN+UhsKCnUKDMXwg4jmRtcPiLWGmYs0cO8TL/TvABi8Qv9umwT9VWn6zYi2D9oec2eYZoHL6zIDk08m5QWSVIGrXglgT/GaGv/3U2yaCs+WhbUEEZDmq5THUuOgssyZVmxT630ZynfqoNdETY8LNocqYWvQHqjHZ1vP6CM076tMMgHw2RbVMTvwWTIyLroHwHSH4N3Fi6L9sUZYeCLbkDysErDE2038BPnfX+VZy3iwj25hsuJ30vRdzLI/LI0IPo0LkD5AJxXPvF714RoGgazJTGjzWbJ87UmJoHs/ao01v7zgU6v9u7Ptv9liGem5bMaeHdg6j/FPsw2sr17WuSDm0fScnzzMXzgz0N3LhgCUE7L4DaZnF4i3p/K/jI7E8yYB4I1T7n5usVz0p+R8nxrTgdTmUg6CiMRlv6SY7dJExBAfFtt3r6iyqkaeJBTfExzVU2k9T2h6WRkLrPgrs5C5O5vo3hWPsI8VFZgakZ5YeUjLAHo2vUkKl80115WhO6uxcaHmAB1mz+ZxRrul+tw1Xcr0Kxl3IVudBxhClS/lnQRQvjrBayIKd67Sn2QfHxgPap4gXOjuxXrn7JWT9EwJjWakY3IY2Vovr9BvC+16xeVqJRfuI+c8EaWNe6XAllR3EI4ZKV07RR0g0/ljWsDJIUopr6B29j3+eAduPxGW1jBfVEhswBVHQXrFPj7xBbu4YE5rMGzVWreSesh42JE3c+gcYOdU3vvmUdjaoZ3ZvbwvaKnPYxcLtS5QcQQoljlgc4BufJveImpMWPlYfsSdk/MePJ8IXoSdVXABJADzXjgzyKBkZ4Upnvmhox8L5kcANprL/s6KvR6uvccYTFKza7X9z2mCl4uAw0+ZAwZNneC1ZvKqSdF2Q4Lo8H6HjwRku54ETg3sfzQDDzthdnSuNZRz4OXP8u7UjkmA5J7WHJ4Pb2F78+uw/z+vn7EdQQ6KXiboQyzrfyVS7eJ9xqm892kXs8lGIOsfVGLaDmu1BbNYkYf+NH6EYsByY40Rb7nU7TVT9jez5oA0cf0Z3nW20GZh+4Gr9YvsY/8OS5nYmWT/MbyncLxDtqEGO2a3qfqz1a2nQnLsRDhBeJaRJvL88Ah3qQod29B7UZAWLQjfu9n1cuqyBMjb93KMMd9Xt/Arx9e9+PEL38lDpvJknfStuItohXZpns/CxV+br4PDduzSYx6Hq7lh8Ntu72yLotzam87MOxCCbMrtPtkdUx6yu39sv03Ekse2tpemX/yc3r6S7bFLJBN7UFCXM4v2pCwXFzL600QCdEGqPUqaR6Ez8cZJXDNAy86Fwcq/67+dfAvF18tvfXirbeyVHTnxbvn3u1M09X3pa+yvTU+vXjo7+5Uv7v/4vOHPlXbE/Dvn1783aaH5e/uXH0x6M8Eb62Wv2Pp/peNK0nI2Vcv3i9+d//FV8+yO375fv04QZLlXKZrWP2W2ubBp289c/Fu03FuvfXOi88c+qP69lJw6OJqy/XIlFReavf/d4fUhmT5F1Zu7vfOO3F8+ZzMHPo7db3qvPrfyV5/hrBfr4Zb2fO8fq3cWo6hnmES+S+uxVJ3Ga7H9kO1Ex77W+4r4DGdeeF87pnGNa98kc8jeBk0tbcsGfXA4zjqOZnri7nsG8kl77Rn7Ho/xnW4X7vWVrA2Wm1JRPJ5x/EvV4Fh7YajTTG11ckk63GSfb7J189U6Pf2xSPpx3LJW/N5+PUFz7OApLM8m69fP561bnoey/Rbz36sj2jPN/XjG8/R+sw82ljLdwHKsJYHSdf3zNB/9SPD+D0zE/K+grfVDlz6mUSIcwbKmzS18RZkGXU8O5f70MuCJZnzVF6fZzlIAZE3CeqG9Zm5tLuO/DK3T95l4gr+P6VHBwndaH+xEfs/Yh/HzMbSO50TKrvbt6Lxn7qAqwux6L58aIu/4kIMrTvO4Ka7C5CTbITpJ8fQ8X4eJoxJ4ocno1i7S643m/PfFqEkX78Sf7rbsXXzfvC488LSEgT9mSsfdaLt2Pvi43Vjeeiv+OjNJ52I/qIZx7qzkDf9XsweZ5sPShAEkVY0z4wpmsCM5h0IMEIuPAB8QY+kRtKTQY6E8/nmaQ+5Ii4TBlN5HsCIfJJRGO55qH2nvFNJe9CIS4OsH9HpXlFpLrh5+zw9n8RgYhCKUIIgCIIgCIIgCGKwMkAXJiIIgiAIgiAIgiAuR0iEEgRBEARBEARBEBmDRChBEARBEARBEASRMUiEEgRBEARBEARBEBmDRChBEARBEARBEASRMUiEEgRBEARBEARBEBmDRChBEARBEARBEASRMUiEEgRBEARBEARBEBmDRChBEARBEARBEASRMUiEEgRBEARBEARBEBmDRChBEARBEARBEASRMUiEEgRBEARBEARBEBmDRChBEARBEARBEASRMUiEEgRBEARBEARBEBmDRChBEARBEARBEASRMUiEEgRBEARBEARBEBmDRChBEARBEARBEASRMUiEEgRBEARBEARBEBmDRChBEARBEARBEASRMUiEEgRBEARBEARBEBmDRChBEARBEARBEASRMS4jEdqN9hfXYu2za7G1vRvx99rQtCemvktM5+vytzxFT6qNyXC0CdXst4272tD2brfamDzyOhrQ1BZDXG1LB527GtHcEUOv+aAno857/uQY2t/tVX8QBEG4cKAaU6cuRNN76m/Cla5XFrJ8mspSNdrVtkvOe01YyK/pgSZ0qU2p047qJO6vvSZd501EF5oeYOeq8bkqXoYzci2XAvVc/O6fcCct9ePPvfxpyHJYfUD9SRA2BrQI7WUiKdoRVBD9EbF9bP/Xo2j5p5dQUVKFhppyVviD/b77qPwtT+98qDYGJo7WHQ1oZb/duo6dt/1TtT1ZutAhrqEJDW+eQUht5XTtqsSc4jkJUgM61P4WLrTj1XVbsb5iIWbOXI9jajM+fMd6z72swSgpR+XD96DiF+kVwZcO2Rl4N4KykVz4ShrMMc3A4p1Y0p2LMhou+05psKCMCE/jOtH3TqQgcRduouwkKVTk8QaQuNEZyIZHovbAjvacTSloHWXtwPIN2kDoScT6VbCr60woOth+KxsQQxhlq4uRo7amSntNJVrFp1ZU9mdZVMIg8HN7rw3R00DRLflqgxP+DMOnGzC/D0JNG2RId1m3iHUx4HMp6rnqk9ImZN3LqF+7mD4yXD8yUf5EuWD3lFLZUPnh+dtE3wfkvRhr+Vjr8MSlKL/EYGDAitCO52di5nfWYm1VA9rPq41Bub4Yqx6fAAwJI+cqtS1Fes90IaGMPf4SGtvUZ0bodJPuYUyYXmwH95vGP+lGd/e7+N1xeYy83OvY33wbT72In38f3R+xz77pY1fhGN/3K2UosGu7cxrGqs8WLrB0np1HKN9edDy3EPc81Ypuvj3taA1cepIuIN28M6ozaH0hFVGYascYxmiwzqWfBaUULjL5G0Fx1glo+5o6A23EN21GRj9xoRedv25E5XfnYIa6X55mFi9G5eY2xHzbhzi6O5qxlg/ATNN+OwPzK9ai+ah3ze56ZTkaTjNDZOsKuJoRmpHxtMf3Lpw5zQRJbgQF16sNOl0YeV8tirgh3+dnoQzHREmVTXMZsqY+GIXvjcRtS8KqzKnyppW1QKm/DVJuFJnP4Zdny4HVe7F3ryltCmKcsmOWcGO2CLV7t6MsN4aGkkttiPF2dz4r1/wzvx63+5Up0KAca28r97DWbsl2li+q/FqMVtXOX4L2pastKvL+tilqgws5U1aghpVT7Gno9/LWF7rCi7D3abC8TX9ettd417WuVxrYE2Xld3nQFi4BBxpF2fMTZhyLAM8o6asf/V7+uK3zBLPqpteyuhe8D9Loj/7NFWaLb3m6iH1oxRuBB2oC9mFe6ZKUHSJVrrjIUJ8HFscbMf+7W0VhyrlvC7aPeUlWuqThFW0Lii2GXzeiNdU4lvttFN85AeGskGj4eIfKKXp6L1ZM6cWxzZUof/EYsm+vxc9/kI8s+bUN1nB9lzVcSjwmTW4Ztm8qQJve+LlRhKW1/wXH/smlasUOIXpUhf9mFaP+l2U2kdmN5ofnYP27/HMOSjZtx6Jc8YU0DIWhJA2JLfOYadV7DI3fL8dWfj9ZBVixaRWKrhZ7DwxU4yufkdqmIb476Xze6j6h3aMF3uBV4qT9u/fY9pWVaBUNtb38uCPKUCd/ntxIlR3aiQddrtMVeR2tojxII5cf741bvH9vLrOiM/IyFs4z4zCiGYfcKFYdi/b8/X57qTkTReX31qKdFfHQ6HzMLroNX70uBHxyAm++GUVrBy/7OZhdtxGPTrDV0AsxRCvLsfZtJjavnoDI3XdgEvtt/P038ermVnTGgbwlW7BxHjMEFHxUfr7uvbJheja++zGc5dMoZ2Wn5xvPLSj8Gd0X0+urJy7PUl7raOO5m7CWWYncH/7l3quumVHla7RbXfUg0Ln7jGZs+tdtt7wJhqrLlr7HWb+dmI1gF3zrqfptntc+2rFN9d+Bdt1++yi0tsNyP/bfO6/Jkqem/sdC0LLOMZ/f63iKoqdrgSf49QXA9zkZaO2AXt/5NawEagL81g/3Osvzkw+K2MtsgnJjQ+vrtf5D7/staM8yFdzrlVd9stb5LnQxQda2Ut6PtR1NcJ+Xun5kqvxpAjQQ1mehlVdXTOf03Y9heS4J7jsQlmcn89lhkwn8vvMuY8QAhovQgcnHF3/1vVsv3norTysvtrSsVp+TTfdffPWsOqTGqRcu3qN9/9Br7EwXLx76O+M3q99iG/79ny++usTY9p2X/1n81M4/v/wdfZ9bi+68ePfcu410p/H7W6ebtpvTstcu/gv779VS076OtPriIXU+M3889erFh4u0fb5z8dWY+sLMO+suTteO871fiXvVOfvqxfvVd/e//C9qI4Pf+7JnLu7/V/X3QOItWQ7EM7IjvnN53gz5fN3y8dDF1fb715Hfab/7l5fvF+dONrke23Gt6lylr7LSIP9+tVSez/3atHtiZehu9u/0dRff+Xf1hY0/tixj+02/OH0639+9LA1IPmV5IurQdy6+cORTtdHKH0+9dPE7PN+ms/v6/6mNgk8vtqzkv2V1d+s/X/yj2qrzx3+++JKo33eysmQcWz5jZx6JvDY9m9Ue5Uz+3vmd13H7QrBjqrbl79z3st6XRL+Ht4z2IXFS1+FTB4PglX/pRz7D1W+51y2OW94kRmszXO5Ba289noU3/s9Q4reP+s73XrQ+KEgZ1e7RbV/zcZzX5Jen8tl7tO0q78zfeR7LZd/04Lwf+zX/Cyv/ss645Y2Wb2lICculOpdHmRF5x773yiNxX17lLZX89fuNV5shtgc5j/O5OPHbR32XrvrRb+UvwXPR0a7VaTvI8uq8B2tdkm2jWxssf2/7Lu33K8uun03maxMlrBvEQGIAzwnNRuTe2XJe5JAzOPFbbbGfsSh+chVWuaTicXKPrFvLTNsfRX623K7Rsctw1xfcHWFncmFIGMU/WoUiNTGzc4NzfmnvgWqUb+hUf2Uh8vRO7GwypeU8DEESLq23fqel2tnIYf8Vb9qL2ulq5ykrsNsc/uUYdYuj69dVuOeBBhwT4bJZKHq6DsUjxZcmutD0XLMeolt0l+1er8zS//60txu93d3oOt6OtraTADvWoecqsNBrnukgI/++MoTRioak5n7mY8VW9rvck4jpoSR8ZNH8bIwknh8fTbRtd47YsefyAh/JHI2whxeGn7t40xZxzNiG+T7hP1chcjsrHfEo9gtvt5042t5sByZEEPE810AkjvbnqtDKqlz+ijosGucehxDKLUHtIxMQurobnaeNYPT4gXV4po19X7QKdQvClvnVglAYJSt5mehF63OvJjWKK+bBTS9zjPR704U2vkja9NuMesxHs91Cieypr+F3AeYmeRIuxhZbWdaTCLEy1wUv78FAhdXtvVuwYsoZeIV+CW81n7Pl8p3rXCnuEdA9JU5PkAhN4+3JnkrvkDFeLhzPnPV/7BmGc1mj7FlulIeIH1v8bQ6DVt953gtPmoeJh9TavrNcj+YN4s/e7ZnzvoyHH/O29ozalhiLRzHMr9l2DcrTYkwrsD8f43nooZDqOG5TFfj5zG2q/W9XVDipeA4e8BBL8YxFPtrLCC9zpjrkk7bzME1Rjty/DxYS7gb3+BkeUNcIBVZmlnPP5H3pq9HtL/Ln5xeeGsMJeyPM8pLfq+UaB3z96K/yJ5/b/NNlPt5ehn4/sm128xYmIvn+zQ953W79GL9nnn/pnk9NDC4G9uq4E4pR++RG/HL3FpRN1uTSdbh57HXqs4mcsbhZ1bdeZmAW3JqP/PwC9u8EhK+U2wXnW/HaLmWshmbjrlsd5qlBVgEee7JIheEyY/WJCjSpfrW7lYnAJ1r1+aLhB+uxNN/nWAnpxO/elp/ysk+gSiw0VInm9+U2Db7q79r7Z2A+s7A1Wc6FyOfjHyNum7/Z27peNZyKIb2Itbcxg7gJDc+uRXV1oy4wu7eVY+acOZj/3UpUPVWNhh1RRFs7EPsohm77nDu9oXcxxJKEh09YGnRH6vs5BMwALNNEfjJww5GJwWLPzjMFlDAIL1mU0HDPXy7FLReiXo31VfmFmMBEW3SfvuSUwfk2vMnE2IS/nuY0WkSHxfJY7yCMDkOUs+/O1J/DzO+uRdt7LjOOe2OIPrsYc2ao5zVtJhbXNOPYJ+p7hXjOzPA+1tGAxWrfOdWtpjJso7sFr+5h57uuBGVF7gJUI/vuOuzeWoeSm7T6x4T3r1rZ/7NRPLfAI4yecf00FH89hOy/7MX7nhdig+VZAzPgkhJ1ynh14j2gsVfMI1S7mdDy0W6uyA5d1RWzIeZivPOUuY5flSnTue0pofHfr3gLA69BJZmsAkw8F57XYn8fQc7bEz5/Uhi8zvl4PCe4SLXkiVjcI4xIAavByjB3JlVeeFib+JtdA6/fJSdQ5hgwMCf1O9f7tJVBUa40AeoisnXkoOqWed5izQI7LheguigSeWS7FiHsZBigts36fLQ8dxnwsaPOZ9CFM6x++g/2sWf8Jh84LEJZIsNeG2zggiXF+Wk5I0erT+mEDyBIMeUegsth+7ByjCU1aRIhDNVmehK+QTxbextlSaqPGtD1Q9AP5U/Uu/mITt8uBSj/26Vc6W2QuEe/+ulDKv2bCWnPmW22HITz2D973rDZcSqffAcmiD8HBvgrWnIw4dY8ZA1Rf2p0vsqEUpU1/aIT2Veb/HzM+K6KTMWMOVVoNRmYsVcaoa0hNHbJvZhgP7aNLNao1S/htYjTiYaHWQVjyjM77wYMV1u51zaLVV7HokOvGa6prtYG5/fPRtkRFe91oE1cZzbyvzYc74uFht5XwjKO7uNRNPztHMwoqULUMcDchehTCzGDidamjm62N6O3DeuesVZ7vl/LMyyvahrQ9Lo2n84LZpyz/AxPCCMr2YWhksXD0JOjwemDCzpHx6tWbxs9MoFhYSamxJutkxyZa71eZ4PMYUa5WH0vgDGjyF8uOzveSbuKh+xJmDaBlZJ9h4zypIgfeJOV9wmYNsXV3+9OZyPKWTk7Fr4XK55chUfnjkWIlb+qkkpEP1L7cPhqyvcsxNrXP0bO9DK5791hfLxnPft9hbOcvvcSKpe2IHveCqx6rBjTJk+weuZNxDv2iwGS7KJCYaAkRwfeEfk0CV8dIzZ4kI3I2t3Y+T+d0RJenOGj3Ky83nZmYUAhx5638Hq74bf4hTbynioeRpUy5oPDDdc0DATpxp858cVsMgg3Os157DI6nzTqmHweUi1vr3y9KVrSvKVlOMGfv+k6tMVKzINO0rPiFzXhgRBzPoKYIRcoYabggwE8a+zauPArWhJB1GfRlqQGDrlB/QSTtZ6iKFmkV8zTiObPy3G+HNbGbhHefT8hIL2HiQcOBTzvubjh5cEmGGS/4J6s57atqKzKmtHu8LrpfhxZxhi658+0jcHv07K/ukbhBWPtW01angVH6+80XAal1ECZtxBkSXn/BnT9EKS5/Kn6wQdftP27mGiXg1iynmkexco9ynPu5ylNQPL9m5X8W3iLbl2ESNpF9tXBZT75iXVHGRVJlmH371R0BDGo+A/q37Sxbt067NkjS8L06dPx2GOPic8pcT6GY2euQt6YbGs43TU3I3Ln59UfCrZPVi9fClcJq46DsiPsHY7rNAOztxUNL2oVvAB33R7A8mQiMDyvDrWn72EFnKlPdoyXWllHNKsETy3Zj4X7RqLofCtafx01Xn3iQvxkm8v7R/+Iwscj4lN3xyHZEIcKMelG6EKZ0/WLCsx/znr08J2rUPNIAYZ/1Ib1/0MJ0+52NFTMwf5HXsa9x6vR6nBcDUcObw9EFnGRmYV4dzd6udAdko9Fa8sQCV+FUBbLSz+nLusI+Eji5UMYNyRjmYswxWL1hwFfTRCnT7DmlXcr7XiDVwN7I6uFdAU1ZgQyxA184QQmRGFZrIGTjUl/zVTos1HsP76I1Re1mXsEuRv0pkcxiRX1FrU1IaeZlF2yhXV6KlNuLUDhdeWY81wHWtq7Wd3j9SaO1mdYh9DLQ8F/zq5H+RvZvpFbG7Dw4SasXRfFpDpTCHi8F+FHdqL2br6liNVAbz7+SIYA5NmEfSDeY+0G/5f9NqAvJjAj5zFjYR43pBrQeroatwUyYsII58ZMhpiGn0eJn4M9b/VXX+BGr+9iDcKgsZ9J5fuBN1in34qTr7DymjbD9BIhjE5eb7nxbhjkKWM2EEV9LGZlQ3wTmHxmNN4mRImx2EkOK2O1p9kze2Ihbthaw4QEKznTy/Ryxp+n34Jl7sgBD6/yxAe4PPNDG4Nl8IE84UHawGqwox2SBjFfZCYo0ruojErtd3zAwmNhopj9Ou2eKFFeWV7y63KsOCq9fMJT5FaWeb/2NNgzZUIAZpGgDSQFHzgU6MfjQhTW+scHXi31UZZJ3UQQ3kGrwSDFFl95ndsw/JfSi+/bE6syKuD37StQ2tHWye6Rv5qEP2OX/DfjeBYa5nsT/V0YRdNZGRNmofSSW3tPVR8DhoAO5PqR9vLnYmvlsHZsxV7WPrM8q5zKr0qK93R4rpPt3xyIcst6jDfbWf7LX0qvfiuibV0o1u5b5BPb3Se03X1gStUTj0Er2depP4hBQVo9oVyA7tq1C+fPnxeJf+bbUuZIE8r5axlmVKHVHN43shCLShdZ061mYzWOjv9PyjjzK0mObV7HirAk575FKDKH6brSi/ZnZmLqw68i66F6lDGhO+HxLaifJQt/eG49dv90EW5I4E0NQudRFRg7NozsT4z3jH76STc+f+uj+oq2odERrNq6G1seL0AOE4qh6wuwdNMvUb8kXxr7Y8qwdFY2entdQifZHtNW7cQvd/PRxd1iTuoKzRXBhGjOjezc2QkE6GVGolFUMcqYSkiVamStI6LKmElppJl33txzVMQEs/NqsvMLWTnvRusBk9lwoQMHWTUYW1RoCMFA5OPbs6ziL/vrk4Qs6e79o9zQ3YJf8So25TH8QBOgitBNrD7yTrijGS2WcPIwJn092JWI15kwsq4ciIVRexatHq9U0cpTOxo38HluNZBDTSaEcZE4pLEvo9qB4Uaj5nFgyRKBwK6T/x3b0Ki3nZcn3LhxGVV38WzqHgLxDJM1dp1wYWeEk0ryl/PyxQ1j6RE32hFe9/nrb5J9jY3dyyS90NzQM7bZk1u4YXqR9+5yPjFgYPrOKxzXhhC1Ht4V8coRXtb96pQq7xa0V4uk8roKdbxwnu2YgTDPk1Thi7kR1rYG6Tu4kGDlVQjQoB4yvg7BCkubZM5vPbk8C0vSBKjy+hU9vcVYkd+VkbiBf98ZC9zPDtT60S/lz4J6rmIQTT1X1o+EX1TtU4rh31aC9m8uMHs0Yn+WU24TeRk7bYRGdZ3hAywqhJr4syatIlTzgJpx2xaUzqOH1KfhuO4v1UfO2+swZ84ca3quw5hH8XYD1op5n9konq4kKGsQ1/5CzeAMFeFR02sZ3Ikjtq1Cej/f3YryB5qR96OXUXen6XdDQgiZBajNmJOLd0jcGzOXTq1jPeY/vJU1r5wYtj7M7u37HShYuQor6rbj5TWLMPbKXtM7RFn6JI6c6T/Az1gHsuJvZyPMrmv0Tfw6c1CywLgGjt3LaYSQduKfHWG+lz/y3Y03eHjMVMevvJsS3gBrHYGReAiNLH887MQQm0KMKZIP7eHIc0nDl498cyPB5ddXF2LaTWzvPS2q7DDauRAei2kFyUlQhHJwnX2AhpUpTtdHKtKg85gIlw3fNNq56A/bctM4Xq46ceKU3CK5DjkBX/dz3UhVLm3znDla+JEjaR0mq5N9k67OxSecYT75WMSNBb93vPGBiOm1FpHiee2JUlqMi9TImVcmDJLkFvWyYQkL1FIavJFpxtfoTDqUuS+wuq73H+Z5Uzx0r4YZv8wAXxmwTAixrA14GEbsySW1iOyZ7x2WrLxYySxQow0eBUMKfyPsz7TATACEgLV5E0X0iVbWlCdPm2u4HDVyfy6OHPNx1SAEywvuaTO8LGw7F3K2tjwh3AOp6qw4HhMeSZnb13OPJ+tNzqgnrD0L7qWUWzyRbQwXZ5qwSkE8p4PYCeH1SzxIk4OC6axmWfrZRAzE+tEf5U9ihHCruaGiTWLPVRzL1D+5TgewnytN/ZsGf87qo/Eso2jTf2cfZDAGVAo8B2GJPxcG8JzQLnQcUAZvwc3IEiMnNq6bgMjXTZV1iArR7e6Shf26CKZpoYnXF6P+J2Vi7teERx5Cvq8XlAvQcix8wVj5tujxRZhwCV2E77c3orpivlN8m9MD1ajeJT2q4dyxyFtSg0VMmPiRw/aTdONYp98c0csR2WmEpxd4dOzKKPIInZUGq2k0VC2wgDY1cm4Wm6yzWL6BNbyBOmUN3iHKkV4e3uJPNvIL2Nnfb0O7avzFqOxN01CY7Htemcj1kq3xXjWQc0F5RJU4DUYWsnzrnUHOdXLxsY7jztiaz+dOQ+TOiJFuzbOKzuvGYizfwAzi1MZVtBFmI7l5XXLmJTB2uHHjOuptH3X3T27nziz5uI1dQ5+8oTwEzXFv0ttwOZDa4EICb43WnjCj0fqi9xwUr2aCmBmcy4MODHBRJM5pGLH6wkHcaDYb2tq+b97G9qvxDZt3xXNQz44sV3rbZpqf78hPm0FvToaItS0yZfPY6Ya9MJpjIjxQxzVyhRv/fKAkmPjT0UJgLYZ4skjDXXqPlBBOEK6q5Zl85ya/Z49IC1cR1A94tn9OtJBNazlPwICrH+kuf5ognoqGXGNwTB5HfcffSaudz540ke4Qe2nq3zyQz9J8f2pxIm2QQVuY0cvuSmWdDmLQklYRyueA2nHbFojuDhxiBZUz4WtMKGkekWyTgTz+21h6l0lljQirRkmS/+C3LX9njStGbdNu1LrMBc0epwza28fizLP3mAQof6F9PRMO/it09hVLWJI+4q6M1U3FATt1E/lLLS/h9yRvLCaojx1HL9dgetaJu3iSRHgMy2PPkBDRMRjf+3tNGWL0mjXaG1h34jpyzhr/gJ2y7GRUqBHvxAL8Lqcgwq5WNf4XpMBOPhQ3INqAzwW3sO++Exo/SYTRd7fuZ3dkJTu/BEsfX2qkB+0r/+bhqyK7DuF3x8UGTzpfWIiZ91eg8W0lrpOCGTsPso6eGTuNyRhPfUWNdssVFuWotnW1RTNdiPFqnRd27/ADIl5xxAdb+ttwHdQ4jTuv5B9yJ5GvtZC0PmFb7Od6udp3bE+bt4GovCSGwSzPLYxYYUiz9gVl2M77G7OnWoRQsn1Fm5ODnMDeCuUJSqKsiYVMlLdFf7UFaze5N8icX34hoEmHQzNxxI1uY1CFtbUukSt8O++Dw8msFKsJUBEV5RNu7/BY2aMClEdpzxuoFkLYu+/QvGTzN4xGrSn6yo4u7JmgH/10CoML/YkSlLrnNwCDr34oApc/NSVDuyaFfN7LgdXsO0skgAlzOfTaJyHJ9G+mdTVcwm/NixPJep5YZLoNOGn1hBYmunxIqwjlixDNmjULV155pUj8c6oLE2mrY/LCffP4bLx/RjU3f3mV9ysXrssRISyCrNm4l7UR3fa5kfYQWkXenUvFKqCfth9DZ7fhEcy5uw51LmLOHB7BhYLA3rHwRkDhVWl4sqxCdr4X3bY5obGOTnx+Vj127typUj1KNCU0sgT1+naWHlGSMug81ew8jNVUyr5DpsWVutC2gzXg/aMxrDg6ZJm8DevgyI63ATc4RrLlfD32ZNBQ4j4qLBfN0OY/BDHmVdgJwxFyK+Y4+YVFqVFUPVyHlys5CBHYyFLzMWJt7eg6cghtqYTiBkUNXsQOH3N5zUoc7x7leZuHG0bJLUlzdQT3Tg8B7zfhpbZkBWIIRXfxdwx3o4mVYc9fXziG6K4Yes/EMTyc4iDTlEUoyzXm6SYaqJDGNTNOY2o0PVF6oAkj+QCVMiTMg1VSyEjh4y1qkgtx9ISX302s/CZrcBGpwYxIblAJY1cIC+f8LGc4qg3R5qjyogkYzfDWDGnL72VZ4gZy4sgLidVjyQxEbvQGGDDTEfWHtcEvNiV+tUWK6MasaSBSe2+0yFNtzqdjmoRctdQsAOxoYpm30cIm4H0+9/onMvyFSFXPRiRnVIDmHeQL+ljmowqBxESX+JcZ3tCiDFz6F7UPT+Idk+p8K6Yw8STaIJN4M4syH8+z73d6StLTqvVdfqLRzCCpH5zUy58ZwyvKF10SfQjYtboMrusCNEg5TESA/k3O7zTPE1V2kOO1LHKOszgGy0vPV7MIT7FXtJD/XF03jy4xsEl7OC4XndFoVKTUV8aNo+1/qeIbmoAJI413aGIUazzVR7RWY06NIfQ0Nz4n/6FFGPtJFBUzZ2DxDr9mTb7+ZO13ZmDG/WvVa1IkY++rx0Ym6vrXB8oxGpipkZmYY5sTurDiVXRemSUWDdLSVZrIHHKVZXt20iHDeSjUPMPxKFrU+ki4cBJvPl+F+ZE5WLuvn8N0HR2yOfkJNz/kHAvZ8dpHpHl+q9Fl0ahxIWobDGC/F6P6mlGkhZCYjHk5sGAahFAGvzGiqZ6rrXP0Qxh1vJMXeeIzku6KGj1/dz8aXosinkooblCyp+EOPpTe0YDnD1hlXvzdRjlyelME01xe6RuMEPIfWYWirDhaqxZjPX8vkgvx7g40rXtJ1RcTE+7Fo/y1Na1VqNgWY7XcxoVetD1TiWZ22Ky7yzA75Xzio9Ue83T9EPOQrGVdCklb5xvQiJDGsEtdGSihTWZPgp7s3p9Lj99goWZ89z9a+KUK3VeeE56H1jYqOPqgaUkUEVW++LFle3OClTlpFPOwRmEgB5kLxnB4LJM2epW3hZ1Pn19nFkO2vHcXPkrwmASXSOo3QkzYr40JEP6qD1EueV7rbXYqyL5GF0UJRLi7OJKDkBbBq4Wb2q5NGv0MrQ1xnE/2ZyIPTB4++37yOKZXZ5hFmV/y8UobKfm+y8vrJsqoRWwN0PrRT+VPXtt8nHjQuC4BF2ssv8whx+J62fGESEtmMMiTRP2bNr/TLExV+K2pbBmDNTa7ygWnqO0j5ueShC1GZIYBOic0hIIlqxAZzQTVrZMwVn+Hpm1EnxmS3Zpt+skbqH64UTcSzrz/MXBWvhZBvmvTRLwXsY5WND1bgTnTZmDOd9cietJkpg4Jo7j2l6gvHespQPPuXoVVTyZI87T5lsxmL3rUfR+Wvm1e4vsSkFcUUY1jHM3PMQHM8+vkCemJvtCNjy/YckGv1LYQmBRIOFqZAideZA0xM3D5q0ycDTE3GLhw5AKUG+2885eja9zA0Tsx2xwNLVTMvES/eTRuyzwoYcvQ5wIl4YVSearP50kxT3Ly+TwLVl/a4ggXqBWT+4UQin7A8i2rl+Xb/Sh/tgmt+9rQ/Hw57nmYGQxDxqJs2ey+nT+LPRvWARZkd6G5ciamFldg7SutaGPnadvF50jPwYw5FWh4uxfZ+WWof8j8rLMRWVWPkjEy5HaG6bfNmyuxODITVXt6kfX1pex3Rj29LBDGqTQCtdAnvWwrQ1M3ZDi2SIR0RCA4cJ0TKpOfp8mMNMb6PpdNhuG7c+kXJjINkJnaLvmuYH52vwFVO1Ic8WcqvSc8aeJAficH6WyDF6yMlE1nQibJuWA6oi3jfQM3YNk5ExnD+tw+NZXATQz5Ch91T/aBnSSel/e6AH5og8fseanybalXSaCLIJbkeyLZ89EGPVyEmf+8W9NAlk/eS49UGo39vqLCOFtfsJY7cZ36okUDuH70U/nTol8cZYudjw9cxjYsZ22iul5lPwRtU/uOsnFs1y+v2WUgwmPutYGbqO0DfECLiXLRbvDnwUS/rF/EQGHALkwUGlmApT/bjd2P5yO2p1k2xozR+mquDM2wadmCsn9tRavJWdL1yktoOi5/Nfr6HHR3NKGhugIL58zA1BkzsbCiGg2vd6DbJlDD0x9FfTM7Xr6//zN7TAEKbk2QxhluoKtG57vvw1Le1cOR/5ASpXVbsPOnJarxkp3J7p/fgTg3vPXUjhPaK2s+OYF2y3dt6DiTZAxt7l0o0SaGnm7E8ufb2TFbVZhlGDffmKx39dIgR9BiaO2MCM+qo9EWxpHqwCwdi1WI8kZKhuJqISMqdFcfvZPGldHQ845RC5+VnlVhTAXwQomRS94Rag2lW8OdDLnTUCSKXQaWP+ci8eV6PDp9OLr2NKD6qSqs39WF4bwO7axHcTp6kauLsKppN7bUliEyohv7X6hGFTtP1bqtaIuxejO3DLU/342dtcUYa15Bm5M1Fot++kts/EExJlwZQ8sG+dv1L3bg49wilNVux861EYSDhq4nJD3zL1NDGsQWTwDrgPliWFxYiRAyVbYdCK+7NHR4CjJfMfhodUAhkhCVt31cUZHXNy6yw9OLhEFi5JeLJ8qOm4BPM+015gEyMzwft7Bze1yfS6SGdk8WA1b3Mr6B2/h32nOxrHDJjUhm1KMB81PwHDg8bL6wcruSiS1eBp9mLafmibaHGaY172VdEYMtzIbgdUOc1y200RVNvLBnxecMmvMxEIb40ZIhgngZPMO+Z/2UqJdy4TvjlSPKSPdqY4SgN7/axYvEHqnMw8orD621ePdUvVfXeTnUj76XPwO5cjn3fMt3Z/bZfvDF2b8lXFfDhtWuciHRokXJokJ7xXxVLeTbNFeVuPRccZGhPg9MzrMGezZrkIWuKsCK6CoUDeEeULYhlIXsrI/R/PB8rH+Xf89Xsf02up9tVPNJOVwYsIrZvR4z/7bZY35YCHl3PoqlpdOQl51GwcVFDw+1YHBDMPDoFG8IxSiovPaCNmk4BcVyLtM1cJHj2YmfacLi+xvA2xgLvCNMs6eyL/AR48o96plaGlvesXu9xFh+x3PB/znw/XjnY+3g5DndOj6OWYCqa1J5Hs5l5sDp0Y7faYawYIDl7587lmdjJ9Gz0p67o4ypMpJX62us+pczJ/JaWZnOjbFyZqvfWhvCB+rUOeXxk2yLFNpvzbgeR+TBSZf6GQzvPPCr3wHR2kKVJ/qzNuVRqviWG09s7Vgyeaf3ESY8y6fWRrGPrvto39vzXbWb9t+oc8P1WahjcXHmOI86nqNMepxX/RUMlzKjrnO0Xi/Mx7XlvTk/XcuD9Zp8+1Iv9HP41HGtjJrz3OVZ+9Vht7rqjs91+OHI18TI+uHsC92w1Mv7Ysa5MEjqh4Yjn/pS/mwku7/Ct53yzB+Fo39T96POH7zcuaDOfcaz/deQ53TvB9RzMvez5mcQlp/d2y3iUjHwRWi8C23rHkfVr7uYBl2B3auKmGS0EntlMRZu6ETeki1iRdhjz81EufZO0Jsexc6f8rDAbkQr5mCtpk6HZCE8vhCRbxcjMiFseXdm2tA6FEZShp/ewMiGKiMilNF7YC3ufyJqWmgmC5HanViaf6k8odaOXyOpvNTuP4mG2koXa1yX441b+Cir2mRGHN/ZMeoNsksDndT1ExnFy1gSz6/T1EmbjQAzruXMpXNU2Dvu4GXDVDfs5/Qp89r5+q0MetQHd0zGnwnXdiqp43rBzlfThoLlZkPL/RoSYjPYkjGyOXJ/HjrXl/tJgK0fMc7j1q56G36yzFiP4WvM6sdyy1vTecT1nUBZwDxLGhcD1FcAcrS6w/fbegMa9Dqe4HfpQF2vu5FsemaJxEJ/Y87XfhChAv05MPrrfvuxfgj6Wv4c+1mvK5WBkLT2b+JaEfyZJkTeH59G5X1fch9NhDrbIZfnYC5Lrv0zcSkZ+CJU0Xs0io6/jKDANcSvF8faWVOSr83h7EXs16+i6V1g0n2LUKAtOnK8FU2xbOR/PQ852VkOMZt2Tkaxdpdcbzbnvy1CCX9JaRC627F1837WheegsLREvNs0ZT7qRNux98XH68by0F/x0ZtPOhH9RTOOdWchb/q9mD2u/5dlIggiebjhwMP4LB226nD9RGZ7zUL2uxr2u0tmxiaNMDb2RC6t8U0QBJFJzAIqEwMhBJFhBo0IJQiCIAiCIAiCIAY/A3ZhIoIgCIIgCIIgCOLyg0QoQRAEQRAEQRAEkTFIhBIEQRAEQRAEQRAZg0QoQRAEQRAEQRAEkTFIhBIEQRAEQRAEQRAZg0QoQRAEQRAEQRAEkTFIhBIEQRAEQRAEQRAZg0QoQRAEQRAEQRAEkTFIhBIEQRAEQRAEQRAZg0QoQRAEQRAEQRAEkTFIhBIEQRAEQRAEQRAZg0QoQRAEQRAEQRAEkTFIhBIEQRAEQRAEQRAZg0QoQRAEQRAEQRAEkTFIhBIEQRAEQRAEQRAZg0QoQRAEQRAEQRAEkTFIhBIEQRAEQRAEQRAZg0QoQRAEQRAEQRAEkTFIhBIEQRAEQRAEQRAZg0QoQRAEQRAEQRAEkTFIhBIEQRAEQRAEQRAZg0QoQRAEQRAEQRAEkTFIhBIEQRAEQRAEQRAZg0QoQRAEQRAEQRAEkTFIhBIEQRAEQRAEQRAZg0QoQRAEQRAEQRAEkTFIhBIEQRAEQRAEQRAZg0QoQRAEQRAEQRAEkTFIhBIEQRAEQRAEQRAZg0QoQRAEQRAEQRAEkTFIhBIEQRAEQRAEQRAZg0QoQRAEQRAEQRAEkTFIhBIEQRAEQRAEQRAZg0QoQRAEQRAEQRAEkTFIhBIEQRAEQRAEQRAZg0QoQRAEQRAEQRAEkTFIhBIEQRAEQRAEQRAZg0QoQRAEQRAEQRAEkTFIhBIEQRAEQRAEQRAZg0QoQRAEQRAEQRAEkTFIhBIEQRAEQRAEQRAZg0QoQRAEQRAEQRAEkTFIhBIEQRAEQRAEQRAZ44qLDPV5YNDTg54vDsOwIervdHE6ivrXTwHDJmNByUQMU5s1zu7biOaz12L8xEko/Mq1amsAtOMyRt1Zjkiu+Jg8H+/Hxk1HgPCNuDF3FCZ+YxSGqq9SoefQDrT8aTwKvzEG135B23gY27YeRA/7OGzSAiz4BsuF+Ckc/N1QTL45iXtm9PxmG7Yd4kcyHasvfHwc+9/9QH4eOgqTbh6BkPyLIAiCIAiCIIjLiCv+2Nt98Vxc/eVCaOgwDA2qBi7Ece7D0/j9yQ9wjkmoa0ffiNycocHExIUPcPD51fjxvrP4i4KV2PzYRIS6oqhasQN/ULsE4ktzUfvDCK41iUPBh0fRcpSJHCZwJk8yCby8CMr/Bti2uAI7PgSu/e912FAySn0ZgEN1mF27X3wsrGxGxSTx0cqFszh8II5RU0Z5iutTW5eg4u+VCPtGBZqeKOyDCDuLHX9bjm1n+OcxWLx5DSJcI57dgfLybexbYMT8etTPAXZ8n+13mt3336xE7XeYOA8o/s82laN8Oz+SOlbxCPE5ZUz5iJELUP+TuejjEQmCIAiCIAiCGIBcceCZWRfXvKX+csFTWJnpOYJdL2zEtkNnEb+gtml8YQzmPlmFBV9J5Nc7h4NrF2PNW+fY56HsvBtRMSKqi6bAaALGLGr8KFiG5rtPYcn3doBLwNAXmej+C/mVxpfursWqO7insAfH246K/XQ6f4W6fzguPo75VgXuyBMfBUPDkzBxZAinfs4E5mvsV6ERmPxgBb43fZRVYJ5rwer76nFY5d2wrxRi4n8OKkFHIfJIhP3fxOlt+v3gK4uxuSYiPb9mEVrMhOOsc9j25ErsOClHIUKj52L1UwswJoAL1ixCx3xnM9bc0UdPKIlQgiAIgiAIgviz4IqmR2ZdlB4zd4KIULMgcWXIKCz4cR3mjlR/e2EWY18sxLLlX8K25VI0mQVevKcH5/g+Q4dh2JVy2/99vQ67uBbUBEz8HHrMLt7f1KP0+cNMfc3CmtWzcY3azNXg0XWlqPuN+tsFw9N3EHWz1yCAtBXw360Z2YTFTFxxae2eD3EcZudfvU/skQIsn5orMFn9xTny/AJU7ZHHm/hYE1beqgla0/Vz8f04+9WFD9BSW4H637D92fXNXVOLBaMTC2DzMw80UJEIEqEEQRAEQRAE8WeBsTDR8MkofbwCFbZk9uz5wr1885ehbvNmbGaprjKCUVpo54VT2PbSfia3EjB0GsofGCOONe07CzDxKrWdce1NhSgs4GkUelrYOX6+GW/86yi1rRA36qpSEepBy5OlKC1ViQtQztldWKZtY2nj3zdjmxKgoW9WiGvfvLkOC9TczhH/fQ3WfCs1OXTuYJ0hQLl3d+lqhxA/d6gedZoAHRLCsOFMWGtpmEkMhoZav9NTltWr+vEubFMCFF+MYFZBAkE55FpMe2Ijlt06HnN/FEyAcuLn1TlSIP5ZwpJg5UIc8SR/QhAEQRAEQRDEwOSKDfNnXYxyPdEH71PP0cPoGTMRo2z65dTPS1Hxmly8JvDxueC4EEKIH8sUPlpYuQyo9fBCFizDMjCx2MY+6+fR5kUOxahJkzHqnHVO6LmjLTjyofy5zpAxWLxxDSJgQnXRZhzHtZj74w26IHXFY07oOba9fO1+9IgQWxVePMkW53pmByq+tw2nVBjuqPuZIL3LlEOm+9c9l77EcfDZUpYPUiCKkNv55hw/go0LqiCe983lYt4tPv4Djp79V/TEjuAPPT049ds/YVr1KkQ+s82ptfGhKf+uHTcN4+yDACasCzap5/L+UIz48mQUs8+FOWyziyf0mq792PGzJuz632fxF0WrsO2h8fJ7giAIgiAIgiAGLZ/r1Rxa/2mYEaKaJMPGOQUoJ3Rl8PVdD/+sFKWLWFq8BEvKNkL5LU2EkKW8fyHNw/oF5Q38op/3bhjGzVqABQVKjA0bh9klC1AYln+Ov2MuRn3hWozgQujCcWz86S5ENzUxAcoYE0lptdsPWlcLD6guQJfWOwRo/OQ2iwAd+s1lWG0WoKnAjrlFCVDBf2DX8n/2Y3/bLmx7jgnSVRvR8pn67p16lN7H8vt7Vah7tg6b/74FLa2HcYqJ0g/4IT74Pfubb3NPZgH/AROkbvto6ffmSbQfH8bbPPw7fg5nT8TxFz6FLhTqwZF35Dzjc627sF+7doIgCIIgCIIgBi1X1M6adfEg/zRmFiru/LLYOPSaMRg3+lpD7KVED3YtK8VmuWZPwhVfDz47W3oyBWqeo8UTqnkZjZVfzauy6r93eELF157oxz25GUu+v8u06NBQRFZvw+Jx8i/r9fUR7tX8LrBm8RocFJoxhBE3F+JG+9o+507h4KFTMpz3mvGY5nA3DsNkJqgn8t9dOItt3yvHDtP9jphfh9m/r0D9O2qDLyEMHT4UoWGjMPfhlYh8YPJM9hGzh7jnV8tQ+jNVKMxlwnVOqLUMjXlgM9Z8q48LIBEEQRAEQRAEcUm54mEmQuXyMjZCIxBZuhqLU3z/49mmCpRv18I5rYLODe4JrW/tQY/wdrmI0IJC7G/zEkV8Xij3+LGPprDf+L/14NyfetixV6L+kPIQjpiFxdNDCN00DROHs3+1V9DEmWj9H0y0npS7Yfh4lD7yPdz+tWFCJKVdhD4+WYTsLn4emDiKXftv1XdJMQIL6usxl92s2+JQXKQv7l6Gqn/k965E5jktj0dg2mOPYO5/vQZZV7I80N4lGojDqJuzGvuVFzdYqDAnjpZVxboonvhIE1YWqWEJVxHKftG6GsXPKb/4NXNRt3GBdSVggiAIgiAIgiAGFd4iVJBYPDq40IMjW1ej6jVjPuFQJlI2MpGSKDjXEFIuIrQogqO/FT5bFyZj4k1RtNhEaM/RHfhx3TYc6WHX8MWhOPdvTIwNHYqhn50Tq+sO+9pcLJ49Dh/+Zhua//G4Cp+18YVrMebuCjz+Xz/A7+1zSDn8fndtQ8tpY+Wc0OgIFs+6UXr43LhmHArHcHHPF9wJ4fBzqQpcQ4Ra5t8qhKf4W8PEO1s1kWnk8TDM+tFmlI6W25PCPFeVM3QaVr1YjvGJPOeftWD1vHoVam16fynHQ4Tis/1YvaBOvb4mwBxdgiAIgiAIgiAGNJ9bs3kbmpqb0czTK9tQ93ghrtXFxDlE/yHAqrYaPUewbdkSiwC99m9WBRKgCfnGQtT/qA51Lqm+YTEmqt00jjxfjNKVSoB+oxx1S9Qew27BgvsnYwRTiD1M1J46sx9Nv1IClHt/n9iMpoYKTOM7cD7rxZe/MgbXjNFW59XSJIy76gO0/HyzIUCHDMP4+Wuw+UeLMU3tN+mma4GuHvzVzabfCgHKUQsw6XDxrZ4FT/ULpBDjcG+j+TuRpADljBp9o/h34l0R4zecLxgClDNipOZH7MHZWGpLzp7a12IIUM65FuwK8IqZ+FsHjbm+Y6ZgchAn+xcm4Zab1Wd8gOivj6jPBEEQBEEQBEEMRj43dNhQw2PHBMuoggrU3j9GbWCc+r9WweHFmSiqHq3CjpOaILsWhUs3YMN3x6cmQD88jlNmx96Qw9hgerWKOW1wmfM4/n4mTIeEMGL6Mqx5aCJC/2kySu9n+39rEsYXLMbq9atQ+sACRAoWoOKOMRhfvAx1DasxdzTTVF8YhwWrN6D+h4sRmV+BBRZPcJyJ111YU16C0h9KkcsJjZiGivoNWFU8Bn/Brn1/Uz2WLS5G8SJ23O2bUbViB866eVrTRXgUu69lqChKoOzCX9bDWX/f+Xv1KQkuHGFCUM2cHcIErnq4h19t0hdZcieO/W8Zy02N+WYhgmhQLtQnfdMYYqAFigiCIAiCIAhicGO8J9TEsGuuVZ8Yn/0JveqjJ58dRt2KjTjyb+rvnAhWvrABFd80HScpDqP++8/h4NE/KAE8Al/iq9cK+CtXpmFa0TSM91vOd+g0LHtsHM7uWYNyLlaXrRHvFt38fJX8u6wKmzetESJ29a+O40jTGlTw1XmVsOWp/IfsnnCtFNHxHhzfsxHLSouZ+NyMg2dNXsSvLcCK+7+EP/ysEqXzZqN4MReeLTj+oWmfMztQu9P7lSd9ZsRcrHosgMc5Jxc3qp3OvXs82ACDiSM/W4MW5fQcWrQMq29Xz/hDJsy3+txfTwve0AcLxmDKN4NJUE6oYBoK9XfOHsabh1Lz4BIEQRAEQRAEcelxFaGnjmtL2jJGMgGoPnpxZEsd9msC9JoI1qxfLFdsTZlzOPdvZ3HqpFuIJ18Rthzlj5TjdpPD1o3QiIlCrLqmSaN0wTY0d7L7PixNzpV7nXq5Asuej+K4ddql5LfbUPX0Zux455Ra9IcTwtDRExGZX46KB5ig/bsNqCs2ltThczNnz54tkjEfdD/WqG0imeddtq0xtttSeZPaK9BqxjdilJZvZ97WPbmc43t2WP620/NWHdaIRY44IzD7W+Mx6q65mKjO+8FrK1H3lvsBetrelK+94YyZgsLh6nMQhkzG5CnqM+Pwvv1yxWCCIAiCIAiCIAYdnytfuwP7j3+Anp4elk7h4NYqrHzNeFHJxBnTVNhkHEc2laOYC585S7DxqOaNOoJDpndTDh3agzc21KOev5fSkqJI6Af8d/UvJzQKfzp3VP3xJfkeT0EPu0Z5zF+btLIruREhVueO+hCHf3uYpRAms7/5tvKSyXo4aOg/34jxXxvvSLcxAblArQ486mblZeQhvkUVqP+RWjhHg20fpkTnqh9vQ9POJmz70UosLp6GUb1voH5ZKYrnlWPjO5daPoVQqIe3HsebbZpoPIu3/4GJ6QeLmah1Pqmzv6pC+VpD/I0orpTzUYdOQ/kDmqo9h/1ry1H1D6cc84iH/U0l1jy+AJNHhpIIxTWYOKkQo765ABVrNqPph9MSe3wJgiAIgiAIghiQXDFr1qyL6rMD66q2B1E3ew30l6Ror+Xo2oWKss2JBaa24q36y8lZ7Cgvxzbu1BsyCgt+XI54dQV28BVph89CXeONaDaf3wR/D+Xkt+zvCTVwrLorNtpWeHXB/H5LMRfy5XMY/98nYwRf6Mf8+0TvQF3Lru0t/slYbTh+5jAOxRII0p6D2LzpIJPdDNN7XO0MDU/CRCbuBKbrMr9H1YJ5xdmhk7Fs4zJMHmKsXDvsrjpsvl95beMfoKWuEvWHTB7OXJbHXISbFrA6+Oxilv/G/Qz72gJ879G5GB9Ubb61BrPXqtWPXZ4hQRAEQRAEQRCXB58T78i084URmPzAGtuqtuMxuUD7K4Tx4+RqrLgQD756ri8jECkpxFAmQOf+qBZz429iv/ZKlBtvNL0bcgRm1WzG5s1GWnLzOZz7VH2dAiPuWmM5nnFctQNnyHh2fUqAcnJMYcrvNGNL23F8ILzJ5nQKR/5+NeqFAOWw+8iTn0IjJxqr5Xqlm42QYVxzo/s+LOkCNChfKMSs29SRzx1Efe0uHNlnrFw7bgzL7Qs9OLWnHuUlS2wCdBbWVJsFKGcoJj+2BuZXp/TwEGXuVV27A4fdXm1zusXkJV+Dig2m1++ER5AAJQiCIAiCIIjLlCsuMuL/1iPemykYMhTDvuglauI413MO8RDbx1W99p0edvxhw+KILi/Fxv8jt435zmasuWOoPDefa/nFoQgxEWR4GE3cXI6mqmno+VUVKn/xB7ntHBOEYq4m++1wtRrw/zvHzqXk8xeGsfuRH9340t21WHWHfZGlHrSsLEW9FjEchHHl2LxaC28OgNnbqnmeExHEE8ph4rOubI0xl1djSCGWNVVg4jt1KH3aOvdy6LhSrF45C6O8Hv2Fs4j+cBk2HjX96ovseA0VmGzP354olpVuNOaJmhjzAHve30o2YJcgCIIgCIIgiMGAWJgo9EUmwoap5ClAOUzE8X36SYByhnE1yATxiAnjMUx428bglilckKhz81fKKC/cqNGGf1QyFIW3y7DYP53rRs/HTHzypC8WxES0tk0ToJzP1DaP1H3uT2pHM8MwrXIVIoG8kCFc+5W5WFWZhADtb4ZORkV1qUNQjiopxmSWv6FvVGDNfJW//P2nD9QxAe0jQDlDRiCyejM2PDRZPjseVl3tIkA5w8ZjvJs+zl2AR+4gAUoQBEEQBEEQlyvCE6o+Dzx6jmDXAeD2O8ZL76Wd01HUv85now7Dl772JeTmTmLCRu352Tn0nE9PoHDoymEYqoXhuuF3Ll/PcgJ6DmPbVjUnNC+C8r+xi24XPjuLw785JTyYlrmiXsQ/wMHmXTj8QRzDvjYXcwuuNeX1ORz5hxagYFbwuZ0a/Ljv/gmTv+YdWNtzfD+O6qG6f4URX/0yRpjfW0sQBEEQBEEQxGXHwBahBEEQBEEQBEEQxGWF63tCCYIgCIIgCIIgCKI/IBFKEARBEARBEARBZAwSoQRBEARBEARBEETGIBFKEARBEARBEARBZAwSoQRBEARBEARBEETGIBFKEARBEARBEARBZAwSoQRBEARBEARBEETGIBFKEARBEARBEARBZAwSoQRBEARBEARBEETGIBFKEARBEARBEARBZAwSoQRBEARBEARBEETGIBFKEARBEARBEARBZAwSoQRBEARBEARBEETGIBFKEARBEARBEARBZAwSoQRBEARBEARBEETGIBFKEARBEARBEARBZAwSoQRBEARBEARBEETGIBFKEARBEARBEARBZAwSoQRBEARBEARBEETGIBFKEARBEARBEARBZAwSoQRBEARBEARBEETGIBFKEARBEARBEARBZAwSoQRBEARBEARBEETGIBFKEARBEARBEARBZAwSoQRBEARBEARBEETGIBFKEARBEARBEARBZAwSoQRBEARBEARBEETGIBFKEARBEARBEARBZAwSoQRBEARBEARBEETGIBFKEARBEARBEARBZIyBLULPx9Cxrw1tLHV+pLZpxLvR+etGbO3oVRsUx5vR8Eo7Yr1xtSEYna+vxdpnZYqeVBtToLt9qzrOVrR3q42pcLQJ1ew4jbvY/b/blwNJOnc1orkjBku2nIw67/mTY2h/15anBEEMCtprpmLq1Gq0q78vd7peWcjudwDf83tNWMivryZNV3egemDf70BEewYPNKFLbUqeLjQ9kOA58mfTp3MMBtpRzfKy+oD6kyAIog8MbBHa3Y71T1WhiqVXO9U2QS9an5qDxc9sRWPVOrRrmulCJxp/uB5NGyqx8J5njO0B6D4aRfR1md75UG1MgT+eblHHaUHsvNpop/cY2tq74C2T42jd0YBWdpyt66rQ0P6p2p4iF9rx6rqtWF+xEDNnrscxtRkfvmO9517WwZSUo/Lhe1Dxi5jP9Q0mpPHg3WnKTnXhK303HYQA4EYIN3qSNkbkdVz+RsxgQRmdnsZ+ou/d0cuI+ju9dGHkLWUIoxWV6RI9SZOovtnR8tGUguYPq2fLN8TUHycRe099DEjan4USO+loS1zhx3+iFcgNi2fc0F/nSYAU/gvRZMlv1X5lrNypcpPwfGy/lQ2IsRwrW12MHLU1ad5rQ/Q0UHRLvtrghD+N8OkGzE81D/o0wJCoPUr0fUDei7GaBrQ+0cfjEARBMK64yFCfBx680y3hHQhr/J/eixVTpMey+Tjb8MkxRNukAZJ1UxEKR30e+KgDUSbuONnjIpgUZh+uLsSi+/KRLbZ6ww2Syj38Uwizf7Ibj44Tm/3hntr2M0wSG3z8T+uwvpV7LrNR9MhjuMV04uvGFiDvaiagn5gpjbTssSj+QS3K8rPkDhrHGzH/u1tFp8YJF0Qw9i/VH4lwud94axVmVLeJz6G767H7kbHis+j0uFHDKFrF8vfGVlR9txptyvGafesK/GxFEbKHyL/TB+8Q56OBderpILxkO7bMY+aFuJ+TKNu6BcXXqy+1MpRbhu2b3IwQbjxV4qR2DB2+vQE3mI+VAFGGOtl5VofRuLKSmYle53RDXker53U6McqsUT/cibMyN0MJgyLU7l0Bb1PKA5WPcORTBrjQi849r6JxVxQdx7v1wZGsq/Mw9vZ7UTavAOEr1UYHcXR3RNH4UjP2H4mh9wLfFkLOhGkoLi3D7HG2uqfghvb8DbCWJTMqP0b75rsTvYyoZyzPowkpP5gRvbUMJ0p4uUoD02uxd3nSpSAAWt3m16vlnSrb4ns75v2SQTsmL8+LEBPnTK5s25+FL6Jtge/xXcuM1v70Nb/t7Zhqu/3rvSR4GfPCmq/udUM9D/0+/dr4VJ+5GXX8PL98Dd7P6H2IB/KeRycsX+55EwCtL06xnCQ8b4rtlStJlD2JX/0PQBJ9IkEQg4tBJ0LNhncgAjZgxnGT6CBN1xcEfg/3nlmMhRuUWzeLde4vs07NYgezjvO7rOPkQjsVHPfbjeaH52D9u/xzDko2bceiXPGF5fr1Trj3GBq/X46t/PxZBVixaRWKrhZ7Dwz8OkDxnU2EctR9ugso2UE6ROh7bDsXkhZj2h+rUSsNoBMPJtlRm54fP94bt3j/3lIX/IyX862ojGgj14NMhJ6JovJ7a0Voe2h0PmYX3YavXhcCPjmBN9+MorWDj5jkYHbdRjw6wSYoL8QQrSzH2rd7gasnIHL3HZjEfht//028urkVnUzN5i3Zgo3z+GiVxNdgNz0b3/0YRvm0li9rGXGSshEr0IzuFJ9x2tCuw7/uJMoLbzSj1nx8Z/1JRLDzm++lBgVszxzX+1Hnt9dDrY3tiwj1EigBxYAsU4kFlBtuv3Uvo/b7V/lmE4nW32p5q76045tn7sc30I7tVxe0cuSxT4L+vejpWuAJ/vsA+JVL7fkGwlqnZH6ms71iJLjvQFiencxn50Avx+879m3KbQRBEIOBQbswUXbRo1i1fAVWPLkKjxYpv9+4Yqx6cgWW/mAFVs1T3r5AxNGbgWmQJ180CVDkoeynrOOz2c2xV540BOiQLGRfnW0k874h03ZzuoYZ6GY6XkKDEKCMCSW4SxOgXmSNxaKfbkFZfgSrtg4wAZoq1xejbDrL2w2NrMsLyPX5TIDXMvMkhoYSKeB4R24JG7QlIQh5OJb4WxpXrU94hOdxw8MR0mamHbHOsPfvddgz58V/3yF0CC+fk/iBN9jRQgjZikZSsDzcsndvZgUoDw9/mAvQPJT85JfY/bNalM0rQsGtBSiYtQgr6nZi96ZFrCZ1oblyHdot4e88ZH+hEKB5D27B7qY6LFW/LZq3Aht/uQWLxgCdG8pRfcBe+blRuhd7TamWlR+DdjQKQ9q6D0/bl3BBG8YNhq51opcR57M9c5qZfrkRFHgIN2EgeoT7tdfIMlf09CKM9CpXrNz1W7ioTg6KRd0BTsTSfS5NONgFLquvW8v6Fg5pR9RRlqc8omEvP5eXAOVtQ4MUI3sqxXPVk2bM27dbkndoo2hzmEDhg4QOsTVlBfayez6ZsI3wg+dn0N/LfaWY4e2i+R6UGBP36deumeHlxFmH9u7djrJE/ZQvSoCK5+YlQPk+PgKUo9o8nse8OnOhZr7OFVNYmTP97Zs8RJR4vm/e5v4bPRn5EV5SYyrzGv3TXtnvN6nkOXhAEARhMGBFqFjg54UW1lVI3n1tLda+bkwM/fyH+7GuphpvXJiA/NFXyY05NyM/dBDrn3keJ3Cd3KYwFgxyS9V49W21Iztjywtu+2jJtOCQ1kmZkmzUOdxIMrZveWgsYsdNAvTnG1E8Uv2p6GVGT7kuUrMQeXondjaZ0nJu1knCpfXW77RUO9vU2bGO9rlmPXyx6K6INSz5SiZy1cdPe7vR292NruPtaGs7CbBrO/RcBRYWN6BD7TOYyb9PzpVLbh6VMmxzTyKmz3GzPldzEh0/H322bXcKN/ZcXuAm22iEvcQGO3fxpi3imLEN832MxKsQuZ11+PEo9muDDRbiaHuTmbgTIoh4nmsgEkf7c1VoZfowf0UdFnmEzYZyS1D7yASEru5G52ljFnP8wDo808a+L1qFugVhJsFthMIoWcnLBBOrz72a1Kh/ew0zXqeXuRiDATGVEWvZaMcbfCAjL+w96h87gRg39G1CixuzfBBEejS4WOJGtk1cKI9LUoMxKcMN9C3sWs4I4WIVXTJZB23syUWYcQGue67MAlTB22NeX3n+9GmupxRbMqqCPadEXhh2XXxuqqvRrgSM8AzZv9OTmwjSBB/3QvoM/og+qBajWRvR//PJpejShIu1HZSDDvI+XZ6NF7xMOgYNzuDEaXaGXNYJiYEAe9ngSQ64GOJelRdRRtR3nmWLJ7UPK02V9u/sdastytqHItwW5sd2n+/M65+5rtn/diLr5/zTZf6CTb8fmd+pDAL2ub2yIK/bbS6uENQe+UMQBOHGgBWhYoGffZ26gOp6O4roUU39MRtyyh2IMJ3Zvq7R8ABdOISGmlbEr4ug8Ca1TWEsGOSW2kRoniSOzn1u+2jJZ8EhV3px7IXFWPi8thxQHhZtqncI0O7WKtzDDETNJxN+sB5L8/viumJnbl2vOlrFkF7E2tvQtqcJDUxQV1ezvFNfdW8rx8w5czD/u5WoeqoaDTvYvbZ2IPZRDN32+9UNA+8R/KDwcBuLAeBIfT+HgBlr3BuaNNzIY2KwOFBIbUDUIhfhJYtcjE8r+culuOVC1Ktzvyq/EBNYuY3u05ecMjjfhjeZGJvw19PcDel4F9qer8DCOTOMPJ8xB4trmnHM7CAUxpCLx6Q3huizizFnhvrttJnyt5+o7xXiOTMj+VhHAxarfedUt8Ko0Ta6W/DqHlYprytBWZG7ANXIvrsOu7fWoeQmrb4w4f0r1g4gG8VzC+D56+unofjrIWT/ZS/e97wQGywfGrjY81mgJFmMOmD2JmnbeDJ5lpT3SwgtZQhy4497p8whddIrGsZo1c4IA5GH/AkB7OUd6g+8vUVegzYyWa9R5BH3Kia6fiXKioQACeqRU6gyzp8DhKAMIqaYUc4XvmHXtSgtbYQy8rVr2HoDGixlwS3xuetMHE6PCtHlK370e9SSLHO8fbEc00Vk9Af8SnlZtlyzWPwmjEgBa7F4eXctH8o7qIt7Vib4vZWcQNnTXA57DRaq37mWOzcPLGsf98TYeW7zLnOsP7SGunbhDGvfPQcPRf85H9HpyrvN/3YZQNDLfLLC3kwf2yvZNpn74ByE89g/e3h0jRmVT1ysp7OvJAjismbQhuMCN+Heh4oReXw2k3UaX8Xsx4ux6LF7kZf2xXTMaIaCMxmdkRauNBPl2wwPLtCJxgdMBj9LvKPKzrsBw9UePMQyi3UeDi/sa4arq6u1wfn9s1F2dEVvG9Y9YzckutDyTBWqahrQxAS1nE/nBTPOr85GeEIYWUmJ7hTwMEQNr3J64ILOMZKsVvsbPTKJEeaY3ZBjiRltI3Ot1+vswDnKaGWddVnAUe385dI44qG5rkI0exKmTWDSa98h4/kr4gfeRBuTqNOmWHzgkgvH0HDPfFTt6ETWlEUitH3V8jJEeJjqnvUor4p6i0QOD5e9ZyHWvv4xcqaXydD4u8P4mP+2pALRM2o/jfdeQuXSFmTPW4FVjxVj2uQJVs+8iXjHfjFAkl1UKD1JSdGBd0Q+TcJX2b14k43I2t3Y+T8fRb7Xhdg4w70irLzedmZhekf8PerAXmFQ29A9ftwQ5KF2ss3h5UMrj5V7pLeQe0V5meNGsTDY+3NulV3gpEPIqGPyeWG1vD3w9W5pSfOW8oWc2N8Jr0O151zAqHz3m2NpRop9dq505Ku4VyVOtGsQotpWJhxJCpSceVvE32WnuaD0GLxzHE96MEW4r3l7wnBKj3BcO7YBFfu8xBwmMmvYczUPsknPo1+UiAfi3vwHWLpeWS4GZoseDPq8pFfWU8TxZ6bCpY2+JYe12exZsLrrEKJccLL9+YCRtn9X+AY1aCKfmeZRlHU4yLPwpq/tVf4tvHS04g3Tb2U/Z1+NWuaTn1h3DHSI5DEIopK+5gFBEJclaReh69atQyQSEYl/ThXRoWqhTAwR6mRqjHmjNaOqCdGnFmLxC6pja63Gwqea0FjJRB4f9TehddCu6eUyk5B16ZAtKcURyUSMLMFTS9hVjClC0chuHPu13QPL0ttGZxY/2eb8/vV3lGjgoYzVaDWiExXDkaNb9FJkZmlifUg+FtVtwc6dO/HL3fw+mXHetBNb6sqcBro+Op1Jj0p/kmAOn52wi2Golc3TJ1h3zFGhlfZO+UCjMIKCeEEN+NwpPyGajUl/zVRodxT7LQta8VDcNuCmQkxyEVnx9ihaeoGxj/wc9Y8Xo4jPtZxejKU/+TmW8ovraEbL+3JfJ3G0PsMMiN4sVjeN389+qB4v/5QZeL0dWLvOJmLjvQg/9DPUlhahYFYZyrS53C58/JE8cZ5N2AfivZh8DRH7rS3goM+M5O3IpgLE9sTYs0jgpRceD6uR5QhBdQikgHP0dIPb6mmUc8GY8co9aLp3hRu7sbR6b13RBY4KzewrPP9K5IqeXDzn+7XhjmTkTS24EPJ7VtrcxCTbMyZAGvZwj1ua2kGVf6mEXJrhg2393zZ7hOPasYUhuw0s8r6Zl9vWJ7jn2ul55IN5yQsou0iWSRPB5gEbI2khuiYOvCEGNNy9e6yuKk+l6zPj/aRdiKq+0zzIkcOe+wqRfzI0WC7cxPOr788wqfbKDSaQ+RNr5VM6FDkjR7P/xxBtM4trnk9sdx5C7YG7XeUxCKKSbM8IgrhcSasI5aJz165dOH/+vEj8c1+EaMY4dcLiQYq1tft7gJiYy39oFVZxz5E9LWfiwmZbZ99a5r6vSo9OkT7Q8Nx67P7pItyQBi9ub69DgTKyMW2VVWSu0CyHC6xzuTGM7GwmTPsWBTyoSDTqLkalU5lrpTplq+HfJeeC5pahJmlDU1vspYgJZufVZOcXYiwrta0HTJ6GCx04yDTo2KJCV49jaMpS7GRlof5u+7dZmPA1bnqwMuSx2BEPl/0Vf+vPlMfwgynWgNfQTYtkaKJDxIYx6evewtOMWKCHkXXlQCyM2rPweh+nKk/6YI1P6oOXQ3hh9LIpvXliJUluvF5fgAgasFwYv3JARBje6fBOpoSaZ2lKXnNCdcHhYrCngi7KlFc10fmDJCEqhGjsh0FJMXjhdl5NRHhH4vDkLdicz8DXE5XBspK/nNcnLhylEDTaTV5++QJtSYZWe4hk/wFmZzhu+5ssdzy8e2IxKh7B4FeHWRn2j+jRniV/DsrzycpU+EX1DFLpexwEbK/c4O0Iz5POmHEdU24TeRk7bYS6dJ3h8UQqhJogCCIgaRWhe/bwXt2K27a+wA2K3c07hccuYWreHSD8LI7Wf+TdsIl3m/Ca7ytSQgh/vUCu0qmlgnyMxCE0PtNoLFw0hDXKTPTtfLJY3y9/VBY+fj+OkQXGbyeMVIb2kBBCZgFqD9Ezhea5d6bayGkIo2/iHV8OShYYv+GEsqwi0wgh7cQ/28Mn/wyQq5He4OExU6PyuneTwztspxHIjVI5QszDlAyxaZ4nlnwoGEeeSxqW3LOzghm9Lr++uhDTbmJ772lhppyinQvhsZhWkED4xXvRfboDbfta0fT8WlR+dw4W2sLmHHQeE+Gy4ZtGOxf9YVtuGsfLVSdOnJJbJNchJ+Bqy9eNVOXSRQRr4WqOpBlYrA71Tbo6FytxhoXlYxE3Lvc0JGEcq3LTZ+NeiQmx8iorm69w0aLCOPX2LgcF03mY43J2fcojyL0KPDwyLYZtaviKAFPkS7+ge2plcpuT6r7ojjNZPV9u4k4l8YwYjnm+RnIXjdZrcBUyNi9j4vzznp/rmnwHSAKG4waGXZvev5k9jzy0tYaJQ3a+lQHLrRi80AYHDJF3ckktInuY2PaqfyJKheX7fdp9q2gW7dmpZ6l5UZejRtY3MbhhF8mqTLBzcU+v3VMqp2rwZIRfmwdK9PbGdZDEfq40t1d88TP1UWtHcDqKNv13I3GDRZiqftJvVW+CIAgXBuGc0C40f28O5swJkL7XnLjT+iiK17hHh5OVpRYx6cLWF41Fgny5EEdsXwPKi2dg4VNRxJTRnJ1fhvqdW7C0IAu9zMBv3lwpFmSZcX8F1m+oRvkz7cGOnyLh3LHIW1KDRbYFmuzksP0k3TjW6e//vfyQRkZ4On/7nxtqlUaP0FlpUJtGz1XoEtpkyK1FbDLjgq+gyQ3H4J4dbkBJz4A5HMqdbOQXsLO/34Z2ZSyIUfybpqHQU/j14tgrlZgzYybmPFAhF6T6xX68/x8nIeI2h9TMhT/Kf4ckI/dY/bpSfUxAznVydesOfUVpg8/nTkPkzoiRbs2zis7rxmIs33A6Zho8SAbNI2Ekt7CwnHlBjGPDGO07hkEtX1HCru1BoHKDNP/t3iwZemhcHx/AE2KGG7aXUIimgufAg29K1nvGn2kZe/osz15M5nn5iDtNGNoFoyn11dN7aXD3NBqoOYLJoLWfrHSb5yByIVS8muUjK7fSsx8A3ZtsiLwt89RQIxeV5vqo7StelcLfBathe67qWWqrIOvCUog29/BURySMGrxsyDUGY+Rx1HcrgRrtfPakiXSH2Etne+XEGX6rFifSBme1hfa8+tFU1l0gCOLPgrSK0OnTnS2f27a0YX+PppYC28XdiNasl/PHGGNL6/GY1gOxjqmavx/Ci/MxtL9SjYUzuPhswjGTfsuZuwIr/hpivurMaTMwkxn465lRY6zAy8z/1mewbl8/ytD8pZaX8HuSNxYT1MeOo06D//KACQEXo1u+288nhEgYEsb3/l5TxvVhjOYGLBcFNi+ohBkLgcMvDQFqnw/tRU5BhF2tMhYuSIHtFYrL6X69CuUb2tE9ZjZqN6kw7ZZfYkvdUhmC5ceQz8t/L7iFffed0PhJ4MMj3a372R1Zyc4vwdLHlxrpQfvKv3n4qsiuQ/idb0QD0PkCq6P3V6Dx7VTqIjOOH2SGITOOG71CIJUB5jYfkwsrfa6YRgCDTQ5+KE+PPeTXZigLcWDyYnCvDBeiyXnjBwpOY9sr+YdA+qF5jCpTmIc4MLG3W4kFfQpzB72weYDtCxOZaX9ReY0ZjvmL16t3Pe9p8xZQ5nBr07s3hcgTQpO1p/zdobyOmK9LLRQk21jvd8F6wuogF33Gq49Y2+0SCSPai02ma1JIr+hyYDX7zityi1+/trp1wuguLwK0VzqmdRJcwm/NixPJKS2JRab7PFyfcHCWnB5dgiAuJ9IqQh977DHMmjULV155pUj8M9+WFuK9iHW0I2a2FYtWWN+RqVJ9aRADJI7Ytkqs1d5REirCvbcz42xBid7At1dXYKvp3YMGcbRWLxQeCM3zaaZrRzUqahoQ7YihV/8+hJwJRSh5rBaPPrIIdZtexopbjbl05vAcLjwE9lAc02JLXo02T8J4CjqvNDsPYzWVsu+QLsh5R9q2g3X4/aMxrNjvUyU/gyUo0uBqwA2r7R23tqooE40l7h4T4UnU58t0IcY1ut87HLUwJYbDyBehgH4LTahRdz28i5cD6W0I7ClR83f4nOauI4fQ5huK241D/0sE1GLR/3gU+bnmMO04M1wTeMXV4EXs8DGX+dNxvHuU520ebhgltyTN1RHcO51d0PtNeKktWYEYQtFds9n/u9HEyrDnry8cQ3QXq6Nn4hge9n8NjCdTFqEs15in6zD4hYHmtrCJLH/cqA5eyqURaw/t84eXK+u8RS5EB6f3LTNIj5GLELqssHsyZfIV70rk6R52t3BcIe5YvqnBFHv4tefxmcjigkOIQeHxc85fFHN7/QSYOdxaG7TThKkmNC2/l4MaXEAmjjQx0MWUaWBTew+1uGa1+Jz/QI/hFX3jFn7NrI6CXatbhIImQLk3PWUBqkjQXnHk/E7zPFHVrzleyxLDCfZzcQzXNk4hPMXu5Y0WJiKIP2/SHo7LRWc0GhWprwI0fv5T9Yk1/E/NxMKKN/C+2Va0jbJqKbF46UXHcwux8AXN88eM1hWPIf9K9nHMIjxxt3YS/jqVhVjfbjdjQ5gwWfkPh2SjYEkddj7Jm1ITQ7IQVqJz48u/xO69u7G9bgUWzcrH8HcbUXH/DEwtrkRzsiFLaScPhbcroRKPokUT5RdO4s3nqzA/Mgdr9/VzmK5tXpY1+Qk3P2QYpHgZuM0IlwaAthAE7wSlQWX1fNhWt9VCjkyr/8mBANOggRaCpo+AK0MjiVBMIZr53CORJ/brToSav/PufjS8FkXcNxQ3C5/n5R2f4lNb8e7t0EbKnd/pZE/DHTxqgO37/AHrTnFWvsXvb4pgmoyqTYEQ8h9ZhaKsOFqrFrvUQUm8uwNN615yCrkJ9+JR/tqa1ipUbIsxWWzjQi/anmH1jx026+4yzA44V9UJF4Ye83TZ8/d6x6B4gbzyapjNcm/RyjB7erySbd6ad7o0Astv8EyfP3nJ4c9ULeQyyMKWPfEdPAuIWeRxb6LebvO8MosM1mareYXBQjBZW61ElhgcUZ7Fvnij9UHdkigi6rr4sWX7eoJdqxSNPOxXCEi3uZLCe+osn3qUgVkQsrzhr5oRNonyWDojYSTy2ubjxIPGdQl4ntlCjsX1suMJkRY4isYPv/aKo83vNAtTFX6rPJ8c7W0DK6bY+kkXnKK2j5ifS1qmORAEcakYoHNCu9H8t1Mx4ztbHUZJ3Ox5TCUc95NjaHx4Jip+YTT0WdNX4bECQ92OfageZfr7BbvQXMkE8LNWr2D2hDtQ9oON2BndiVXzJljOGS5lDbQIa5SiM++6LGZSa8SkR43zURyhv5Qf8+52XznXkuZp8zfZ+Ysedd+HpW+b3zcTgLyiiOpM42h+juU5z+OTJ8TCM7jQjY8v2LxEeifQd0M24eh2Cpx4kXs/1cveHR03F6dcOHIBygUu9xTJ0VhuuOtGj21OjyYOzO/2NI/ebpkHJWwZevijmlPqs2y9jspTfXn+FPMkJ5/Py+lAW1sc4YJ8z1BcLvIK7ihi/+9G07JyNOxqQ9u+ZjQ+sRAzK5qRLRa26kbXx3JvJyEU/YDlW1Yvy7f7Uf5sE1r3taH5+XLc8zAz3IeMRdmy2T7nD0AWezbMYCrIlnVwanEF1r7Syq6TXeuuRlRXzMGMORVoeLtXzsF+yPyssxFZVY8S/s7TFxZihum3Yn52ZCaq9vQi6+tL2e+MepVWxMAFM871hU4UzFAV7wB0PGNlAHLx42ZcmUWAV3KE43ol5+CONI6Tn0dpR4a5u+Pl8RBJXfvAQLULIkpjcHhEZRtlf92UjOAI1AYFhbdVQpCdwBleVt4biRumy4E8LbxcRpH4eMd0TAOCprZavhuZ30gyQwBq/jVL0rvIkzaQZx6UtJV9Vq/K+PXb50p6hLoHwXudAdXnseM5ohHY+binWC4mpq5X9QfJRT/0BdVn2a5fXrPLoKjr3FczbqK2D/CBOM2rzZ8Ha0sdUxoIghg0DFARmo2cEeqjIjSaCYAnv63PXxQkE44b70I7Mz7nzC7H1nfVNkZWwQr8/Af5akEixZAwin/EDWz1NyP2uvQKVjzPOnrulLm+CMW35xnic8R/0Tuo2I5GNHXE0N3dbU3vd6LtuafRqE2tyB6LPGWlZ48xVsv1TOMMt9JVo/Pd92EpL1mvTu5dKNEy9nQjlj/fjvZ9rSrMMoybb/RT9QMHOeIaQ2tnRIzQOzp5IfQ0D6jZELEKUd6pWY0oFbqrj/bawyK5IaWFz/LjqHmZAeb36fOztI41ae+njdxpKBLFJPFy+SFm9Ly8KoI8HEPTuipUPcXEw/l8rNq6G/V/WyAE5LvH7cNAJrhIfLkej04fjq49Dah+qgrrd3Vh+PRHUb+zHsXpsDquLsKqpt3YUluGyIhu7H+hml0nu9Z1W9EWG478uWWo/flu7Kwtxlg1oKOTNRaLfvpLbPxBMSZcGUPLBvnb9S924ONc1p7UbsfOtRGE0/BKJIktZJt7NiyLiChPta38aQMxZ2pUGXpaGldikEcYwn0sE4FQ197HFS55eeaRKOHpReIeDE8Wr2MJjGklsh31NoMIIa4PAPBr5mJIrj6aqlcuNazhrp7RPSavkNhnepm1rKgIDmcbZA+nTXAehcgfzTO3iZVhfq7rWXvIyrAQUHzOJhMKDXtYC+T5LmTDK9Yuyry9PebwNpaHjXuUF5fIFK2MWQSeHj3wBm7j32lCV3lqNYToRQPmp+RZkxEvMv9r1fzQ+SmtQq0vjFXCV/PlAzb9WfedU0wSrpNgI+FgQ6JFi5JFhfaKgRZt+olpripBEIOLKy4y1OcBRdeOxZi/IwuRu7+N4ln5CIvQQY5m8Ks//VDhbrzxE8d7XnNBSnLursXGh5gA9TJCezuw/rsVaDZ7BsaUYctPi10M12NomFmOJveoQVey5tbjl8l4YbjBwUN9GNwICDQ6avoNFzmeBt6ZJiy+v8HyvlSBKQ8HAtwIqhQviLd3znzkWHbcznyR3/Fc8M83vh83VqwGkTynm6HEMQtQdU0qz8O5zCg7PdrxO81QFwyw/PWEG3MlDUDQcjdIsTwbO4melfbcXfNIlRO+MIrLMWQZM9dRl3IVBPWcRvvVdVf86k9AtLaGz11jxr6el+rvvuD7XDzxzzuR551lTDREUamO7dk+6O2o6Zgqr5O9KndM7Ys410nLtcv719oSVTbyEuer9XfmbdzDlrhcWX6v8sC3H9HbWuN+7M9Oz2OX+/TELa8966PJRnDdR/ve3qara/c6rqNuGf2Ko6yZrzdI+U92f4U9by0k3V6p+1Hn19qklFDnPuPbd3L82h2Xcm5+BmH5+XLvkwjicmbAilDxfkBXcWjqYHg4rlvs7Sfd6Oahs5ZGuJc1qvewBpGpRO7pfLoeZfm2MFM3LvTi2IuVKH/xGFONrDF9mTWmXj87E0XV99ei7SP1tych5E3/AZ74QVFyXhjdEPIxluyYfuNvPLAcOrAW9z8RVR5QThYitTuxNP9SeULNnbxB4HvnaPefsiHcxcrNcrxxi8diLh6GlN6Bu3ToSV3/QOF4I+Z8dyuuusw7fDejnaMJFr09cTOKOS7lTHv2rvVPr5/uhppmZAYuMw5DOSAe5Tg5WNtc04aC5WbD19ReJ4PNgPZ6Ll7I/f2ElvW6ErWNGrrRn8jA71dcjHNX/Az8YDjKfSJ4GOlKvhBcX8pRiuh10j744NaPeAsjWV9dBjBcBBCfouFbJn3rt/W6gpZBM2ltr8S1InAdS4y8Pz4txvu+rGVUr186Ls9Bz1NGyv06QRADgYErQj3pRvuLjdjPhd6Y2Vh6p3MCZHf7VjT+U5d4gf+i+0zz4i7E0LrjDG66uwA5yeqqT46h4/08TBiT+Ifx3m70eq0qG2LC2ViGNDlORrF2l1y/Nue/LUJJfoAZdx91ou3Y++LjdWMDhOp+0onoL5pxrDuLCeV7MXtcAKFOXL50H0Pr2+/jn99Yh61vxzH7J7vx6Dj1HeGPZiy5GkqaCHIxsuwIA5IvsNJ/hr0w/vZELqGwyjDKKL+svSgpiAptwMRMKuKI8MAsoBIJWIIgiMucQShCCYLIGG+vxdSlUfYhhLy5tah7aIJ1/jRBEARBEARBJAmJUIIgCIIgCIIgCCJjDNDVcQmCIAiCIAiCIIjLERKhBEEQBEEQBEEQRMYgEUoQBEEQBEEQBEFkDBKhBEEQBEEQBEEQRMYgEUoQBEEQBEEQBEFkDBKhBEEQBEEQBEEQRMYgEUoQBEEQBEEQBEFkDBKhBEEQBEEQBEEQRMYgEUoQBEEQBEEQBEFkDBKhBEEQBEEQBEEQRMYgEUoQBEEQBEEQBEFkDBKhBEEQBEEQBEEQRMYgEUoQBEEQBEEQBEFkDBKhBEEQBEEQBEEQRMYgEUoQBEEQBEEQBEFkDBKhBEEQBEEQBEEQRMYgEUoQBEEQBEEQBEFkDBKhBEEQBEEQBEEQRMYgEUoQBEEQBEEQBEFkDBKhBEEQBEEQBEEQRMYgEUoQBEEQBEEQBEFkjCE/ZKjPg5xutL9Yj5dbDuD0kK/gxivexs5DwNgv/5X63p/O19di0y8P4MDBA/jkmm8iL1t9kSTd7VtR/+pudpzT+A83jseIK9UXyXK0CdVbo+j86P/h3P+7CuGrUz2QpHNXI9rOD8eI4X+F0BC18WQUazc3W+/5k2NoP/UfMeLqkNyHGHR0vbIQ33qkGf/xttkY+0W1kSCIAUgXmh74Fsrf/QoWFoxQ2/5Mea8JC2eVo/kLMzD7q1epjQRBEMTlyoD2hPYykRTt6FV/JeKPiO1j+78eRcs/vYSKkio01JSj+kCw33cflb/l6Z0P1cYU+OPpFnWcFsTOq412eo+hrb0LcfWnkzhadzSglR1n6zp2H+2fqu0pcqEdr67bivUVCzFz5nocU5vx4TvWe+5tR3VJOSofvgcVv4j5XN9gght5U1k5UH86YPc8dSoWvtKl/k6d9pqpmPpAE7q4McX/VduDIa9D/F5tuZRwITt16kI0vac29JUD1S7HU/dc067+Dog4ls8zS/R9INJTLtKejwp53Gp2lZcZruWkH+jjedL2XN9rQ/Q0EM4dqTakiQFY3/qrLgjxys7v3ca7o7fX6m+CIAgiswxYEdrx/EzM/M5arK1qQLuXmPPi+mKsenwCMCSMnD4OqPae6YKnjD0fQ8e+NrSZUvtJTTB+ihPt1u86P+Lbe9HKxHFV5XzMmFPOBKbL0Y+/hMY29ZkROt2Etc+yvAiSXmxHt/qdRnzfr9CqPofunIax6rOFCyyd70VcOEB70fHcQtzzVCu6+fa0I4UhN1zSkXTjx83wUkZe6wupiMJUDaYwRqMB8weygcMNN09jtB2NG2IIL6lB8fVqU59gz/sFVgJzIyjwO14gY5I9lyfYsabXYsu8HLXNSvub/FxlqPH4PnN0oW1PLPF9ZxApBNzrUZCUrKGfFlS5cLseS0pCXHWFb0NZbgwNK1Opo2msH7ETYEdCpMBaVoM8J+9n8edV37raoiIPbwgrke2RLknZJQiCIDy54iJDfR5YHG/E/O9uFQZCzn1bsH3MS5jKO8OkCaNs6xabsdCNaE01juV+G8V3TkA4KyRGRSv3yG+Lnt6LFVN6cWxzJcpfPIbs22vx8x/kI0t+bcA78ZIG1gEGgx/33jOLsXBDp9yQVYTal1cg33JgZkB8dz4ajqs/k4UZA9s3FcMwB7rR/PAcrH+Xf85ByabtWJQrvrBcf3jJdmlk9B5D4/fLsZWfP6sAKzatQtHVYu+BARearBzIZ6S2aYjvTjqft7pPaPdogRsulThp/+49tn1lJVpPu5Ufd0QZ6tTynwvt+TjxoMt1uiKvo9X0/Pjx3rglwe9VfgSDlbe9rLzpz139rb7V4AbwfGZkpwQzVvcutx1RnW+045mpe9Z+814XumKs3vP7cZRjta/6y45RHvz3cx7XC3kcR7nwwNx+9BW9Lvogn9Fo1+fnh9/vfI/p+QzTjFsdTnhuWdca8oyy15/PIx31w/f6EpRR+VufdmmA1jeZb0h43e7ttPz9ctTYvlPPHubrd5YHN0Q+6u01QRAEkWkGbjjumLtQMkF+7HqxEa3JekP9OP0atu7pQHRDJRYuizo8h4ILH+NYuwxc7f51JSpeSdHoMHHyRZMARR7KfsqMPZuyjb3ypCFAh2Qh++psI5n3DZm2m9M1trmcHS+hQQhQxoQS3KUJUC+yxmLRT7egLD+CVVsHmABNleuLUTad5e2GRmYyBeT6fCbAa5lMi6GhRIY9ciPIbYRdS8KoPN2A+eJvZgRxD+wTHmFqbl5bC+2IdYa9f68xZQX27t1rSduXhNkX3Ei1bt9rFqDcOHQVMNzLww1F+29lqmX5KAxLl+9EcjH62l+U51vkEBAjcYO5PF6fgxxxP9uZSenuSeaCwHK+rWXsTg26XmmQRrZ5H5H4s2TkhQ2Dk+eF7RkaSRrWsQ3zXb5TyeR5y19uPx+7B35vfnnlkYKIXsIf5/NIPVmfR3rqh7w+WSYdZdpHFPE2iLczfl7YAVvf+gJrL7nwd7ThWjjz9ALTec7ghFuIs6rv5BElCIIYGAzgOaHZiNw7G0JSDWGdym81qTgWxU+uwiqXVDxO7pF1a5lp+6PIty0y1LHL6GwL7o6wM7kwJIziHzERpjRd5waX+aVM3Gyxdb5SAHCsImDLQ2MRO24SoD/fiGJbH9nLOtpyXaRmIfL0TuxsMqXlolsXhEvrrd9pqXa2qTPuQtNzzfrczqK7bPd6JRO56uOnvd3o7e5G1/F2tLWd5PYKDj1XgYXFDehQ+wxm8u/jxlMrGhLMW7LChCg3unJPIqYbLm7iTiYvA9QpKthz4eFyGI2wp4c1H8WbtohjciGUaL5VILjw5QKUe0A9DN32Gu4pKQvk+Q0EM/wauNFsMRJtdMZsxm8Ou3eWd8l6KNi5lnOBcJ+398MN7tUxPy+ZPASCSEpg+nGgUQxCFD3Yn16WVlTahbEjDY55o9wrJa5XePX5wI/62yT0+YCM9d60JAd8vEg0eOSWvIRKWuvHezGwlhajRwYsIUqI+YXGDob6ljS83eLlQohd68CZFoprCWc+8AarGc4QZ4IgCGJgMbBf0TKhGLVPbsQvd29B2WRNLl2Hm8depz6byBmLm1Wf0xsKo+DWfOTnF7B/JyBsXlj2fCte26VkWWg27rrV5jk0k1WAx54sUmG4vcwIqkDTGfFHEvTi2AuLsfB5bTmgPCzaVO8QoN2tVbiHdbSazA0/WI+l+T7XFoDe1vVW42xIL2J8nuoeZqg8uxbV1Y26wOzeVo6Zc+Zg/ncrUfVUNRp2RBFt7UDsoxi67V5obhQIY63vBq5ufHqmNBnRyhuaNHyggYnBYtcwwBTRRu+XLHLxRFrhHhNNiPZlBF8Y4sLAdw/B5UgvC/veJ4QtWYRXRn12koNwHvtH9x67peDzcqUHKE3zL5MVCBbUIAP3RoX9vK32lOwcZP4s7QLZntyf9UBD91w+LaS/MdBjKovugwU8BRgU8Bk8siSbp89MuuuHFFBFuG0KD2llz99vTqsmxPggl8/5B21980LdtxgMcty3nJtrp+sMr7mmgQyekpgvTBAEQWSGgS1CWac54dY8ZGmvFNHofJUJpSpr+kWnCEfVOd+GqshUzJhThVZTvG3slUZoa/6MXXIvJtiPbSNrygrUL+E9N6cTDQ8zUdTL55yYOjhTMuYKaZ3gTJRv07ybnE40PjDD8hvu5crOuwHD1R7cC5z1nstiRK9pcbWso21tcH7/bJQdXdHbhnXP2DveLrQ8w/KqpgFNr0fR2uEaiKwIifwMTwgjK52h0G54hK8ZXuX0wA1dhwchFbERcxEWzMgZmWu9Ximw7SKalZ2V0htZFjDsMn+5NLK5J0gTon7eHVkGrUaYUS6d3jNxTOHVYFf1dBpFCzMgLfPe9MELI+nfu4b08eQxf8xBO95gxyp6MMzqVxoWhFILxtyQShEUXlAmelYXI8clWsKe9HKesQWM3D2osox4eFeFB/3PmH6oH2dOsxzNvYEHnfgi2hExgMRQAtJ1QGpQ1DebONSSm0hUApQPPrh5fkUosPpsIBcDMyIYVERDulcfJgiCIPpM2kXounXrEIlEROKf+8T5GI4d73a+KuSamxG5k53DnMYx4ZZlWgq346Aw/uO9w3Gdpk17W9HwotZdFuCu2y3Bqe5cYB3YvDrUTlcTMtkxXmrtwztcvBhZgqe42B1ThKKR3Tj2a+OVMXp62+jq4yfbnN+//o6a3xpH+3PVaHVk3HDk6Ea1FJm6wB+Sj0V1W7Bz5078cjfvvHeL8N4tdWWOcGZjHuLg8LIkJkmxEXYRFtoo/ekTkM5yaaRh+m3WPFJhmkG8oAY8XM4qRHPmbbGe35HM3iF/LxBfYKSLiS5umPLPft5pYcT6eFIM41h5A6ez8qy2+M5f7XNIXz5W8HvBG2hl17e8j+HLYsVPbjC/mKwHpR1yNdFgIZs8r4X44wMxGVsgxd2DKp+Fh3fVx0PYX/CBFnMYeqrhuBIP8WNPHmI7/fVDtg++YbNM+PLBLn5MQ1QZ7YD19SKDpb55tEU2L6eM3IAoi9bFlTTUCsW2gT9tAEgPxe1TRANBEATRn6RVhHLRuWvXLpw/f14k/rlPQvRIE8q/OwczZlSh9RO1jTOyEItKF1nTrebOKI6O/0/6O82vJDm2eZ0Qppyc+xahyBym60ov2p+ZiakPv4qsh+pRNiYbEx7fgvpZX0H+Q9b5qHpazsSFTbRlW+aoOtOjU6QPNDy3Hrt/ugg3JPDOBqG31+0tn9mYtsoqMldoFgsT2zk3hpGdzYRp36KABxUyJM57bqYwhlLxrIl5Scykv8VsXBlhmsm/zoALUT6qX8QEc4KrER4QaZhL4zWxd4MvULLFbAh6eKcTLbyiGYztNez8fMXK5bfJDR7kjBzN/h/DiXS52dh9cEM7tmG5a1hhII8IM/7FvDpu4O6pTOr5izmD6rM/MgRTiBbulcqYAB0MSMFoXwn1Uobjprt++M9bVOG5QhDL6zbyQc3f5GHLJq/ooK5vNvjUg/mny1h+eQ9yCi8ob0cf5PdjIAaPzANAfYloIAiCIPqVtIrQPXu4RWXFbVtQOo8eUp+G47q/VB85b6/DnDlzrOm5DtXB8u8bsFbM+8xG8XQlQXl46y/UjMtQER6dl6hXiiO2rYIZiew3725F+QPNyPvRy6i7k/8uhPDX+XxTUyrIx0gcQuMzjWjXolyHMCODib6dTxbr++WPysLH78cxssD47YSRSvUNCSFkFqB2Y0bMl5K4L5iiddohjL6JX2cOShYYv+GEsqwi0wgh7cQ/Jz3fdfDjHxKn3vOoezc5XLA6w7G5x0aWv5OIvWeITfMKlV2vLBfCMLnFauS5pAeFex9WMAPL69fKeBWeOBlu57mASb/SJVb2FeGoaosnU24TnpuTZ4LJPMdqtS6eq5x5ZeyYqXgxOSy/ebg0N3A3bZGiRBj7iecmyzmD6o8EaGLVfa6bgVfYtW/orEhpmkudQYywU5vwUiHN7h4xjhJmHvkoowYChpkmPFd6sM5bVAMXfMBDPLsGnGSi2ncASXg5+aAUb7//9yCub04S1QnOGdaOOu5XDB6xfDB5eeU7TAfOe3oJgiAIgwE8J7QLHQeUmiu4GVmi07Zx3QREvm7qhoZ8Xv7b3cV+zbgugmljxBZhXNT/RIaWTnjkIeT7ekG5AC3HwheMlWqLHl+ECW4uwgts330NKC+egYVPRRG7IDdn55ehfucWLC3IQu/pDjRvrsTiGVMx4/4KrN9QjfJn2vVFiPqDcO5Y5C2pwaKb1AYPcth+km4c6/SbI3o5kigkTi317xE6K41EkxcmfIMwCdHmsjKqmlOmhfQFgwtQ6dFsfdPPwFPiU3sHIB+Q8DDihKHf74t0cFEQdG6ZfG1EbE+brLMJcAy+uHqumFjnAzbMqDfCH4Og5XeRsXqwECXc2OeCz0fYqedb9LRRHrwEJE+aWHUY+Tw5nk+QBYiMJEMu3Qk6DzGzyIEW/k5c80Cbtt2RPwmS9sz9wmaDprSsSu2CNZxezlvUBo648NzCRHXiASQ+KLWFtSf/dZDWt9TJX+68X7FQ0vQyFLQZ9U7Us3S9JoYgCIJIK2kVodOnO5cfddsWiO4OHGLGN2fC15hQUuIO2TnGa0bGfxtL7zKprBFhSweZ/+C3LX9njStGbdNu1LrMBc0ep+aW3j4WZ569xyRAWR+2pJ519LYXep6Pof2VaiycwcVnE46Z9FvO3BVY8ddA9KmFmDltBmY+wITni+3oNEXI9rY+g3X7+lGG5i/FxoTeXkbeWKjXsaLjqHkBpcsJJtJcQirlwhY+S/nbQuYSGvDXhzGaewQ28NF3t/f0JbOypiFARRii2++Y8JELJFXi5JJan5BETaQyo4y/nP2+kYEM0Mygrdhp9jangSmL5Ny5FwKG0oq8VCGNjjBAbuxzceklRNmzWilfsm8eYPCbt+sbthm4jKSIx5zFS7cwkfRkOgdnlIfTkUdK6OuizZosx/HK44RJCcNLhcuiQo6UyjSBgVLf0g4fUJTtq6x32mCQ1TNKEARBDBzSKkIfe+wxzJo1C1deeaVI/DPflgrxjv3q9SFh3Dw+G++fUSbQX16lXpniwnU5TAQosmbjXtb3dNvnRtpDXhV5dy7Fo3PH4tP2Y+jsNhRlzt11qHOIuThaqxeikokNzfNppmtHNSpqGhDtiKFX/z6EnAlFKHmsFo8+sgh1m17GiluNOzFG7aXwENiNRW2FRIarB0UlMRoddF5pdh7Gapp83yFoL5LhhnXbjjZ0uU0tTTe+RnHfkN6oBtzgCFXTlvfnIXHuryWQi9No80V5iCn7x3dU3XgZvCPkVnjU/BZy4kKHGb/cA6cJIr7C6lY341x5iEqiiKh5blvm2aWx2YvE7l+bD8ePz+6njX1n9vKYvUbCe+DxTPy+01OSntb8W7i534o30upFYQLmwSJmcKu667dAyZvM4Gcii4tI77mZXBApIVqjra+tIcXSpQl9TgZVhj3E20BbmEhHDbb01cvm55nWkpfnMyP1QwvH5eJShNsa+a8vKKTVY55SnEd8yetbqviWA95+urSv6XznMUEQBJFW0h6Oy0VnNBoVKVUBykVe2/9SHXVoAiaM7MTv3pZ/YlSO0fG2VmNOjSHMtI6Pk//QIoz9JIqKmTOweIff2Gwc3cejWPudGZhx/1q0mTyaY++rx8ZHJriI3hAmTFb+wyHZKFhSh51P2sbNh2QhrETnxpd/id17d2N73QosmpWP4e82ouL+GZhaXIlmTXBeMvJQqHmG41G0aC8OvXASbz5fhfmROVi7r5/DdH29FX7CzQ/p/ZMLXNhDt7hA4/OwuMHNPR5ybpbVuLGtbqu929O00IYcCDANGqjwXcMLqoRgEqJMGMrc6yTyxCvETvMQuXyvzytbDqzW8tC+n7zO2GnDF6K/pzFBSrTwikjJevI8vSjyGaYsPtRiMgnN4FukwZ9YRKp8X16g/h5sqPDywfa6Cq/FZfSybkoJ65pXaLO/5zO99WOkaYCIJzUnVBscSFFcBuZS1zcbXOAHCnsW5SAYcv59sl5Q88Bdsu/sJQiCIJJlgM4JDTFhtwqR0SHg1kkY+16HLg4tBtSFXnRrEa2fvIHqhxv1TurM+x8DZ2Pi77jdWxnvRayjFU3PVmDOtBmY8921iJ40ufyGhFFc+0vUl4719LpmT7gDZT/YiJ3RnVg1bwKyTdNFw6VbsLfll9iiRGfedVnsjjTYNWlRrx/FEVILLuXd7b5yriXN0+ZvsvMXPeq+D0vf1l5rGpC8oogyHOJofm6r9O6ePCE90Re68fEFWy7ooWJ9X/xEGHdpNrpOvMg9HpWAaxgrN7S4cOTGKBe4fARdGqDm93DaV7fVXixvfreneb7UlnlQwpZxOoo2YcAkYfSrPJ2/AdLbkWqemOaVeXoA1GDNwBEjOSiYzhTG6QY0mg1gdZ1BF1EhEqDKdNpfV6GFhSfpAQ8GEwZ8kS9W+6JttnLg5tFNdgDkkqANImkp06G/A6C+aWWGJT4XOEgUgVzMKcBKt+zYfH52eEmNtQ1MsOiUvsIw26d2Oh+YHHyLexEEQQwmBuzCRKGRBVj6s93Y/Xg+YnuadXE52vxeMM0IadmCsn9tRatpimXXKy+h6bj81ejrc9Dd0YSG6gosnDMDU2fMxMKKajS83oFum0ANT38U9c3sePmeQb+S64tQfHueIT5H/Bc9XC22oxFNHTF0d3db0/udaHvuaTRqDqjsschTTsjsMcZquZ5p3HVyZ8ZVo/Pd92Ep72q1U1By70KJNjH0dCOWP9+O9n2t6p2jYdx8o8uCTAMQbcXJ1s6IMCQcxoYQepoH1OxhtQpRPiovQ3GLcJs4hgrd1d/5aQ+/5CPoWvis9KwKgzlASJoeIqheyu4rHn1Rc706YzbvhhMpqH3mwl4CcubVSO/MEybDT3nA0nKdaX1Vg/J4p4wKi80w1jKdRpSHyvo6ojSh3qtbNJ3Vqg3z///t3Q98FPW9L/yPh9tteWWtZbkU8pgmBy4x1gi3EXoC2CA8G0FXOUQpEQloYmwwGA2NRcIhxBriJZgaQaMp1BjUBCGcaFBcC2YfMTkFciqmDwgVw4G7OfAKyovNoS4vdPtwfX6/mdnd2d3ZZBPCSvTzfr2mzs7+m5md0PnM9/f7zcCrdD7hRhTWLiB9R3xzf29qq5OZq4G1SgDX/Tut9KkXr9C10NBT+uT7ukeE045yrSVJ/26DFdjdQm2yLEc6l88REdHlcMWGUC/TxXa85muqkwalFezkZWhqakLTI/JBN5ofzUbNUfm8NoqtnPU4UFMneziK/yMcJ0Lef+uG3dEBp8uok6NJ6RO6qWkXNq/MQHIf+dNQfAp8udXdhpqi7NDbyNybh9I3/GefZusU9LNoeZlYYFuW71uX7jeKUezd50bD2/v6Kw20qezAqSfSRic32s3LDfv1qc3MZNBTq5dG6+0Nomq1U21+p75OvZ2GCK6GVRZ9AJUBUnzOU+oJc/ZqtXoafNKv75u2cLcamANOxgYo9T7v7US8J9bGk+xrG1Il+MbJYC/3vwwJalM4o9srhPSFjmjAHG81ra8T2HC048c39XY8hBEw0IzahDvyW/WEC07Gk2Ff6lPavU/DjPTcp15CvHrx5zKEW7nPtNsNlawU/+aIvyt5kWjmA7X4VHtJ/4VrjqtOvgtLEVxAGtqi/femXcjzNlU2bOmRilzZ99WombWYZH9b61O9/X+O/LdY+9vssyVJcB//wIt46v/PDPTfCyIiisRVXwva/JXJ04229Y+h9F3xfw1pJdhVZtU1bVU5t+Yhe2MnEpdsVkaEPfz8HBR47wl6QyGaXsgQMcsFe9E8VHr7PMo+mxOnw3ZPJmwpCQH3zhywLjtKf1OJtjPa47BE6J31OFY9bkVCpAMISd6TMkGGqYgGQtG9R1baegs67r2VuH+VXauASmbYKpqwPPWbqoTKk//QCkXE2y7pTmQH1lSvW4TQlXjvFnkrBG2RnvL5x7QAqi0TZD8nZZAS7Xt9j4V+rf8VRtkOOcJuxM2F1d/wWMTb7A316iP/MRvmc2SzPnFiPF53bOv3tZ/3IoH2cIiQFywWbhwfVLnvndF7lGXygkcvv1vg+wz+9gz/hrTfK3Ggf1+qgN9M+R6o32/wnep6ho9C3r+v/h2rgcedQgamiI9zVf//PiRtXxv8WxGJwH/Xv2N/b7p/f+WtWXr9W9HWXX/kBO47/b4Ymv9eEBENJVd+CNW4D9nRcY0NaYbd2Nw43O5EQqq3D6cbzne3ofEIMOW+XKR5m6cedaDRaUHq5ETEWvT9NAeXx+1C8KC8PiYzLANNvMfsqNyhjl8b+4tcLJI3Pe3LmU60HT6tzI5JjqCp7rlO2N9oxmGXWQTlxciYMJCyMBF9N6hhRfa/9p/MU/8EhlAiIqLvgiETQomIiIiIiGjou+L7hBIREREREdG3B0MoERERERERRQ1DKBEREREREUUNQygRERERERFFDUMoERERERERRQ1DKBEREREREUUNQygRERERERFFDUMoERERERERRQ1DKBEREREREUUNQygRERERERFFDUMoERERERERRQ1DKBEREREREUUNQygRERERERFFDUMoERERERERRQ1DKBEREREREUUNQygRERERERFFDUMoERERERERRQ1DKBEREREREUUNQygRERERERFFDUMoERERERERRQ1DKBEREREREUUNQygRERERERFFDUMoERERERERRQ1DKBEREREREUUNQygRERERERFFDUMoERERERERRQ1DKBEREREREUUNQygRERERERFFDUMoERERERERRQ1DKBEREREREUUNQygRERERERFFDUMoERERERERRQ1DKBEREREREUUNQygRERERERFFDUMoERERERERRQ1DKBEREREREUUNQygRERERERFFDUMoERERERERRQ1DKBEREREREUUNQygRERERERFFDUMoERERERERRQ1DKBEREREREUXNVV8L2vyV4aIHnosmmEzaYwM9f25Aw/4eMTcCUxdlYdIIdbkRT9cB7HeeF3MxGPfzSYj7gbp8sJ3/y3bUtX2mPYrBpHtyMPXH2sPe9JzEZ6Y4jI7RHg+GngOwt52HOT4OE8bFYcQPg3dmDw680wqMn4IJ40fDNExbbMC/r4FxdxbANlaZDfTlZzh6aD8+fPc/MfrhAqSP1JYb6M9v1z9im+obsE9+dKINBbeN0xYfQEP9JzD/7Hpcf8MEJI3s5cDyungU9tfFe26cgAmJYv/FiPd8eRIHWvfhwNFP4EkqQMGsQVtxIiIiIqLvlKu+cru+Pu/RHhkwxYyAPAePhOd8D052HsLJL8SDq0UA8p7AR6jn0HY8W9WAgz/KQvXv5iPOG45ONGDJylb86Oa5WPIrG0xviRCw5aR4Ig5Z1dWYH6e+zMjJxtDXHvhDDqr3q8/35Sd3V6DsjtHaozC6tqPo1w04flF7HDMVKzatwNTeguXFHhxsehbPbjsIz7QV2PTYVBFdgeN/rIa9U32JXo/zAI6rWVDw4PzZ8+J/ganLm7HiZnWpz/4qZFSIkCnE3FaGhocmKvM+Z3dgRW4djsr5eLGvnxP7WnkilH//AdOLm1E0RZkNcPDFLJTulkEfGP3LKmxcpAVAA6G/x3HYn7fjuPp070ZMRdaiSSK+GjmJ7Y8WoKFLzKatQLPYn5LHsQaZzx9Q5pN+VYd1d/QdHk9uEevYqG7z6LvE9twvt6cHO1bkoE7utJh0lL1agIm9hHfps3dKUfzGf2qPgv0E88vLYIMdpSXbEe5VUx+uQ95N2gMiIiIiom+BfzjwYg5ycsJPGz/SXtmro6jLy0RmVg6KfluFqmfE9Nsi5GSJZY9uwgFfeOrd+UMf4KB8rQidK/5wUF0oHP9TKz6T1bb9x+H+nrbwEnj+1oOes5FNrvN/194VRs8+VJXoAqh0fh/WyWW9hHsMM+G88z/QI953vm0dqhxqiDP97RO0OFpCpgPH9OulBlDpP51qWNI7+Bc1dMmK7C03BwVQoedPe9UAKiSlp4cNoJGaeLsN3pj+2ZsNaP1SexCRz/CJwfYaTv9+HOpekmR4rUa1mBr+HO4A82D/fu++iMPk/xlB9bKrARVaAJV69qxBTq74W8gtQrNTW3i+BeUPymUG0x+83wf8/bxL95sFTy6cl8fMxfNwGT6vTu7ejiEiIiIioiHoH06GK8H0izjZ/tz4bNnTZceawk04qA9pYcTdU4z58er8+T+KYLZfRo7j2NeqNXP9shXP5uVg9RvekHAS21eHCQFfnkdPTw/OX1AfSu4vxIl9z3mMu7MIRY/Mx0SZSWKnI+8x8dg35WF6rPp6afSPw7ep9ZzYjqIl69D6N/VxTFoW5o/XKr/yObHd4QN4DKYuLfBVSw+8WAb7WbEPxl6PuJ9ORbo13TdN9K1CEubKdVy1Dhvr6lAnpjVzvU/24GhbK1rbduDdP3ujWhy+919ymTodFZ+vhLed3gg6AhYc8j2vTkfFJ/Xh7NHA95w0YdwPxfIfjEbSjDi4/6R7ru0ATvYaSk0wj9RV20U4HyEe+yZ9U2LxnP8ahD+87jvhj6YBxPHywZ+1+R8An7yphtbgyRdiP2/BmpLt4qiSTIiR6zUovaYnoUD7verWzg0T+uMwd632mroC8Q4iIiIiom+nqxofmfu10oRx5FTkZE8Naeo4+obpSOqlj5/qAOp++wmuvz8Dk+JjYLp4Hsf3VGH1iwd8latwTTlDHKvDkt/swGfDRmDi/atREm9Hzm9bdBWwPmhNMfXNSANNx4rmIkzcX4W8ilblc0dMKUDF8nSMlv0K/1CMNX9UQ++IGStQvUxtJhvIg+NvlWPNKweVSqYUMyEP635rE1FCBOPfFKDhhLocpjjYlq9B3s+Nq3DnHWuQJZuLiteli9cVGLxu3zMZWNcm59R1VxuaBtuHqgwRiLVHRpTf4AfVyOp1fwZ+h2FzXF1z374FNpk2ah4t+bYxqHnw8folKPpX9feYtKwRq2d4Q6l/e+MWijCZiZDmuD1vrUDOy97AHZ7y/ikHUVqyCQe1CwpG+zrcuofjf70MoVqwPN2M1St3iKNE+wxsR0FBg/J47to1yBgjX3QA1TnV4n91+5yIiIiI6Fviqo0L535tl4mkj76B/XcSDQUF2K7lQDUoRPbpB/91E/7r5mylItn6VCaqZDUrZhymThmnBMLzx/dp1a8YjJsyFeP0KVEblKavECrDxcnGIvEarTfiiDix7SdxUiuKjb6tDFUPTQwJoJ7uVmx6qhotJ/2V39G3rUbFryZhhLeP4MWTsP92BTYd8ke9ET/Lwq8LteprgB7se+sQxt02HaPPGvcP9HzRA7XfrqzOiZCvLPVT+60ejyCE1uH6HTnY9FdtgSF1//wk7P4T4WnhODRs6V8Inbq3l88Tz8dt8wZtEdi2rka6HEDqy1asyarCARn0fzwfVZuy4O9t2kcIXRaD6vtK0RI+bfvI9xd51vjC7sCFD/ChgkOoMYZQIiIiIvq2ueqZuXO/VuLETQVoLE0PCTgDFxhCp68SJ9M/V+cj14OD9dV44a0DwD/7B7yJpCLlHRW3Z38d6v4kk+UITH0gB1NHjMaEtCS14vvlZ2h9oRhVbYENUE0/y0PV8nTE6QdV8ojXblyDasdJX39MacTPs5Az3WjgIjc+eWMz7Cf0rzYh7uYs5D1wOyYajdJ6svdAEo4awv7TH0J1FxT0QWjqbTYc/KNdrYImZaGqON1X+ZZ9g6uVpqsRhNAw+9zH44FnmClg1N3wgSw4hPornvpKZtID1ShOk5cERBAfIYN47yG0OrbBN7gQbhahdLmupvmndcio3CdmdNuiH6xJIZs+34H/oT2SQo8ldbmf7tgSBjww0f8Rk9YMmAMTEREREdG3zVUVIoTK03EkzUXRneopd8yPk/q8dUevRLg7uG0dSt/Uqow/nouqmhyM6+3zZD/DI/pKlDihnzYWpr+dh+fL8zhvivH1z/v8rdVY8aYMGPomjH76EX2DA+vcYQfxruNd7P3TARztNu7H6vODERgRNw5T5+Yh63sNvua7CrktEfRzDTUac3+3ETkjDLb35zE4/mf94Duq/9hZhR1KOgoNRlJMwhRMij/QZwg1/cAk9qXc5hik/1aEtJ8pixXBTX6v126l4q86izWckI4JP5a3VpmP0Ud2wO4Qz4kYVVXqD7NSzzsiPP7hBGLixmLqPUUoSBvtuzVLaBVb/bye5zNR7R0E6+dFaFw1HQd866TnrTb2EkLjx2HcqeP+waKCm/i+koOiN2WYnIoVTSswVTkuPTjwZgs8F+xYp4TXSw+hvdGP2uurdh5twJLV2/GZ+IkCmx4TEREREX17XPWwCKFavShQH30ZQxn3SZTNUIuXz0dSaMfKQCH9DEXYqP4JGgZQGdQ3YQypmv53XRNPhQmjf5qOrIezMAkHYX+9Adv3n4TH9/xozH92I7LGAgd/n4XS90yYeM+v8cv/bxNKdaOo9iYuswx5/+1flduxjLinGlWyWbLR9uqacur1u09omBAq90tBXCs2/et/inCYgUmx/h8l3HcEv9+7X/2v1zWf1RxYn4E1e9T54OakIb+Hkgx1t1eRhk1CUcNqfO+FAYbQn03H9OOtvgGjZKDMq1sHm3Io675rbA42PjtX/MJ++u3tP/++u7TPCaRunzdCExERERENbeHH/vSchP2pAmw6pD0eCFlJjDHhqz4KjpeN57xudNwesT05yMo/iLjbRiNOBs/H1mHj1kZszIvDwTfrUPfmAcT8shqNjWLZutXI+eVUJN08HzYRQKWJv6pG3Ut1KMuciIkiGDQ3N0c0VS8UrxdBtO71RlT0GSZkuMpAhm7yB7FWrAt6rsrofqdn96HBO/LrvsCmxhjmwfn/dzvWFKzGjkvISNdfn6TNHcDBgGPkJD45ps2KgDpRV22N2MUDaHzrJKY+5t2HVZjrHRwr/if4iTYb1tVTsWTpdMT8MEbr03sUH+zV9sPZA/hQC7sjfjYhIIAGkoEy+Hf0/nYyQAc+p07hLhAQEREREZHXVW6X++vvKX3shC/P4/ifN2Ld+lZ85q0Eak0j+24YKG8RcgifwYPPPhEn+n8+gKPe27YMG4esZ6t8t1/pjb+CFFiR8zdfHIecGhFKnN5Korei5oHHY4JJW1F/pS5I/FysyP4f+Lu+zWvnO6h6S+t7+M9FuCNRmVXFjMOUm+L82x/SbDhyRiMNh26vcUU5HH+lse/3TS9uwNQ/5Yn9om382CxU/24+4ob1vxIqRzHO+c0O8auLMHdXFeru14YM+rIFaxaoI7vip3moW2sLaJ7q/zx9JfQAquatQas45uRtWeT9MREj1qNWrIessP51E3JW2pXvGv1Lb9/gXiqhyui4E9HT40ZrxRLUyZ9WG9gIvtF2Y2Bb04C8CWJWx79+BoNAne9Bj3a7GdOIMLdv+cl8VPzWf9/UQB70/GUHnt3QoN4PV/abFcs8F02Is+bhkYXy+Oj7L42IiIiIaCj7B3WQF80PYjAurQgV93urXMLx/4iwOewIJKVNx/S0dMz/1Qqsq9mIopu15p4Xj6PhtdaAAX3665Ojn2hzcfix7j6ePid3oGjREqz4QwuOi4wVExPa/tc0Ig5J03+C45urUPWMbtICqHT0raDnNu/D59pzChlY9c/3Y3qnU/uMSP28QLtvZNC0dKB3kYzB1GVr4Lu16IkGrKmX/XY/w+eR/ch+4ydigtbHt+eTT5SAqOg8Du8vlfSL0Fv+GOo+iZPKRQ+xfnfKW+UI51uxeZtct/No2a4GUNms1na7f3xcPw8+2/8ePlTug+oVgxEjRuP227V99bkd23e3oPld7QLCyHSkBwXQPsX471/a1/1De45q90l9q0GpSK/5TQ6yMjOR81stgJrGYX65+C3L52OcyYOTjmqsyM1ExoIcFKxch+o/bEeL916rR317l4iIiIhoyDM8lR7xY10d58u/w63N9suwESKQ6sLSZyLoaLP91rUdmx1a9e6n1+N6dS7Ql26c93yGo+/YcehvwOifTETSzTbYbvLGoDjMX1ONdb+cgBEWf5hQph/6q0+mHwY9Z4nB97Tnou4HMkiJdQiefthHB1vZJ1RrIupvQqoZNg45j/v7QX725jrUHfu7vw9sn81dPfAo1cBxuP46ZQHw10P4RHv/8Y/2aQMrxWHy/+wjgv79PI7/5ShOHjkIdQirOMTNmI8sbRTlz96swqZXqnwDFsXMyvI3yxXf93dt9uS2Iiyp2IGj+uq2xpQ2F+nK7jqPfS9Wo1V7TdLcDN3tXvxixk5FulUEVGs21tSKkOidHvY3tJUj1vqWB09aFdRzpFm9+PCyCJOOFhw4Jm+zY0LM+KnIeqwKda9XIeunMYj5aRaqXq9D1VIbkmLFcfhlD07+dR9a3hHh1Xvxwte8mYiIiIho6DMMoceP+iuDiI/rsw+ex2Nc4+z5fGDNVvU83S1YU9LgG+l0UvotQdW1k2h5SYTL37eo1bJhIsjEihB6xwqsW54H2/XBgW00bL8NCg5L/SPnTFka9FzYppViXeRrjSqV+mnAVUvh6LtKFS1kekf3+wzE+Bw8fJvYLyOmoqDmeeSM15b34cDLS5A5LxNFb8my6QjEJXj37Sf45IT8bw8++USr2o2chEnB3V8D+uieRMOvs1D020bU7VdHicXI63H9CBOm358l4qh0EvY3teeGTULO/RPVeeHkW9uhjOoseQO0kWETkbVQV9mXYqYjY1ZQQP5oE3Jyc1AkjqMDfzkgpu1YIx7LZcq0XhxfZ3uUqWW9brnBVPrOZxj9s3RMHas/9rTmvT2fwL55DYrySmHvFovl9+YVYc22ffjcE4MRugGepNETbLijrzBPRERERDSE/ENB5Xa0Hv0MPT3iBLvnOPbVl2L1m/7wOGm29/YbHhx8uQCZckCceUuw6ZA/eB54fhGMPqfoFX9YGv1Pk7Rg0R8eHNpWhwPaKKcxaStQZNVO7ON+4vu8z/7Sgn3HtBLXTZMRvpXlZ7D/1iA4vOgf3Wf/i6HPy1BhJEZWTY0qlfqpr6plbz4/qFTRQqZDlx7uJ/6qDo0vrUC6rL4ZOP7HdVhRIELZNn873fOff6YbNRi4PlGrSQ87jxPHRPj8UoS3v6qLYn4+KaDSeODFTGRkZmm31tET71HuT6p7T9x85MmQ7GPCpGVFWkVTFTd2nDbokHj2x5OQtaYsfJ/jH432vVYyifUeF1ze9rh9IdNw+pv/ePf8zeB53eQ6/3dgrA1ZAfdw8eB8wOtcOC/3ZfD3an1OvZLuyMP0/v/hEBERERFdsf7h5J8aULViCXJyRODKKcK6fz3ou0+lEvp89yo8gJa3TopTaeGiCHO7tQqVwgOjz+nxBpZYGx7+pVHjx0CeE9tR9a/ekNKK7a98gnFLq1Dw89GIu2M1qpdN9YcJEVRWL7chKU4EPaXpbBySrAWoWt7bIEp/x3mX7oTfO/URMJRQcRl4TuzApp367ZX7bDSuV5qDRjZdb1Sm7W10XC85KI7vvq0euIObsn72CY6e7AkInZIpNgmTtAqfaUoBNr7aiOamRpTdJgLXXw6qAxKJX+mWm/1VS2n0f/d2RNWI7x/906m6gZpGwzZbvseD42+VYt0f9SvkwYE/rMOOE7qK+89ssMWOwNSlG1G/aTXmT7CE/u4Xe8T7CrCkUnd/V8Hzl01YUlCFVv19YqcUBY50u7UaRXckYYR3H/n2leBbNkKExCJUb9W9T0wht1OJm4t1vup4AYxr45NQ4HvNOsxl8CQiIiKib6mrFs6f+/V53bm44gdxmLrwERT8c5KugnQe+57xjqxqwkRx8l+mNWk8/tYKrKs/qtxkP4BpNJJuzULR/dMxOnwyVHj+XI0lFS3+4Ool1mXSnbfiloQR+FHcBPzkR9ryAB58fkx8v1ZF+l7sBEwdK9ZNhIWjf8jBindkEJOjsVZh6uf7lYGLAvQ2Oq4QkzAFk+K1DdDd31P2H43pq8Po38/7Qq5+dNlet9d6C6aKdOnfZT9C3I0/8TVD9nx+HEc/92+Esr3jP4lgdFz1+z9ra0DrhZ9g9HC5tAef7GyG3Tv4zU0FaCxNB7TRiE0/HIcJaVNxy/TpInyORswpO6p3qj04g50/vg/7Tsj1koNUTcJPvBswYiqykj7AkudPYsKsWzD3ZhGeRZD9u9iXeWJfKluSlIONy0Zg+1PVaDnpP5DkaMf+1t7qKLJFi9IxTu4Mue984VB3/8+0FaibdRLPVmmDAGliJkzC6KMHcFz/eTdnIe+B2zFRjkrrOY/jH9lh39GC1r/KcZ5VI36Wg9XW/0DRM+renb58Iya2FaN6v//DTfGTMDfdhsk/vx5jfxyjBHzfSLsyhK7JgBrDD6A6R44erI0OfNJ7PMkQ6g2on6N59QrlFjrB91klIiIiIhrqrvpakNU/pWmgNCwmYKCeQB6c7zkPj0m8Jib0NQGfI07wA0be7cuJBiz59XbIhqYxP7dh0kk7WmWfuQGY9EgjCr5cjZw/6PtOTsWKphWYqq9oeemCZZ8n/brX9lfAZw/m9i5rxOoZB/whdJgJI36kXT7Q3VbE9/29bIPvFiiy/+b/iUFMUB/FAW2/HCjpuflBzbGPoi5HBC0lx8XAJoLlgfodyv5QxWDiA2tQchuw41+K0XDMGwljMHX5JqzwjrzsowuhP5uO6cdb0ao145ZG37YaFb+ahBFnW7BuRTX8BWL187LOrkbRy8d9wVMxYiKyin6N+RNE4jU4RnoObQ8JulLSr+qw7o4RAbe3CRUcQo0xhBIRERHRt40yMJEyIqyvD2NvsVEGS/EagwAqBXxOfwKoNNYGW5KIBGkrUF2ch6LqRlQ/Nh+TxvfzczAJU28WISzp+sABjH46AdcbBdBLEDKSrtEUbn+OvQXp8frt1Y2Q2i9ie6cEvefa+b6RXdfcbdCuU+yboKF6FKbxOVh9r9Zs2mQQQCWT2Xg7e5sMRxhOQs6TWRgnfpOYGUXI/mUOVtyltS0W4S/n2TqU/fM4mOStTNZtRNnCiUpVPiZNBLuQABrk6qlYcr/W6NUUh/TlG7HxIRFA5e//43Ss2FiFnJ+pR0fMzernxd2RjfQfKotg+nESbI9Vo/GlMjWAhjFiwnyU1TViY3EWpnqPUxG4HxEBNIC8KODbH+GOZzlwkX+f+ZtKExERERF9uyiVUG3+G9fz14PwXDcRow1OwD3n5S0utAe98VZyvzyJA38+rjb1/EEcJtw0zt+/L9gJfxPTcXcWwDZWmTUmRzN9QR2XVd6qI+8mZTa8Xl7f85cDOD9hEuKMtjegqtwLX+W6B0fbDqmVxJhxmHJTnBp2vjyPngvqjjPFjIB6/UD3WulqsX/GxfVxAeLyOLlf7JufT1X3wcWjaHnnK0y6Y6Lhb+U5exw9PxiH0YYZtAcH6hvUCmeiDQW3AS31JzEhM3xT8J5DrfjP/2s6Jmr9Us+fOID/+N4ETIwzeEMkx0hQ9bjnzw1okE12ZXPkRSIEK0uPw/68XfzvCExdlIVJ/+coWo/IX2I0JqQlaa/xb0ufxyMRERER0RBzRYVQIiIiIiIi+nYzvE8oERERERER0eXAEEpERERERERRwxBKREREREREUcMQSkRERERERFHDEEpERERERERRwxBKREREREREUcMQSkRERERERFHDEEpERERERERRwxBKREREREREUcMQSkRERERERFHDEEpERERERERRwxBKREREREREUcMQSkRERERERFHDEEpERERERERRwxBKREREREREUcMQSkRERERERFHDEEpERERERERRwxBKREREREREUcMQSkRERERERFHDEEpERERERERRwxBKREREREREUcMQSkRERERERFHDEEpERERERERRwxBKREREREREUcMQSkRERERERFHDEEpERERERERRwxBKREREREREUcMQSkRERERERFHDEEpERERERERRwxBKREREREREUcMQSkRERERERFFz1deCNn/lunAYjt0ejLcmI8Fs0hYOXKejEV3mFNyQnIDY4M+74EZ312Ec++RjdI9bjMwJEXzfMTsqdxwWM8nIeMyGRHVplLjQ/motWs+I2VHTkXtfKizqEzoeuE90wL7HjdT7rEgYpi0mIiIiIiKKsiERQj2OUswub1PmbRXvY3mqmLkogtU5t4hXX+Fs5zGcvuBB95GP4LxwFp3tnTh7wQWX24SM53ahcILyVk03Gh9YiJoTYjatBLvKrAiImUdrsfChevEq4YZCNL2QYRDqguwtx8xVDjFjRcX7JZCrJ3XvKEZBQ6f2KLz0x5uQP1lsj0tuTxjDzLBcYxSIddszNh9bXs5ErPqET+fGecjb6lLmEx7cjM1ZCeh4cR7K9yiLeieCeHVFRshnEg2KU43IXlSD8U+9j5Jp6rFsn7UFmxfwiCMiIiL6thoCIdQDR+lsqBk0DSUlJpSXy8AXmYQlQSe02kmvU8ymTktF+952dXk/WMUJ8z2uSjQf1Rac7oD9QxlbY5FyZ4oW2GKRYGpBzRvym3onP69kWjvKZxYj7JaFCZhhQ6gvpAue/Xj63kqoW5qC5Y1VGPnSTBTvVhb0Luz3DiZtGxIr8P5Kb4TXUUL+MeTXb0bmtdqyMLq3ZmPhxr73eTjqb6E98PHA1WFH7WvNaD3ohPuiXGZCbEo6MnPykTHBrLzKR3eM9bn/jtZi3kP1kJcIQo5V8b3de2pRWWdHR5dbXWSyICE5HbmP5SLt2v63CvCcakfz1m2w7+mAU/tI9TOnIGNxLmwplsCLMnoXnGjbWoPXdnag06VdLjEnIvXuxSjMSkNs/1cnJIR2nwLaVsvjOaHX3/uStkNz+Pk5KOhYPLDj+1wn7G/Uolm/L+SFovHJsC3Ix+K0BJjCtTjwuNCxsxav7WjV/a7i345Zmch9MAPJ16iLiIiIiL6trvwQeqYZBZkbIBu7muZWYdc/vaNVHcPQTgSnJI6E+dqbcGNKCtKS/LVM1xsFmPe8/LRUEWjN/Qq0XjKo3PpBXyEuARlL0+HpUmqqwhc4/G4bnCLAmManIf36q7XlQPLc5bCN7zuEbn4uHVeHlEq78eavC1DfJWbjF6H62buQMNwCs0sXhGZVYPOYDch+VayLKREZZRWwnREn0N4QHaJbnCR3iP8VohFCA4KItkyv3yF0fEBF2qu358Kuw0Un7MUFqPxQhIVRKbDdfQemjDHBc/oDbKtzoFP8HolLNmPTggTtDYI+hIrjoLf17nxpHvIatCp1QAjthn15nvq9MqCkpSB2OPDVqQ60dXSLeGpGWskrKLP2WafXuNHxYgGKtou1GmZBygwbpv/iOoyUQffIe2jZ0a5si3nyclRX2EKabLs7NiCvqFmslQmJ0zJhu1W+9yw+fus1NHaI9TdbUfG62K9Bebxv6nF/LDiAy9/8g1sNLkpc2nZ4ucXn3yv+HXEP4Ph27ixG0TPtcCn7IgPpt9yoBPCzJz5A67sOdMim8ddmoOr3hUgJ3h9ddhQ9XIkO8bNaUmy457Yp4r1i3fdtQ+3uTrEVich/ZRMy47XXExEREX0LXfEh1Fm3UA1P4oQvo2oXCi94m74mYNELVbhrjHjG/BXsD2nVQBG4DKtpCheaH56HDUfE7LQS7HrKCpO+YtgXXZPYgOasStNfddY8yluBScTi5yqQIdZP5Q+ZvibFAXQhdEYJmh5JETO6gClOlvMTa1ATQfVSCTNpbQEh9P1lY3C462okikDed8FKty5RCKHta2WgtyJ/yTHUDKCKqQ9vgxtC3XCUzlGq8IkPbkZ1VkLgvvM4Uf9oNmqPmmF96nXxPi1xeEOoxQKLy4XYR5pQfbdRWOxE7bw8NLpFqPV4ArbD2wTdLH6718XxHJBlzjhQ+kA52txqVds2SlveC+fWPGRv7IQ5bTk2ldhCq5YX3Wh7+l6U7naHVmSP1iL7oXo4RdAsqy9BWlClzt0mAl2pCHRJ+dj8QqYS/C61Iq2nr05f0nZo3O0iUBfLQC308/j2hdekRahel2tQtfTA2VCA7Jc6YRK/3dvit/Otolv8bhnid7uYiNyXq7FobODKe07Uo+CBWnQOONATERERDQ1X9ui4F9rx2latkmjJhE3mMp2rrxEn+eJE32waiZHes0gRKsM68SYaZQAVEibcoJ4cnm5Gwbx5mBfJ9GvtxFVIWdqEpkZtWmnVllpR4l3WKAOoDHMzMVOZ/FVOe7F3mZgeaPR9po9JhF0ZYMR09WANIjQ8AZZPnsa9mWI7wk7FaD6tvT5aRGCTwTphSS4yF2zG+++/Hzo9JfevrCgaPCcmo6AxGDx71+NpEUBN1jJUBQdQyZSARavzxZqJsPr8Nq3yqTPZBpvInof/bb/S3DbEiVY4XCbY7kzTFvh1/Ltsf56AxfcFBVBplBXLcpLFTAcaHSFHTyixj58QwQ1jFqHqCYPgJg0zI+3xMmRYzDCdOKY7JrvRuE4EULEuuS+EBlDJnPY4SmaJDz1ag9o96t9fbLjfMmSqEH816oUE4+d1FwUuaTsETzfansnGHBlAkxLFFvWT+Pdo/ZMigMpWFL8zCqCSCQlZFShMMWHkmU6lKqvyoP35p0UANcFaVhUSQCXT2EV4colYKxFWN8hKLxEREdG31BUdQrt31MDhPYm75urQk3EfE8zeJ493h4Y6TccOg8CnI5vJ2u4UwSFoSvFVM3Vkc0GjECmrYErALNf6YA6exLvLUPZE8FQIX4tMixWFYlnhtJHagiAXTsN1xtXLdBoepb9jH7zbPgjb2P6qrNZakX+ZguTAedD2jkP8rwWZ89PCH3vXpiNzsgmWa9w4HZI0b8SUGSJsdLRgv0EKde5xoNtkQ/okbUGIL3D2nDYbxDJ5ihKizrr6vmpw+I1aJSCnPbgYib1d1BiWgsKmt7FpZZq/MnjUjm2yhcG0xb00ETUhVfydWMwijp/rb3iKx3Vjtdk+XNJ2CN1vrETpTifMkwux+blcjNeWR8rl2Kb8exR7Xz6svVYpLUqrjS1Vi5DszZoX2vDmbvFmSybuSQv/5thZmUgxWWA+J/5WtWVERERE3zZXbgiV1YBem/N9gU/b29C2R50+8ibBc5+iXVvmnTplH60LDry5w1eWMGROuAlTJk0JmRIjaO7Yl+QFgeGxMOK+fH5jktKQKpPHuDSkzfBOqbjOW5G55jqkimUp8UYlIh0trPrWZ4Gsqn0DtCqonmya66sSeyel+bUTNYtCnyvfq74vkAPFQa+Tk9o81Pi5mb4+nF4d+Ej57Cm4MUlZEIYFtspdaPp9IVINftLkGTYR0TrQ2hF87DnRsrsbpjvTYbT3U/5JVkddaHw0G5U75OA7Qe+PX4TN77+Pt5cGNQ8I0Yn9SnUyFbdM6+O4MNB9UPZ9BBJ/prUcCGdCIZre3oyqu3U3KPJdkDGaAi9gOE/INud+ynEQcIHn0rZDYRoP2xNb0FSZgYR+f4QHHfs6xH8tsE7rdw0VOPiRur2pN/Z+CyeLDVW7mrBpmdGtloiIiIi+HQY9hK5fvx42m02Z5PzAqE3Xeq+yueB4vhSlT6pT4yHvYhFetWXeaVunOIVtqIV6k5fwXI4NAe/zTr7PvgRjJqTBfGQ91r8opiNmpI73D0wUwlGuNY8tQK2sQim+QMfGbMx+QKzTilp0RlKxDEcLq74gO8Go1NuLaSVaU0mDvpUR60bj6uDgp5H99HTNMQ2b49bLZrDhyFvl6F6rTVtkU8cwz4V83imnMhgWxibgksaImZAOmwg87f9PmziqdU60wHHaBNsvjC8AmKyPo+J2EUPkwEjri5A9ZzZmzpmHvFW1aO5wIjiThudCt0yRlkTED1eX9EfXMfUWQ/HXDrxSLft06ve1+jt4xSIhJJW1472Qvs+Xth1S7N0lWD4jtvcwHdZZnFUScSL+cQAHRPcJ5WhCQjxHHCIiIiIa1BAqQ+eOHTtw4cIFZZLzAwuibpw9E/FZdgS60bE3TEPcMRmobmpCUyTTs5d2v0zPOa3Z67k+tu2i29dE1v/KqzHSop0+n65H0dPtYi8N0IlaFOj7gq719laNnu6tK1FzQg5GNICq0pCSjOm3i99t7wdou6AtErrb25SmuNMnagtCmJH6eBPe/sNyZKZowcntQufeemwoysac2fNQvPVw38eACNPH5H97bc5+Beh0+quee99T+k9bH9QNGPSNb0cXPlUuCJlhHmAIJiIiIiLVoIbQ3btDh241WtY3CxKUgTtSkHKDuiRUYGXMX10JrXSVTItFckpw/aNNHTQofTbmGA1CZDRlzFaaEmZ7B0saIJOvA2sYY1K0/qhpSNStdvz8J5GvNQ117y7F+raBxlCPL+Qq04DT7MB1iRP6fDnSqvY4wIkaLNQ33TRqjhvSfHaQDZM9HQdHyi2ySW4bPtjrvaTQjbbdTphun46UPgaeMo+3Ib9qC3a17MLbL1ehZIkNKcr9QV1o3yhvVdLHsTgmVu37eNETWIlV6AfO0k/ZaDylvWSwBsbqRfxY8bd74lMR86RuNL4kfu9ZFbpRioVL3Y5LNsZXAQ3tNy3vc2v0/brm4sMG62giIiIiGvqu2D6hsWOTkVpShnvitAV9+L7Z24OqC06DsVoSb0hBwoO5ykicg0oGJiUkSQ4Uhw1HLpyVfVOF2FF99PaaeA+WP7ZcTPlID7i/ZCwyV+drfco8cJQWDewk+wroE5q60vjemakrAy8gKFM/muN2nRB7f+x1l9aEVhqTrA4qIz4vsLfiAEycooTttn+XfQqFU22wnzDBdktf/Tl1RIgxj02BdcFyVNWLQFpmVSqCnS81qs2Gwxk2BrHycOv6GMd0lViVBTfpBuAyGoRL/t1IXacu7cJLb2LjZbw8Bqc4ltUKufit7wtq6H2J23HpYhGr/FvUgU+Vkqze95EwI/D708YHhs7Y65OVixrOrks+moiIiIiGvEENobNmzdLm/IyWRcIyowwlvQ9BGUDezkR1Fl94RxT1+GsmpomFWLsgzJAg8j6a+tBjOKm3khi4L+A6q86ZLqW6dG0mVj2oxa/4ROVG9/12qX1CLzM5KI2+2tzdJc/6xyNBH1rFfpAD8wRUy7yCK6na1L+BiRJxo5KD9uPjo8qCsDpfysac+4tQ+2GYkvKwVNwq/wx2v4f2i2J72uxw9tYUt6sReekzMfv58PFS3hZlmdx2TwcO93ohIhE3pcn4066rxHolwqZc7PBP9wStkyU5WWkS2/mXIwYVSJ0LDpTOnoe8Jx0hF2EcqwL3dcj9Q6fdKv62nLC/Wo6V4rmEJWsNLlBc2nZcOhNSJsmLNS449gZvoQWp9wV+f741qOH++BvV/tPtH0PtZRtOJ2rvn4Psolp0fAMtFIiIiIiiYVBD6LJlyzB37lwMHz5cmeS8XDYgZnNkfb+0e/9Vdl2nVcZc6DypnqR2vpqNeY/WoE1WIEfFIjYg/KViWVMTNj1mQ8qF91D5TGUf03vwTE5BbkUTqueKE8zJy/x9RVd6G5WmocS7rGkZAupcF47hY60Ikhh/KT1LgYQFT6Ls8Wq8/cpypI0KrLhE5AroExpeN+LHikiycaEWRNWmq5h1awSDIHXDKc/ww1xU6NfARCJ0WO/KEP/rQuP2tvB9Ly8ehn2HE+4uD0YmhD9iU2+RlzDasP9gN9rb+miKO2okxoiw6tnZgo6wA1C58cV/yf+OR2wf1xBS5ucq29bW0Ahnfwe0GnsXMmWT+L2vobGXIp7L8Q7aPC44r7GEVKh7H5hIUm/T4twtAuzYfKz13a5HbebqvSBxSdsxCCy3L4ZV/Ll1b30N/W4JP9yKu+aKN7sasa23Nx+yo7nLDedXI9HL4UREREQ0pA16c1wZOu12uzINOIBG5At8+m4lsm0LlXv/dYvQ6m1U2nFErTW4znTDdagRr+0xakpogtligdl9GB1tDth3inXudXKg7cMO/O+L4j1yYBKTWam+KpPZGwS1zzzXim0ffiEemTBylHheTN//9w/gHe2349/b4TKNUZZbfmwQIrs/0m4v045Pje4TOSwBabcnX8IALd98n9DwYhG7oERpgiuD6MyZC1FzQgSZWyIZh1cdPCZh7CCNQJqyGIUpYm85SlHU4AytBF50o+3pYjSL/We+Ox8Zvd3KJ1VW+zywv1mD1iN9NMUVgeWeu8Wv62lG6ZN2dId8sQfd765H7RFxxMlw3ldl/dpMPLkkUb34UNwMp1FJ86IHzj2V2BDShduCjIcyxLHmRO3D5WgzOB49J+pR/IxsapyCwizddoWpVscu2CzCqH5kZf8IuQGDEfkGA9Jc0nYMguGpWPaEFWaPA6UPbUC74T1cxd9WRyMqxfESLCWrUOwhtRl9/QmDlT/XhvJ/aYZb7G25z/WN9vW3LjK+LRERERHR0HHF9gkNR22aKbngaLD7KiImUwpu0k521QpSN5zaeWBvt5cYOa3Q3zcypI+kBdZHAp+7J0yLXtVpvPdMNmY/IE5QldF9U5Df2ISmlx/HV3v9N4jpfqMYBY5ElL0snqswGHFXBGf19jAb4OjzjvVuf/PjSAX3CfVNxve6DLG3XDshDrzX46Calov8sdq84Pgggm/SRlUdf4mVZj8LbGXVWJSkNrmdnVmEyq0O5QJBc10x8mxzULpbRIbJy1G9tI9+tcNSMDVNHJttbehAGqb00Vw0eWk18m8Qv25bJRbOno15DxWrFfly9XYtC59ug/vaDFQ8kopIauEJC6pQfV8y3B9uQLb4POVWL8qFDgcaX5TbMhvZMvAOS4DtibXI0DeHnVCIV0rSYHaL8JWhe+9uEbaK5onjvRad4ijOqCqDra976gbcO1Q9frq3ZqNYC42Ol/T3BlXpf89L2o5BYJ5WouwLy6lmFGfMxLyiSjTuVu9H3FxXjqJM8VsV1aDDbUHqkmos0187GWVD2QuLkCib3D4gX+d9bzNqV+VhdkYpHG4zUh6rRuEE7T2Cun/UCr6sIjtWDeaAS0RERETRN7RCqKcNNcH9yaSxIrBYY5H2f2vNYj3NKLq3AK8pffkScF1w6z8dU3yKv2+kNqWO99YYr8Z1qYHPJfZ6kn0Yjp3q+jm71NGRPKfsKL23WJxcykcJsN6updgj9Si4X5x0aoMVRexMp3LC650cz1eivs+gqvr+2HR14JS5t2K6bpvSUlOQPDEZyZOTkTDcA/fRTvV2GNK42NCQfFl5RxqVFVBtMCLZVHZ3sRZcxPRAaFCR2j+QEdSKW436iQ6UORm5L7yNTY9nImW4Ey0by5ULBBte7cDZsVbkV2xBU6UNCX328zUh7Rbt+IykeilCVOYLu7ClIh/WJDM8x9rVirxDfK8lBbZHZHPsQqREXA43IzmnGruaNmH5fSnAJ43a/XTLUfPGYXiSrVj0+CY02Tcb3kvTYi1DU30F8mcl4OzBevW9a2tg77waKfOXY1PzFhQarIwMUL7fTU6rgbW+prkliBfPyz6iSpNdOQCV7M+7VrvgoFxUCP77vbTtGAzKvhCfX7FE/O5nW1GzVn6/PCba4LSkInNJBTbbm1CxIBnmoN/ZfEOu2Fdi3een4Gpni/beDaj/8CwSZuWjor4JVXcG/oOlH2wrNk18J5z41OCfQSIiIqKh4qqvBW3+iiSboSlVkrH52PJyJtwvLUReg4gg4mRv0Z0mNIsTP5nvzHeLk/KlJtQuykO9fnRcUwaqdxVqTXXlrRxEIBRzCUu2YLOv75kIjdv9t7twn/Hen1OGIONRXPU6veukSbizDGsfSYV7RymKX2yHNyMmL92M6vniFHJnEQqe6VD7GQ5LRv7L1ciM96+b0qdxpSyhyECmNkf1bn+sy46ieZXQxlkNlFaCXWVW9cRbVpy8g+34Pi+MQxsw+9FmbZsDWbLECf2DvZZ/L4kMKQs3jkfF+7fivZDtN6LbJxrlt0xrU7YXQb+rnv+79E1BNbK6u+pYRL839c37dxv8d+bn/x1lAPU22fX9vfvICqDB7/Udoj9u1dAub2/E45SIiIiGriHXHDcxZxWWLxGBs7ECuTmP43E5Uojg/nA/Dl9MRO665QFNShMfzPT1Fe1NrMXs6yPpC2NJNqRFcKJnvkarAIlgXPjyLmx+LA2xJhNirzVrnyWb2KkBVEq4swqva7fYwPgpSFUGltHdZmKCdwNGInWp1lR2aap4JFgSkWzUZFaG2Qe1ANpfN9xkfL9OsxWPhxtReJD4+wemosRbIestMCMWmS97K2nqJEOOMuJswKA2fQm6t6S8zc6sfJ7YDxLvrXbCXRBoXysDqNrEVN9nVL5PP3CR9anvdgCV5N9IxSx1VGe1aswASkREREPbFV8JdR1tw2FZZDTHI3VyQmjIOtOO5sPxsOmb3l30wH3ODc8wMyzX6N/RCfszzcp9FWN/kYtF+rQqPqf21Va4RDRMmHAjYq8Zg+SURFgiSnUuOLZ2IGW+FZag5nfOnTVoH7cYmTeENlV0t7ehMzmtH00qVa4jYp98rj2Qhhusq6sd9XWtarPVpAwsv7O3MOlC+6u1aFWaBluQOOk6jDT6TCIiIiIiokt0xYdQIiIiIiIi+vYYcs1xiYiIiIiIaOhiCCUiIiIiIqKoYQglIiIiIiKiqGEIJSIiIiIioqhhCCUiIiIiIqKoYQglIiIiIiKiqGEIJSIiIiIioqhhCCUiIiIiIqKoYQglIiIiIiKiqGEIJSIiIiIioqhhCCUiIiIiIqKoYQglIiIiIiKiqGEIJSIiIiIioqhhCCUiIiIiIqKoYQglIiIiIiKiqGEIJSIiIiIioqhhCCUiIiIiIqKoYQglIiIiIiKiqGEIJSIiIiIioqhhCCUiIiIiIqKoYQglIiIiIiKiqLnqa0GbHzo83ejY04b9hz5F50EP0n9XBtso7bkrlKu9HrX/1q3MJ89dDtt4ZZaIiIiIiOg75YoNoR63C26P9iDEWdhX5KH2mPoodkEVqucnqA8MmIZbYB4uZk43o/jR19CpLh6AdJQ05iNFe9Qf3VuzsXCjU5m3PvU+SqYps0G60fjAQtSc0B72U8KSLdi8IFZ7REREREREdOW5YkNo+9qZKN6tPbhEvnB2qhHZi2qgRsGBsKLi/RKkKvPdaC4uwGvHlQdBQsNqv0OoxYrCR27BSPWJ8FwfYP3zDrjEbPRCqLaeiRV4f6W6NwLsLcfMVceQX78Zmddqy8LQ75eB0O/LXo+ZYWZYxqdi8cPLkDHBrC38ZqjrqTuWtOMSA/z9Qj4vEuc6YX+jFs07O9Dp0q72KPsoGbYF+ViclgDTMHVxCI8LHTtr8dqOVnR0udVlplikzMpE7oMZSL5GXUREREREZOSKDaEdL85D+R7twSVKzKpGxVxxcu9qR31dq4hQwbrFSXWHutyUiLRZibhaWR4sGRmP2ZCozPdWtQwNBP2vhJpgGRVBWLrohksLEVELoVpoGh9uO/odQscbBqjenjNaB28IjZ1sQ8oYdZnXV6c60NbRDbmnkh/Zguq7oxHWjX3TIdS5sxhFz7TDJY6xxGkZSL/lRsSagLMnPkDruw50nBEvujYDVb8vRErwIdhlR9HDlegQ2dOSYsM9t00R7/Wge9821O7uFPs3EfmvbEJmvPZ6IiIiIqIgV2wI9XOhc89hnNYeRSw2GWlJFu1BH/QV0rQS7CqzitPzvugCo6wgWUzwuFxwX5TPDUIIjV+E6mfvQp+R5PSbIhTUK+serRDqDT35S46hZgBVTP16Xo4QGnb/dtUj+/5aOE0iYNlFwApX6bvMvskQ6t5bjntXOeBOEsfXulyDqqUHzoYCZL/UCdOsCry9MtX/t+B2oDSjHG0XE5H7cjUWjQ38K/GcqEfBA7XoNIt1eV2syzdbcCYiIiKiK9QQGB23E9ueLEVpf6c3gnp+XpAVQ5fh1LGz2ddEN+VnN8Bt8Br/5IZHCZo61hI0NTahxKo9HgwiMBXMm4d5fU1aAI0aEZhqRNBLWJKLzAWb8f7774dOT8kdkYD8eoPnxBSVaq2R+EwsluHUY0frEXXRd8qFdqx/UgRQEVVLfmcUQCUTErIqUJhiwsgznej09cv2oP35p0UANcFaVhUSQCXT2EV4ckmCElY3bI/qUUlEREREQ8gQqIS2o3xmMRxydkImyu6+UVlq7GMRWBtxWM7OCuyvqK9EXhoZrmQzU13VUvsubyVOqYQ+BRSvUta6D/oKlgfOD9vh7WbXX+ZxqUiJN6jhKs1j5bpEVi3rTURVt2+4OW74SrPxa9yHmrH+hdfQfsxbyRb7Mj4FtgdLkJ+mq6Z7t+uFQpx9thiNx0RCG2VFyQslsI7yoHtPLSrrWnC4y6U0+1WaVCelYfGjy5Bxg78sGLIPw1VCPd1oe6kSNTs60C0/cJgZidZcFD6SgWRdlTGi30Rw7SzCvGc6EHvfZmzJCT+Ql6ELDhTbytFuWYRNTblak3QDLjuK7q2F+/bHUbEsFRG2RSAiIiKi75ChFULHiGAwubcqmq5v5xALofC999KFNMsdrBCqhSWn7nP82xyZ4IB4qb+L/vOMAmaAi52oXZSH+tMpWN5UBZtISK53RTB7ugO4NhWL5t+B666RfSPfQXNDO5wXzch47m0UTtDer+zHNpjNHpiSF2HpbSPx6ZGrcc9SK7pfnIeC7S6Yb7Bh8Vytn+SBN7Ft52G4IL6vUXyfdhuhiEKoux2V9xfD7hK/56x8LJ4aiy+ObMNr28XnBTV3jSyEeuBYNRvley1Y9Psm5CZpiyPVXomZxXbgdnGsPz7gI4iIiIiIaPBD6Pr167F7t5pKZs2ahWXLlinzA6cLof0RFEKV5rgXfG0LgXP7sf7XlWg7pz1OysWm/2XDyHMtKH+gBiKWAMNSUfiHxzE9oNmiCeZrzDAN6yOE/uEmtO5QarKKLz5pQZusnAmBA+eogx2NPNqGw6EjJg1I2IroJdFtb3AI7czHlpcz/f1XjSqhBpVLKVqVUM+ZTthfLMaGPSLVTSvB209ZYRZxuvHRAtQcTQ/tI3qkBvMeboRLH7q8Yf6GQjS9kOGv8nlEYLy3FPYx+YHLBfe7xZjzdDsSl27BpvnqHookhB5+fg4K3vDAWtaEkjRd2dPbr1XXdzmyEOr9/VJRYq+AVd6yqB+8FwuiNwIzEREREX1bDWqfUBlAd+zYgQsXLiiTnJfLBspzTvbBTMTSpiY09Xdakqj24fTebHS4HDzIIiYzvjpYi6Jf6QKorCz9bhES5fNjM1GmBBThYjs2/KoItQe/gll5r/r+sLeu0Btvw/LHlvumfKv/xP2Gu/zLl2uj7cpmm2kzTPjAqH9rpNM+k/iMtMsQQGUIWSkCjByMqJ/NOL8BjlUzMXNm4DQ7M08NoPGZqFqp/b5IQOZzb+P9XQaDFN1wk3qLneD+v0LCtJTAZqamVCxv2oX3gwKoZJ54k/gWcSwbfE5Y4rh78w03MDYXufoAKnn7tba9h7YL6qLIdOFT5QKCWb1nLhERERHRN2RQQ6i3AqpntCwy3Wj+tcFAPP2dnldqmoIHro5mlN8/GwuftMPpDQUWG8rqSwJG8jRPK8HrZd4g6oT9yYWYPa8AlVvb4Tynq6ZeRhZrIcqeKPNNhVZvvLHA+oh/edkTmUjWnrmcukSAyRf7KU17HOBEDRbqQ5/S9NeJmkW6ZUoz3uiQlWbbnYFT5pISVPy+CbteyQ+97YjgOdeNzvY2tO2oRWV5EbLnhK++jxkTrhLogdvlRMeeNji21qByVR7mPTCA7T7txDH5X/NZHBOf1RYwtaNbOXY78b+75H8jNQb/qN02JTQQyyqp7rfSTeV7tZcMG/wLG0RERET03TQERseV5D0zLf2YglOGC82Pzsa8og1wBJ+4e/Zj/a9EWM0MnO6X4VVfHXMdhn1jMbIzRIitu/xxyu38CPsP7PdNHzm9oxW50XXIv3z/gU6xdZdf6krjQYZSVxqMgGs0Om59vlIRDNZ1QuzLsddhMG8rGVhpVqf8BVakJlmU5qsBzrSh8v6ZmJ2xEHnFpShdX4+WDjfG3G0NG+7Nw0MDmftII4rnzcacedkoerIU5Rsb0XrSjCl3DmBwHuenanA91GhY8a5tl0+60H1W/jdSsYiNk//twKdKwtX7PhJmBIb2tPGB2xh7fbKy75xd/Uq+REREREQhBjWEyj6gwYyW9dvYXFQ3NuH135Vg2dJlvU4VLzShqbEEgXdLsSDjVxlaE8wgbhdcZ4wn70ipgdKQu+DKb5IaTbJPYvZWf4fW7i6ZcsYjQR9ar83EZhFGDQcMCq6kapM6YJEDxQbPDUpl9eJhbHigFPYuM9KWbcKW5l1KYN7VtAkVC6YaHy9GzthR+nAN2l2JyKjYjKa31c95+5UqLJ8VdhzZ8OL+UXeEL14AABuUSURBVAnsprur/SHeYDLcl2GZkDJJxmoXHHuD95wFqfcFhXZd83HF+BvV/qbtHyPo5kdBOlF7/xxkF9VCZHkiIiIiohCDGkLlIERz587F8OHDlUnOX/rARH5n924wrAzpp23hzpAn5GLZnSnIfDzXP3iLKRFpuupPyDQj0V85m1GITY9nwvpIbuigLh71HqTe7qffLd2IH2uFc+NCLYh2o223CDmzbu1lkByvbjjl7yUHdjIIWVuU/qdywJ3Q58JVVvvlSAvsMihZH0fZ3ETEXqOr/nX97z7Clp+rvUUZyCrhwVUoTE2Axez/HM/JAVSqR8VCjlvl6Tgs9lAwOcrtTMyeVwz7GW1RhCy3L4ZVrFr31tfQ1t+AONyKu+aKN7sasa23Nx+yo7nLDedXI5EQcYonIiIiou+SQW+OK0On3W5XpsEMoAEsVhTq+ktG1i/SDOtjVci/PdFf4bo2Hfm66k/I9GC6f8RXUywSb89Hyd0G0WdPudL/tHyP9njATBipNSk2nzuM/e37fdPhLm/C9cB50L98f7sTX3mbIetDVNTEInZBidIEVwbRmTPVEXStt/QdQb2D5SSMHczGuP1gMqvHgvsLBMSqiy40b6xXw6PbLfZ477zNc78Qrw3g7kDNS0rb2dDnejM8DXfNEp95oha1ewLf5+mowfq94r9jpmCKdsuXiA1PxbInrDB7HCh9aAPavQNzBZB9pxtR2RBaZ07JKkSKDMGlRag/YbBXzrWh/F+axb40I+OhwEGaZLXcW8X29TMlIiIiou+kIdInNIi7Cx/p+ktGq1/k5da5swXuVBEuDKZk34i3JiRMNH7NlAstsIf09xPkrUWUAFAONRJdBtNykT9WmxccH0TwTXvfUwb/GR//Dd3yI8mGe+Q6t1ci78lGOJQBhSpRkDkPG5zJSJQpqvss+up6aZp2l1JhdG0tRsGLzcoAQs11sv9wEZotyUrFVjbvjpwJqY+UwWoWge/JOcheq65b84sFuLdIhrxE5K8IHYk3EnLQrVdK0mA51YzijJmYV1SJxt3qoEfNdeUoypR9p2vQ4bYgdUk1lumvJYyyoeyFReLbO1H7gHyd973NqF2Vh9kZpXC4zUh5rNp/b1VB3t5FvYWMWt12rMpG4yntSSIiIiL6zhmaIdTTibaddth9U0dgs8ULbl9lS1YIwzrVgppnKlEZbnqpxaA5pIEZJUG3iLkFrUEDHRXoBjNyrA18bt6L6gi+7i5vdTN0Cl8JDZyc/6W9LGq8I6vKCqg2GJFsKru72Ff5mvlAo+F+bP9ARlArbu1X38bBFIvM56qRnxaLs3tqUP5kKcobOjEmqxpvN1bhnuvFS058jCN93QpleCpK6stgSwIOb1ebjNc4PEgt2YJdLxQiTR6CBz/uXx9Ws/jMpi0om58Cj7ZuG7Z34vspmShr3ITMSygeW6xlaLJvRsUSGxLOtqJmrdqUfcOrbXBaUpG5pAKb7U2oWJAMc9Cta8w35GJT8yYsF+t1tVP8/Sjv3YD6D88iYVY+KuqbUHVnYGsB/eBTsWniO8We+LRfO4OIiIiIvk2u+lrQ5q8w3pvri9mx+djyciawoxgFIiQg4R5UrEzHSPWFisMNxdjWpd4L1N3hQIfWXy7lMXlSHNAwEOUzw99+IyzZb3GlvizUjebiArx2XMzKELpUuaukpp/fMWsNNt/6Nbp6abF59t/WY4NDVtPkLVqW4ZZesrV5XOpluVeoJKtaCzeOR8X7t+I97zaG7Bs93e+oSViyBZvT2pC9qAaQ8wuMK6H+7yoJ7V8qq7urjonQazxqL1059L9jvDIvb/fD342IiIjou2pIhdDeGm16HMWYXR7UBNRsRcXrgfcADQiIcmCiWYm4WlluwN2Jlj2dap/AXoNWsA7UZJajRXvUpxkP4Z4P/1dAULsUSsgLE+yuFEow2W3r9XcNDKEGwb5fvwl9k2Sf0GLtlsHWp/o7si8RERERfZtcwSHUA+eH7Wp10ByP1MkJ/pFqjZxpR+2rrUrfUMv4KbjuGjPGT0tBbMibOmF/phmH5eyo6ci9r5f7OLraUV/XqjYlTcrA8jsHcLsNIiIiIiIi8rmCQygRERERERF92wzNgYmIiIiIiIhoSGIIJSIiIiIioqhhCCUiIiIiIqKoYQglIiIiIiKiqGEIJSIiIiIioqhhCCUiIiIiIqKoYQglIiIiIiKiqGEIJSIiIiIioqhhCCUiIiIiIqKoYQglIiIiIiKiqGEIJSIiIiIioqhhCCUiIiIiIqKoYQglIiIiIiKiqGEIJSIiIiIioqhhCCUiIiIiIqKoYQglIiIiIiKiqGEIJSIiIiIioqhhCCUiIiIiIqKoYQglIiIiIiKiqGEIJSIiIiIioqhhCCUiIiIiIqKoYQglIiIiIiKiqLnqa0GbH1I6d1ai+ag6nzx3OWzj1fm++N+XjIzHbEhUlqq6HbVoGzYdaZMTEGs2AecOo7HBidQlNiQM014UqQ9rMO/pFjGTiMXPVSBjjLq4X440o/zds7hx0o1InpiCRItYJyIiIiIioiFsyFZCXYfssO9Up48+1xZGwP++j+DSlqmcsL9Uj5on87DwV6/Beaoe2RkFqNleiSe2OrXX9IPnLFxnXGI6Dc9FbVk/HXbUwLGzHhueLEZth7aQaEDaUT5zJrK3dquP1s7EzLXtyjwRERERUTQN2UqoPIku3i3nTMh4bhcKJyiL++R/nxUV75cgVVkqdGzA7KJmeMRsWskulFnla+eI18olKVjeWAXbKOWVkdlbjpmrHGImAfn1m5F5rbrYWDeaiwvw2nHtocYtQqz8dslkscAcYTU2MasaFXNjtUeXQzcaH1iImsQKvL/Stwf9lG0/FsF2i0/amo2FGwcQ8jXWp95HyTTtgY7nVDuat26DfU8HnG5tocmChOQpyFicC1uKRRw5vTv8/BwUdCzGlpcz0e+9ea4T9jdq0byzA50u7VccZoZlfDJsC/KxOC0BpnC/p8eFjp21eG1HKzq6tJU3xSJlViZyH8xA8jXqov6RIbQYx5ZsweYFYr+fikXXq+rfQuA+1H7bE9rDXiQonxW0Zy660bl7G2p32NFx1H/8mkclIvn2xchfkIaE4drCEB64Ouyofa0ZrQedcCsXb0yITUlHZk4+MiaYlVcRERER0dD2LQihkYQ8P+MQ6oGjdDbK28SsOQPVzYVIlgHhjB1F99bClPU4CrNSERuUWvRNgkOc7oD9Q1l1MiFxRjoSw5w/q02JIz/xj4RhOBhMpxqRvagG48MEwP6H0PGBFwQ0vT0Xfh3c6HixAEXbRbAdZkHKDBum/+I6jBS/cfeR99Cyox2dIhmZJy9HdUX4ZtZusQ33rnLAPTa/3yHUubMYRc+0wyV/+2kZSL/lRuXYOXviA7S+60DHGfGiazNQ9ftCpAQfF13imHu4Eh0ie1pSbLjntinivWLd94lgt7tTbEUi8l/ZhMx47fURC3PhQO7H1cBa3za60P5qLVrlOhr6AoffbYNTBMSUx5pQdadFWy6IdS/+dSXaXeKoH5+KDOutuHGMbNb+KT74wA5Hh2x7EIuMqk0oDN7wi07YiwtQ+aHY8FEpsN19B6aI93pOf4BtdQ7lN0tcshmbFiRobyAiIiKioWqIhlARGleJ0LhXzkcWQr2BsftDOzpOyyWxSLkzBbGjpiM39WMUPFQvTtMj460c+QPtwKmfFXzi7z/RF3EJydbpvVSPQsX+IheLUnXhYJCp221F/pJjqBlAFVMfkgc7hDq35iF7YyfMacuxqcQWcuFAVuranr4XpbvdYcO6u30D8oqb1eOhnyHUF16TFqF6Xa5B1dIDZ0MBsl/qhGlWBd4WgdC3im4HSjPK0XYxEbkvV2PR2MCV95yoR8EDteg0W1HxutgnMsf5Ku6XLpKLF979i6R8bH4h0x/i3e0ov7cYDnciFj1XhVyDqqVv/U1i/ZvF+vuOaTccpXOUi0CJD25GdVZCYJXa40T9o9moPWoWfy+vi987zBUdIiIiIhoSrtgQ6mqvR+2/hYuFX6Bzd5tSHemr0ijD5vScRcDGMIFxbAYyftSM5n70uRz8EKo98Dq0AXMebRan5kLKcjRV2XD5ImU/aeEPvQWWb6oSqi1zjlmETfW5SAzX3PViBzZkluLw5Mfx5Mo0f8D0dKPt+ZUo3SmCdVIiEo52wtmfEHpBBLEMEcQ8qSh5uwLWsMekC81F96IRi7GqYhGSlcTlEceTbP4tjomyJpSkGb9Z3SdOxN63GVty+lMV7KMJdQR8AVuEyLKmEvhX0bvuHqSWvI2K8BsO1xtFuPcNYPG/VGDRDWrU9IjPnSODtLUMTSVpMHy37rfd/HouWA8lIiIiGrqu2IGJvjrR4ht4KHTyBlDJg849Rq/xTi1wXhBR9RoLLKMC+1Wa5eOuwACatrIJTU1yqsYib5PH+EWoVpap07LJ2nIf2bT3fbyvmzY/6D1NTsHypsDn3n/Kqj1n4KIT9c9qAVScjmfkjMS2zHmYF+n0okGalqFw5kwxleNSh6Jpf1UEAbG9+Zezue8AHX6jVqyb+A0fXBw+gErDUlDY9DY26QOo0P2GGkDNkwux+blcRDjgso/LsU0EUIiAmN9LAJUsyKjahS1V3gAqXGjDm7L/sSUT94QJoFLsrEykmMRxe+500MBafYlFgn4o6P5yt2H9kyKAimPS+sQyXQAVXC3YJtddBMT83jcclrursKu+yhdA5d9v2zsO8b8WZM4PE0Cla9OROdkEyzVunO7fhhMRERHRFeY7c5/QlKUiQDY2ocSX/6woeXkpkoNGrjWZRVi1qNPV3iAz7GrfMjnJu7f0zoNjR7zNVGMxsh9lTOf2p1Cr9Q01WR9H7gTgrDLKboTTOV86H3ynGlETVPmV1WA14OompXmoEzWLQp9Tm1AHc6A46HVyUgcsMn5upqyKqW/WdGL/HrntqbhlWp8/kDHTeNie2IKmygwk9PsjPOjYJy8AWGCdNoA63cGP1AsEqTcG3DYohMWGql1N2LQsVVcdV0e+DdlHypSNxlPay6ROZ0Czc1lZ7fPixEUnGn9TqgTshAerQ5rDejpaoWy5bDauLuqHDnykHBNTcGOSsiAMC2yVu9D0+0JcxpbmRERERBQFgx5C169fD5vNpkxyfqBiF2wOrB7qp9fzA07UZV82w9cpU/gmoe72D0JOvh2rvCfvuoGCTtRgoe+kPoJqorsN73nDVnwsxkR6i5auejwh+9spErD4PlkZsuCmO8X+DDNZbwgMBOZrDGpJ00q0fWHQrDVi3WhcHRz8NLLJqn6fK5Ve2VdXt6w+v5eAElpJltOWJfIdxs+Ffp4L3bJCZklEfD/6z+rF3l2C5TNiA/sjRuwszirpLhH/2O9Bg8TePXFY+W9C/ADerAn5OwiquMePDf4FutG2W/yiY8WsPqgGkRdGauQAXEn5eNJgYKCzZ5RO1kgM+fwInHJC2XLx3oFvORERERENJYMaQmXo3LFjBy5cuKBMcv5SgmhYxz+FN6pJzjY5Emn/mWfchQyTGdYlmQOo4IR3uG69P6h21SL70VocPqc9DkcO7PKw2pzUS72FRyJsjy3H8uBpWT5s13aj/Yh2Cw8RVtMe34Kmpcna48HVvXWlCOVyMKLB3FODSISZY/K/11wdvknnZdWFT5WLFmaYBxiCo+LEp2JNNafaYBfrnDArF6lhLtR42itRIC+MyH6gv9MNRKTTdUI9as3DB1iBJiIiIqLvlEENobt3h47SY7Ts0njg+GPQaKBHGvFmuFul9GZYCmxlZViWNlJbEEmf0GVI0RYbkYO3FL/hDYaaI/UomFeAWl9gDNaN5hVyZFHtYZ86UX//HBEOOtS+o/E2lDU2oez2gVbx+tYlwkp+fQnStMcBAirFYjJqjhvSfHaQjYlV+3Be9IgjJFi45qpBTVUvyRhfBdQTUvmWgwIZfb+uefKwyx/gYuPlHjoGp7bNSv/esflYG65/r7sdT5fbjfuB6oyJ1y5MGFT81ea+Btu+VrtMI0ItoysRERHRd8vQ6xN6xo435f08JbNZq3p1o/5VOWhK/yWmpgRUzvruE2oOe9LscpSqo4dqj1Me24LNj2mff/Ew6h++F0VvOA1CUixivQVGfaXJ1Y76ZypRGTLVwO4NT8MSkDYR2P+q7vmd+jrx4EhdadysOXWlrvlnQDPQyJrjKlW0sdddelPMYWMQK/sKdn2MYxfURX6hTZpTxmhPDRrxG8bJ/3bgU6Ukq/d9JMwI/P608YFHUez1ycpx5ezy1SkHX8J14jdw4lN5NUBeLJEj8T4YbuRfF+yl6oURo36gerFj1J3ZcTT0uPv+2PSA7bbNSAz8+xmTrA7OJI6Dy7jlRERERHQFGdQQOmvWLG3Oz2jZwIkT47Ub1D5kQnJONZZ5S3PipLo88lJiWAPrE+rB/hfnYV55my+AmmdVoOzOWCTcWYXXy7y3WHGj4/kibPi30MbDKZNSgRvysfkJXT++L5xoMRzxt0PEbs1FJ9qCnz8U3eFD5eBE2Vv9w910d8kUNh4J+tB6bSY2izAacjsaKbiSqk39G5goETelyTTTjg/2Bsf80CbN94jgPrhM4jeUTaFdcOwNrvlakHpf4PfnW4Oi3/gb1f667R8HNDUP1Yna++cgu6gWHUGHu3PjwsB9pFSkda5Ng22s2KMfiL8V+Zw4Rg1/D8G5tRiVcrShMP1A9UwTp0DZckdrSLXbkrooYLuXP5geFHoTcaOy4fvxcR+tGTpfysac+4tQ++Gl/50TERER0TdnUEPosmXLMHfuXAwfPlyZ5LxcNjjkTf61E2PJZMXi2xNgzVrkO6ltLy9C/YnQOqOx03ivrhxF4qS2OfjMud9MmHJfGRZpo3vG3i2C58pUX4XVnLYcr1RliPU0I+WxKiz/RejwnqbUErz9XFCfu2EmjBllUW4tEzgF1G5Dn78msMp2eXUjfqxVCUBqENUGu5l1awSDIHXDKROXCEMBlVRt6t/ARCLIz1fvH9nW0AhnpINBDSLL7YthFbu+e+traOtvThpuxV1zxZtdjdjW25sP2dHc5Ybzq5FICCpO9jUwkazWKrdp2e0Q0V7sV939QpVRjr1NZI/WYmUf/UADjLJh8Syx7qcb8Vq/N9wE610Z4n9daNzuv4gT4uJh2Hc44e7yYGTwhhMRERHRkDLozXFl6LTb7co0eAFUVhCzkf2St0YkTlxLliFVDgCTlItVd3tPSjtR+0A2NrSHnsq6jjjQ+GIxanzFocNwvOpAR5croHnsgPuEmpOR+zsRMMuasOWRwCa+kjmlEJuaX0fVnWGqSrJpcfDJflwGKhrFd4ZMJSJCaMbmojr4+aW99VodbLGIXVCiBB61EqdWkK239B1BvYP5JIwdpHFRr83Ek0tEyjpRi4LiZjiNrkdc9MC5pxIbBrursjQ8FcuesMLscaD0oQ1oNxyMygNXRyMqG0KvfKRkFYpjywNHaZiLKefaUP4v8h6yZmQ8lKFV16VUlIjQuTm4b6cyKnJgM2rvCLkJS3J1Fwm0iwGSHCDrN/ViSe/9QAOZkPpIGaxmue55hn9/ksfVgcb1r4X2DU5ZjEJxyHocpSgS+yVkyy+60fZ0MZrFx5rvzkfGKG255LsHri5EExEREdEV7crvE3ruMGofnoOiN/zNPc2z5GBC/rPj5KXVyPfdY7AbzcVzkP1MG7p9Z7Mu7H+pHDXb20MrZMPM2ii0qkvpEyqSJmxp4W9iaHj7lGjwnahHcHuZgZqWi3x5qw+N44MIvmnve5DXBMbHG/dKHIiEBVWovi8Z7g83IHv2bOStqkXznja07VEvQuTZZiP7STu6hyXA9sRaZIQZFXagzCL4vVKSBsupZhRnzMS8oko07pbf34ZmWXnPnC2W1aDDbUHqkmos02f1UTaUvbAIicrFFPk673ubUbsqD7MzSuFwy2p6NQonaO8JSz8YkzYAkzgO1CbOsulubcixIC8GHK6T3yEeWBLw/X01un7IBpO+77FZBOGXS5BmUf/+ZmYWoXKrQ9nuth21KC+ah9nzilDzoRuW1HxUL9VvuAW2smqlJYFscjtb997mOvmbzUHpbhG9Jy8X79ON/nyqEdmrHLA+pVXGdxcHNAsnIiIioivTVV8L2vyVxdON9oYNePrVwNuvmNPESf4TVliCq4aygnNv0AizwyxIuTsXhffZ4K6bjYI3ZCo1wZIkwuLtd2H6tBQkjhKRUp7MevsYyhCq3WLDfcZbJZVNXv0BMv3xJuRPVpswysFd1CajvdyD0+OGy+2v7zi3F6BIO1mWJ9AB/fJkYFT68smBfcLc4/R0IwrurdHur5iPLS+HG1xG4/vMPtYzAnK004Ubx+s+R4786u0/q60zdPtTCrOO6v4Lv06h36Wj/Wbjg/efxuPqRIsIP807O9Dp0vb9MDMSJqYi7dZ7cJc1EZawVxMkGeLE8RTJ/jVywYn2HY3Y9m4rOrq8B6V67KXPuAu2ualICHcrl3OdsDfUoNFxGE7vupssSJxxD3Lvy0DqtQYr7vuNvYL2q/a8bLK7Oa1N/X2826bbl7d+4D2mIyCbUeua9CpkpfnDZjRus6P1oBNu7aKPyZKIFGs67rpTrH98mB1/0Y3O3a+hZmsLDvtaKMh9loZ7cnKRkRo0+rOyTce0vxPtOEw0WCciIiIiuqJcsSG0e3seFr6oq7QIsXdXYNPS1NBmq17uDmx4qAjN+ttuJOVj8wvyRLsDhy8mIjk+sPKp0IfQCHiDY8Qh9Ggt5j1UHxCmVQZBM0wIbX9afNe76nwAaxneLzG8ccpl4Q+Gt+I9GdLkQqMw4qMPqSp9EIKcD3OLkF5DaEAA0ZZ9B6n7SBy5vfwG3uNU2e/avva9z6eXix5XKv2FiAR1vrfjiYiIiIiuDFduJRRucfJ8rzh5dkPehiTzqWrkp0bQnPWiG4dfLUbBq4cBswiHr4sA09fbdCE0eUEZ7vE17TU2JjkNiaP6EUIvtqM8XQtsOrHzq7F5qXprDp8wIdS1swjznvGOyuRlga3idSxP7bWkd0VSQtBuW69VxsAQqlUmtecUvYZfktR9KO/xahAwfcdaYEAdUnTbwOOBiIiIaGi4gkOocNEJx/Yu3HB3GmL7m7POHUbH6USkJEXwRnk/zrpWyAayyXOXwybv6R+Bzp2VaFZuK5GMjMdskAOPGpNNFNvha5V5TTySE2NhMRus2zE7KnfIhraxmJ6zCKneLqZnOtF2+LT2QBg+BskTE31Nh4mIiIiIiIaCKzuEEhERERER0bfKlT86LhEREREREX1rMIQSERERERFR1DCEEhERERERUdQwhBIREREREVHUMIQSERERERFR1DCEEhERERERUdQwhBIREREREVHUMIQSERERERFR1DCEEhERERERUdQwhBIREREREVHUMIQSERERERFRlAD/P46z8kVYVPw1AAAAAElFTkSuQmCC;" vertex="1" parent="1">
          <mxGeometry x="680" y="550" width="339" height="180.26" as="geometry" />
        </mxCell>
      </root>
    </mxGraphModel>
  </diagram>
  <diagram name="classLoader" id="R8cGT8hkZ7o-OK4fZ-Oi">
    <mxGraphModel dx="2090" dy="930" grid="0" gridSize="10" guides="1" tooltips="1" connect="1" arrows="1" fold="1" page="0" pageScale="1" pageWidth="827" pageHeight="1169" math="0" shadow="0">
      <root>
        <mxCell id="GsZoiAZXHSTvwdv67YSQ-0" />
        <mxCell id="GsZoiAZXHSTvwdv67YSQ-1" parent="GsZoiAZXHSTvwdv67YSQ-0" />
        <mxCell id="VK3PM9mJWWv9Rj8pV5F4-1" value="" style="rounded=0;whiteSpace=wrap;html=1;" parent="GsZoiAZXHSTvwdv67YSQ-1" vertex="1">
          <mxGeometry x="-188" y="-48" width="195" height="273" as="geometry" />
        </mxCell>
        <mxCell id="VK3PM9mJWWv9Rj8pV5F4-2" value="加载$JAVA_HOME/jre/lib目录中或者-Xbootclasspath选项指定目录中的类库" style="rounded=0;whiteSpace=wrap;html=1;" parent="GsZoiAZXHSTvwdv67YSQ-1" vertex="1">
          <mxGeometry x="52" y="-27.5" width="210" height="47" as="geometry" />
        </mxCell>
        <mxCell id="VK3PM9mJWWv9Rj8pV5F4-16" style="edgeStyle=orthogonalEdgeStyle;rounded=0;orthogonalLoop=1;jettySize=auto;html=1;entryX=0;entryY=0.5;entryDx=0;entryDy=0;" parent="GsZoiAZXHSTvwdv67YSQ-1" source="VK3PM9mJWWv9Rj8pV5F4-3" target="VK3PM9mJWWv9Rj8pV5F4-13" edge="1">
          <mxGeometry relative="1" as="geometry" />
        </mxCell>
        <mxCell id="VK3PM9mJWWv9Rj8pV5F4-3" value="ExtClassLoader" style="rounded=0;whiteSpace=wrap;html=1;" parent="GsZoiAZXHSTvwdv67YSQ-1" vertex="1">
          <mxGeometry x="-150.5" y="31" width="120" height="40" as="geometry" />
        </mxCell>
        <mxCell id="VK3PM9mJWWv9Rj8pV5F4-10" style="edgeStyle=orthogonalEdgeStyle;rounded=0;orthogonalLoop=1;jettySize=auto;html=1;" parent="GsZoiAZXHSTvwdv67YSQ-1" source="VK3PM9mJWWv9Rj8pV5F4-4" target="VK3PM9mJWWv9Rj8pV5F4-1" edge="1">
          <mxGeometry relative="1" as="geometry" />
        </mxCell>
        <mxCell id="VK3PM9mJWWv9Rj8pV5F4-4" value="Class" style="rounded=0;whiteSpace=wrap;html=1;" parent="GsZoiAZXHSTvwdv67YSQ-1" vertex="1">
          <mxGeometry x="-251" y="254" width="58" height="40" as="geometry" />
        </mxCell>
        <mxCell id="VK3PM9mJWWv9Rj8pV5F4-18" style="edgeStyle=orthogonalEdgeStyle;rounded=0;orthogonalLoop=1;jettySize=auto;html=1;" parent="GsZoiAZXHSTvwdv67YSQ-1" source="VK3PM9mJWWv9Rj8pV5F4-5" target="VK3PM9mJWWv9Rj8pV5F4-14" edge="1">
          <mxGeometry relative="1" as="geometry" />
        </mxCell>
        <mxCell id="VK3PM9mJWWv9Rj8pV5F4-5" value="Custom ClassLoader" style="rounded=0;whiteSpace=wrap;html=1;" parent="GsZoiAZXHSTvwdv67YSQ-1" vertex="1">
          <mxGeometry x="-150.5" y="161" width="120" height="40" as="geometry" />
        </mxCell>
        <mxCell id="VK3PM9mJWWv9Rj8pV5F4-7" value="" style="endArrow=block;startArrow=none;endFill=0;startFill=0;endSize=8;html=1;verticalAlign=bottom;dashed=1;labelBackgroundColor=none;rounded=0;entryX=0.21;entryY=0.017;entryDx=0;entryDy=0;entryPerimeter=0;" parent="GsZoiAZXHSTvwdv67YSQ-1" edge="1">
          <mxGeometry width="160" relative="1" as="geometry">
            <mxPoint x="-174" y="253" as="sourcePoint" />
            <mxPoint x="-173.72000000000003" y="-62.48900000000003" as="targetPoint" />
          </mxGeometry>
        </mxCell>
        <mxCell id="VK3PM9mJWWv9Rj8pV5F4-8" value="" style="html=1;verticalAlign=bottom;labelBackgroundColor=none;endArrow=block;endFill=1;rounded=0;exitX=0.488;exitY=0.015;exitDx=0;exitDy=0;exitPerimeter=0;entryX=0.884;entryY=1.062;entryDx=0;entryDy=0;entryPerimeter=0;" parent="GsZoiAZXHSTvwdv67YSQ-1" target="VK3PM9mJWWv9Rj8pV5F4-1" edge="1">
          <mxGeometry width="160" relative="1" as="geometry">
            <mxPoint x="-15.816000000000031" y="-63.254999999999995" as="sourcePoint" />
            <mxPoint x="127" y="-5" as="targetPoint" />
          </mxGeometry>
        </mxCell>
        <mxCell id="VK3PM9mJWWv9Rj8pV5F4-17" style="edgeStyle=orthogonalEdgeStyle;rounded=0;orthogonalLoop=1;jettySize=auto;html=1;entryX=0;entryY=0.5;entryDx=0;entryDy=0;" parent="GsZoiAZXHSTvwdv67YSQ-1" source="VK3PM9mJWWv9Rj8pV5F4-9" target="VK3PM9mJWWv9Rj8pV5F4-15" edge="1">
          <mxGeometry relative="1" as="geometry" />
        </mxCell>
        <mxCell id="VK3PM9mJWWv9Rj8pV5F4-9" value="AppClassLoader" style="rounded=0;whiteSpace=wrap;html=1;" parent="GsZoiAZXHSTvwdv67YSQ-1" vertex="1">
          <mxGeometry x="-150.5" y="96" width="120" height="40" as="geometry" />
        </mxCell>
        <mxCell id="VK3PM9mJWWv9Rj8pV5F4-12" style="edgeStyle=orthogonalEdgeStyle;rounded=0;orthogonalLoop=1;jettySize=auto;html=1;entryX=0;entryY=0.5;entryDx=0;entryDy=0;" parent="GsZoiAZXHSTvwdv67YSQ-1" source="VK3PM9mJWWv9Rj8pV5F4-11" target="VK3PM9mJWWv9Rj8pV5F4-2" edge="1">
          <mxGeometry relative="1" as="geometry" />
        </mxCell>
        <mxCell id="VK3PM9mJWWv9Rj8pV5F4-11" value="Bootstrap ClassLoader" style="rounded=0;whiteSpace=wrap;html=1;" parent="GsZoiAZXHSTvwdv67YSQ-1" vertex="1">
          <mxGeometry x="-150" y="-24" width="120" height="40" as="geometry" />
        </mxCell>
        <mxCell id="VK3PM9mJWWv9Rj8pV5F4-13" value="加载$JAVA_HOME/jre/lib/ext目录中或者java.ext.dir指定目录中的类库" style="rounded=0;whiteSpace=wrap;html=1;" parent="GsZoiAZXHSTvwdv67YSQ-1" vertex="1">
          <mxGeometry x="51" y="30.5" width="210" height="47" as="geometry" />
        </mxCell>
        <mxCell id="VK3PM9mJWWv9Rj8pV5F4-14" value="继承java.lang.ClassLoader加载的自定义Class" style="rounded=0;whiteSpace=wrap;html=1;" parent="GsZoiAZXHSTvwdv67YSQ-1" vertex="1">
          <mxGeometry x="51" y="157.5" width="210" height="47" as="geometry" />
        </mxCell>
        <mxCell id="VK3PM9mJWWv9Rj8pV5F4-15" value="加载ClassPath目录中或者java.class.path指定目录中的类库" style="rounded=0;whiteSpace=wrap;html=1;" parent="GsZoiAZXHSTvwdv67YSQ-1" vertex="1">
          <mxGeometry x="51" y="92.5" width="210" height="47" as="geometry" />
        </mxCell>
        <mxCell id="0qfylYIxBbZe_pU5ymky-1" value="ClassLoader" style="swimlane;fontStyle=0;childLayout=stackLayout;horizontal=1;startSize=26;fillColor=none;horizontalStack=0;resizeParent=1;resizeParentMax=0;resizeLast=0;collapsible=1;marginBottom=0;whiteSpace=wrap;html=1;" vertex="1" parent="GsZoiAZXHSTvwdv67YSQ-1">
          <mxGeometry x="-263" y="345" width="140" height="52" as="geometry" />
        </mxCell>
        <mxCell id="0qfylYIxBbZe_pU5ymky-5" value="BootClassLoader" style="swimlane;fontStyle=0;childLayout=stackLayout;horizontal=1;startSize=26;fillColor=none;horizontalStack=0;resizeParent=1;resizeParentMax=0;resizeLast=0;collapsible=1;marginBottom=0;whiteSpace=wrap;html=1;" vertex="1" parent="GsZoiAZXHSTvwdv67YSQ-1">
          <mxGeometry x="-413" y="446" width="140" height="52" as="geometry" />
        </mxCell>
        <mxCell id="0qfylYIxBbZe_pU5ymky-7" value="BaseDexClassLoader" style="swimlane;fontStyle=0;childLayout=stackLayout;horizontal=1;startSize=26;fillColor=none;horizontalStack=0;resizeParent=1;resizeParentMax=0;resizeLast=0;collapsible=1;marginBottom=0;whiteSpace=wrap;html=1;" vertex="1" parent="GsZoiAZXHSTvwdv67YSQ-1">
          <mxGeometry x="-257" y="448" width="140" height="52" as="geometry" />
        </mxCell>
        <mxCell id="0qfylYIxBbZe_pU5ymky-9" value="" style="endArrow=classic;html=1;rounded=0;entryX=0.5;entryY=1;entryDx=0;entryDy=0;" edge="1" parent="GsZoiAZXHSTvwdv67YSQ-1" target="0qfylYIxBbZe_pU5ymky-1">
          <mxGeometry width="50" height="50" relative="1" as="geometry">
            <mxPoint x="-350" y="447" as="sourcePoint" />
            <mxPoint x="-300" y="397" as="targetPoint" />
            <Array as="points">
              <mxPoint x="-352" y="428" />
              <mxPoint x="-193" y="428" />
            </Array>
          </mxGeometry>
        </mxCell>
        <mxCell id="0qfylYIxBbZe_pU5ymky-10" value="" style="endArrow=none;html=1;rounded=0;" edge="1" parent="GsZoiAZXHSTvwdv67YSQ-1">
          <mxGeometry width="50" height="50" relative="1" as="geometry">
            <mxPoint x="-192" y="447" as="sourcePoint" />
            <mxPoint x="-192" y="428" as="targetPoint" />
          </mxGeometry>
        </mxCell>
        <mxCell id="0qfylYIxBbZe_pU5ymky-12" style="edgeStyle=orthogonalEdgeStyle;rounded=0;orthogonalLoop=1;jettySize=auto;html=1;entryX=0.5;entryY=1;entryDx=0;entryDy=0;exitX=0.557;exitY=-0.085;exitDx=0;exitDy=0;exitPerimeter=0;" edge="1" parent="GsZoiAZXHSTvwdv67YSQ-1" source="0qfylYIxBbZe_pU5ymky-11" target="0qfylYIxBbZe_pU5ymky-1">
          <mxGeometry relative="1" as="geometry">
            <mxPoint x="4" y="429" as="sourcePoint" />
            <Array as="points">
              <mxPoint x="2" y="428" />
              <mxPoint x="-193" y="428" />
            </Array>
          </mxGeometry>
        </mxCell>
        <mxCell id="0qfylYIxBbZe_pU5ymky-11" value="SecureClassLoader" style="swimlane;fontStyle=0;childLayout=stackLayout;horizontal=1;startSize=26;fillColor=none;horizontalStack=0;resizeParent=1;resizeParentMax=0;resizeLast=0;collapsible=1;marginBottom=0;whiteSpace=wrap;html=1;" vertex="1" parent="GsZoiAZXHSTvwdv67YSQ-1">
          <mxGeometry x="-76" y="448" width="140" height="52" as="geometry" />
        </mxCell>
        <mxCell id="0qfylYIxBbZe_pU5ymky-14" style="edgeStyle=orthogonalEdgeStyle;rounded=0;orthogonalLoop=1;jettySize=auto;html=1;entryX=0.5;entryY=1;entryDx=0;entryDy=0;" edge="1" parent="GsZoiAZXHSTvwdv67YSQ-1" source="0qfylYIxBbZe_pU5ymky-13" target="0qfylYIxBbZe_pU5ymky-11">
          <mxGeometry relative="1" as="geometry" />
        </mxCell>
        <mxCell id="0qfylYIxBbZe_pU5ymky-13" value="URLClassLoader" style="swimlane;fontStyle=0;childLayout=stackLayout;horizontal=1;startSize=26;fillColor=none;horizontalStack=0;resizeParent=1;resizeParentMax=0;resizeLast=0;collapsible=1;marginBottom=0;whiteSpace=wrap;html=1;" vertex="1" parent="GsZoiAZXHSTvwdv67YSQ-1">
          <mxGeometry x="-76" y="534" width="140" height="52" as="geometry" />
        </mxCell>
        <mxCell id="0qfylYIxBbZe_pU5ymky-20" style="edgeStyle=orthogonalEdgeStyle;rounded=0;orthogonalLoop=1;jettySize=auto;html=1;entryX=0.5;entryY=1;entryDx=0;entryDy=0;exitX=0.5;exitY=0;exitDx=0;exitDy=0;" edge="1" parent="GsZoiAZXHSTvwdv67YSQ-1" source="0qfylYIxBbZe_pU5ymky-15" target="0qfylYIxBbZe_pU5ymky-7">
          <mxGeometry relative="1" as="geometry">
            <Array as="points">
              <mxPoint x="-336" y="589" />
              <mxPoint x="-187" y="589" />
            </Array>
          </mxGeometry>
        </mxCell>
        <mxCell id="0qfylYIxBbZe_pU5ymky-15" value="InMemoryDexClassLoader" style="swimlane;fontStyle=0;childLayout=stackLayout;horizontal=1;startSize=26;fillColor=none;horizontalStack=0;resizeParent=1;resizeParentMax=0;resizeLast=0;collapsible=1;marginBottom=0;whiteSpace=wrap;html=1;" vertex="1" parent="GsZoiAZXHSTvwdv67YSQ-1">
          <mxGeometry x="-406" y="598" width="140" height="52" as="geometry" />
        </mxCell>
        <mxCell id="0qfylYIxBbZe_pU5ymky-19" style="edgeStyle=orthogonalEdgeStyle;rounded=0;orthogonalLoop=1;jettySize=auto;html=1;entryX=0.5;entryY=1;entryDx=0;entryDy=0;" edge="1" parent="GsZoiAZXHSTvwdv67YSQ-1" source="0qfylYIxBbZe_pU5ymky-16" target="0qfylYIxBbZe_pU5ymky-7">
          <mxGeometry relative="1" as="geometry" />
        </mxCell>
        <mxCell id="0qfylYIxBbZe_pU5ymky-16" value="PathClassLoader" style="swimlane;fontStyle=0;childLayout=stackLayout;horizontal=1;startSize=26;fillColor=none;horizontalStack=0;resizeParent=1;resizeParentMax=0;resizeLast=0;collapsible=1;marginBottom=0;whiteSpace=wrap;html=1;" vertex="1" parent="GsZoiAZXHSTvwdv67YSQ-1">
          <mxGeometry x="-260" y="598" width="140" height="52" as="geometry" />
        </mxCell>
        <mxCell id="0qfylYIxBbZe_pU5ymky-18" style="edgeStyle=orthogonalEdgeStyle;rounded=0;orthogonalLoop=1;jettySize=auto;html=1;entryX=0.5;entryY=1;entryDx=0;entryDy=0;exitX=0.5;exitY=0;exitDx=0;exitDy=0;" edge="1" parent="GsZoiAZXHSTvwdv67YSQ-1" source="0qfylYIxBbZe_pU5ymky-17" target="0qfylYIxBbZe_pU5ymky-7">
          <mxGeometry relative="1" as="geometry">
            <Array as="points">
              <mxPoint x="-44" y="590" />
              <mxPoint x="-187" y="590" />
            </Array>
          </mxGeometry>
        </mxCell>
        <mxCell id="0qfylYIxBbZe_pU5ymky-17" value="DexClassLoader" style="swimlane;fontStyle=0;childLayout=stackLayout;horizontal=1;startSize=26;fillColor=none;horizontalStack=0;resizeParent=1;resizeParentMax=0;resizeLast=0;collapsible=1;marginBottom=0;whiteSpace=wrap;html=1;" vertex="1" parent="GsZoiAZXHSTvwdv67YSQ-1">
          <mxGeometry x="-114" y="598" width="140" height="52" as="geometry" />
        </mxCell>
        <mxCell id="0qfylYIxBbZe_pU5ymky-21" value="ClassLoader" style="shape=umlLifeline;perimeter=lifelinePerimeter;whiteSpace=wrap;html=1;container=1;dropTarget=0;collapsible=0;recursiveResize=0;outlineConnect=0;portConstraint=eastwest;newEdgeStyle={&quot;curved&quot;:0,&quot;rounded&quot;:0};" vertex="1" parent="GsZoiAZXHSTvwdv67YSQ-1">
          <mxGeometry x="196" y="286" width="100" height="300" as="geometry" />
        </mxCell>
        <mxCell id="0qfylYIxBbZe_pU5ymky-22" value="BaseDexClassLoader" style="shape=umlLifeline;perimeter=lifelinePerimeter;whiteSpace=wrap;html=1;container=1;dropTarget=0;collapsible=0;recursiveResize=0;outlineConnect=0;portConstraint=eastwest;newEdgeStyle={&quot;curved&quot;:0,&quot;rounded&quot;:0};" vertex="1" parent="GsZoiAZXHSTvwdv67YSQ-1">
          <mxGeometry x="321" y="286" width="100" height="300" as="geometry" />
        </mxCell>
        <mxCell id="0qfylYIxBbZe_pU5ymky-23" value="DexPathList" style="shape=umlLifeline;perimeter=lifelinePerimeter;whiteSpace=wrap;html=1;container=1;dropTarget=0;collapsible=0;recursiveResize=0;outlineConnect=0;portConstraint=eastwest;newEdgeStyle={&quot;curved&quot;:0,&quot;rounded&quot;:0};" vertex="1" parent="GsZoiAZXHSTvwdv67YSQ-1">
          <mxGeometry x="456" y="286" width="100" height="300" as="geometry" />
        </mxCell>
        <mxCell id="0qfylYIxBbZe_pU5ymky-24" value="Element" style="shape=umlLifeline;perimeter=lifelinePerimeter;whiteSpace=wrap;html=1;container=1;dropTarget=0;collapsible=0;recursiveResize=0;outlineConnect=0;portConstraint=eastwest;newEdgeStyle={&quot;curved&quot;:0,&quot;rounded&quot;:0};" vertex="1" parent="GsZoiAZXHSTvwdv67YSQ-1">
          <mxGeometry x="580" y="286" width="100" height="300" as="geometry" />
        </mxCell>
        <mxCell id="0qfylYIxBbZe_pU5ymky-25" value="DexFile" style="shape=umlLifeline;perimeter=lifelinePerimeter;whiteSpace=wrap;html=1;container=1;dropTarget=0;collapsible=0;recursiveResize=0;outlineConnect=0;portConstraint=eastwest;newEdgeStyle={&quot;curved&quot;:0,&quot;rounded&quot;:0};" vertex="1" parent="GsZoiAZXHSTvwdv67YSQ-1">
          <mxGeometry x="704" y="286" width="100" height="300" as="geometry" />
        </mxCell>
        <mxCell id="0qfylYIxBbZe_pU5ymky-26" value="loadClass" style="html=1;verticalAlign=bottom;endArrow=block;curved=0;rounded=0;" edge="1" parent="GsZoiAZXHSTvwdv67YSQ-1">
          <mxGeometry width="80" relative="1" as="geometry">
            <mxPoint x="163" y="357" as="sourcePoint" />
            <mxPoint x="243" y="357" as="targetPoint" />
          </mxGeometry>
        </mxCell>
        <mxCell id="0qfylYIxBbZe_pU5ymky-30" value="findClass" style="html=1;verticalAlign=bottom;endArrow=block;curved=0;rounded=0;" edge="1" parent="GsZoiAZXHSTvwdv67YSQ-1" source="0qfylYIxBbZe_pU5ymky-21">
          <mxGeometry width="80" relative="1" as="geometry">
            <mxPoint x="288" y="379" as="sourcePoint" />
            <mxPoint x="368" y="379" as="targetPoint" />
          </mxGeometry>
        </mxCell>
        <mxCell id="0qfylYIxBbZe_pU5ymky-31" value="findClass" style="html=1;verticalAlign=bottom;endArrow=block;curved=0;rounded=0;" edge="1" parent="GsZoiAZXHSTvwdv67YSQ-1" target="0qfylYIxBbZe_pU5ymky-23">
          <mxGeometry width="80" relative="1" as="geometry">
            <mxPoint x="374" y="398" as="sourcePoint" />
            <mxPoint x="454" y="398" as="targetPoint" />
          </mxGeometry>
        </mxCell>
        <mxCell id="0qfylYIxBbZe_pU5ymky-32" value="findClass" style="html=1;verticalAlign=bottom;endArrow=block;curved=0;rounded=0;" edge="1" parent="GsZoiAZXHSTvwdv67YSQ-1">
          <mxGeometry width="80" relative="1" as="geometry">
            <mxPoint x="502" y="418" as="sourcePoint" />
            <mxPoint x="634" y="418" as="targetPoint" />
          </mxGeometry>
        </mxCell>
        <mxCell id="0qfylYIxBbZe_pU5ymky-33" value="loadClassBinaryName" style="html=1;verticalAlign=bottom;endArrow=block;curved=0;rounded=0;" edge="1" parent="GsZoiAZXHSTvwdv67YSQ-1" source="0qfylYIxBbZe_pU5ymky-24">
          <mxGeometry width="80" relative="1" as="geometry">
            <mxPoint x="638" y="444" as="sourcePoint" />
            <mxPoint x="752" y="442" as="targetPoint" />
          </mxGeometry>
        </mxCell>
        <mxCell id="0qfylYIxBbZe_pU5ymky-34" value="native" style="shape=umlLifeline;perimeter=lifelinePerimeter;whiteSpace=wrap;html=1;container=1;dropTarget=0;collapsible=0;recursiveResize=0;outlineConnect=0;portConstraint=eastwest;newEdgeStyle={&quot;curved&quot;:0,&quot;rounded&quot;:0};participant=umlEntity;" vertex="1" parent="GsZoiAZXHSTvwdv67YSQ-1">
          <mxGeometry x="832" y="282" width="40" height="300" as="geometry" />
        </mxCell>
        <mxCell id="0qfylYIxBbZe_pU5ymky-35" value="defineClassNative" style="html=1;verticalAlign=bottom;endArrow=block;curved=0;rounded=0;" edge="1" parent="GsZoiAZXHSTvwdv67YSQ-1">
          <mxGeometry width="80" relative="1" as="geometry">
            <mxPoint x="760" y="472" as="sourcePoint" />
            <mxPoint x="851" y="471.5" as="targetPoint" />
          </mxGeometry>
        </mxCell>
      </root>
    </mxGraphModel>
  </diagram>
</mxfile>
